<?xml version="1.0" encoding="UTF-8"?><svg id="Layer_2" xmlns="http://www.w3.org/2000/svg" viewBox="0 0 267.63 250.41"><defs><style>.cls-1{fill:#d62839;}.cls-2{fill:#fce762;}.cls-3{fill:none;}.cls-4{fill:#bcbcd1;}.cls-5{fill:#2e933c;}</style></defs><g id="Layer_1-2"><g><g><g><path class="cls-3" d="M188.03,94.65s.01-.05,.01-.08c0,0,0,0,0,0,0,.03,0,.06-.01,.1,0,0,0-.02,0-.02Z"/><path d="M263.39,60.92l-.05-.04-.1-.09c-.9-.89-1.92-1.78-3.36-2.27-.55-.18-1.12-.27-1.71-.32-.85-.41-1.78-.63-2.74-.63l-1.07,.03c-.14-.03-.29-.05-.45-.06-.78-.33-1.62-.51-2.49-.51-.53-.12-1.08-.17-1.63-.17-1.22,0-2.35,.3-3.34,.84h-1.91l-1.5,.03-.03-.03h-1.81c-1.09-.81-2.35-1.25-3.69-1.25-1.18,0-2.32,.34-3.27,.96-.81,.13-1.83,.47-2.83,1.26h-3.2v6.7c-.08,.58-.12,1.19-.12,1.84v2.54l-.4-.39c-.13-.37-.31-.73-.5-1.07-.28-.51-.63-1-1.05-1.44l-.3-.3c-.12-.51-.32-1.12-.61-1.99-.39-1.15-.63-1.9-.76-2.24-.15-.38-.32-.74-.5-1.05l-.05-.22-.34-1.02c-.18-.54-.39-1.02-.63-1.49l-.05-.16c-.32-1.3-.78-2.48-1.34-3.55-.03-.04-.05-.09-.08-.14-.29-.92-.88-1.99-2.01-2.88-.79-1.21-1.86-2.06-3.19-2.51-.37-.13-.72-.21-1.4-.34,0-.32,.03-.63,.03-.97V.67h-46.19v3.39c-.5-.38-1.01-.75-1.56-1.07-3.37-2.02-7.59-2.99-12.96-2.99s-10.26,1.16-13.75,3.44c-2.57,1.68-4.6,3.88-6.08,6.54-1.15-1.93-2.59-3.56-4.34-4.86-2.23-1.66-4.87-2.86-7.86-3.54-2.61-.6-5.53-.91-8.69-.91H52.72V63.75l1.85,.39-.78,2.05,1.25,1.25c0,.69-.02,1.44-.04,2.2-.03,1.02-.11,2.05-.19,3.09-.11,1.18-.23,1.74-.26,1.92l-.05,.23c-.03,.19-.06,.37-.1,.56-.12-.26-.25-.5-.43-.74-.05-1.81-.29-3.66-.73-5.5-.45-1.93-1.02-3.79-1.67-5.5l-.08-.19v-.1c-.14-.68-.29-1.36-.47-2.04l-.06-.26c-.07-.39-.15-.78-.24-1.13-.12-.58-.23-1.21-.34-1.89-.07-.34-.12-.62-.13-.81-.04-1.04-.25-2.02-.63-2.93-.04-.18-.07-.36-.12-.55-.34-2.33-.55-3.11-.85-3.85-.59-1.36-1.59-2.46-3.05-3.37-1.24-.85-2.73-1.32-4.31-1.37-.86-.26-1.69-.34-2.32-.37-.56-.04-1.18-.08-1.86-.15-.94-.08-1.86-.13-2.73-.13h-2.56l-.9,.31c-.7,.23-1.48,.57-2.35,1-1.15,.57-2.05,1.25-2.73,2.02-1.33,1.15-2.11,2.79-2.09,4.55,0,1.29,.44,2.52,1.18,3.54,0,0,.19,.47,.31,.73v1.33l1.52,1.52c.23,.89,.55,2.3,.95,4.14,.16,.82,.26,1.41,.34,1.81-.19,.49-.35,1.02-.42,1.63-.05,.15-.09,.33-.16,.52-.16,.46-.27,.71-.34,.83-.52,.76-1.03,1.71-1.62,2.94-.43,.96-.89,1.89-1.36,2.85l-.19,.35-.13,.39s-.1,.28-.37,.86l-1.02,2.02c-.34,.68-.68,1.34-1.02,1.98-.31,.61-.6,1.14-.86,1.58l-.19,.36-.16,.37c-.05,.11-.12,.26-.21,.4-.33,.57-.59,1.06-.76,1.39l-.05,.12c-.15,.22-.28,.42-.39,.61-.4,.59-.76,1.28-1.21,2.2-.44,.91-.91,1.91-1.41,3-.55,1.16-1.04,2.26-1.46,3.31-.3,.75-.51,1.23-.61,1.44-.15,.29-.28,.58-.39,.87l-1.71-.22c-.7-.1-1.23-.18-1.61-.23-.5-.1-1-.14-1.5-.14-2.04,0-3.96,.79-5.4,2.24-1.44,1.44-2.22,3.29-2.24,5.25-.16,.58-.25,1.26-.35,2.24-.08,.86-.15,1.82-.18,2.85-.05,1.09-.05,2.12,0,3.06,.03,.82,.1,1.44,.18,1.97-.11,1.39,.21,2.75,.99,3.93,.48,.73,1.11,1.35,1.86,1.8-.2,.44-.34,.79-.47,1.1-.6,1.6-.97,2.3-1.1,2.51C.02,124.17-.09,126.55,.03,127.77c.15,1.23,.77,3.58,3.43,5.28l.25,.16c.68,.39,1.1,.62,1.23,.68,.55,.27,1.14,.48,2.24,.76l.07,.05c1.15,.71,2.23,1.18,3.33,1.42,.37,.1,.73,.15,1.09,.18,.3,.18,.63,.34,.98,.49-1.03,1.55-1.86,3.26-2.47,5.17-1.18,3.74-1.8,8.15-1.8,13.14v20.59c0,4.89,.63,9.27,1.85,12.97,1.42,4.34,3.85,7.78,7.23,10.23,3.38,2.44,7.76,3.67,13.04,3.67,2.24,0,4.28-.31,6.11-.92l.02,.09h26.01c-.6,1.01-1.13,2.06-1.52,3.24-.91,2.77-1.36,5.99-1.36,9.56v15.53c0,3.45,.47,6.58,1.37,9.33,1.12,3.4,3.14,6.12,6.01,8.09,2.78,1.94,6.42,2.93,10.82,2.93,3.46,0,6.34-.6,8.73-1.76v1.16h38.37l-.09-.37c1.99,.63,4.24,.97,6.82,.97,4.02,0,7.22-.76,9.84-2.23v1.63h19.49v-1.54c2.59,1.41,5.63,2.14,9.13,2.14,2.78,0,5.32-.58,7.58-1.65v1.05h30.04v-17.13h-2.31v-20.82h2.2v-14.09l.68,3.96h38.53v-28.3l12.89-39.86c1.69-1.22,2.48-2.67,2.82-3.85,.01-.05,.19-.41,.19-.41l.1-.29c.39-1.02,.61-2.09,.68-3.19,0-.04,.02-.08,.02-.13,.43-1.21,.43-2.29,.43-2.78,0-.43,0-1.37-.32-2.46v-1.05c.11-.42,.16-.86,.18-1.29,.17-.8,.17-1.6,.03-2.4,.03-.14,.21-1.1,.21-1.1v-.56c0-.26,0-.57-.03-.89,.03-.23,.05-.42,.06-.57,.05-.55,.08-1.15,.08-1.81,0-.6-.03-1.21-.08-1.84-.03-.44-.08-.83-.14-1.2,.08-.45,.11-.91,.11-1.39v-.13c.45-1.26,.5-2.59,.16-3.82,.03-.31,.05-.63,.05-.95v-.86c0-.18,0-.36-.02-.54l.02-.03v-2.72c.08-.53,.11-1.1,.11-1.78l.12-.4v-.73c0-.61-.04-1.16-.1-1.7,.1-.63,.1-1.16,.1-1.5v-.79l.09-.42v-.72c0-.21,.02-.55,.05-1,.03-.6,.05-1.18,.07-1.76,.06-.66,.09-1.34,.09-2.02l.1-.3,.02-.9s0-.2,.09-.66l.12-.47v-.59c.01-.17,.03-.48,.08-.92,.08-.73,.14-1.49,.22-2.28l.02-.31c.07-1.71,.13-3.13,.21-4.23,.07-1.17,.16-1.65,.18-1.77l.05-.19,.18-1.2c.77-.9,1.27-2.04,1.39-3.28,.13-1.31-.04-4.55-4.21-6.47Zm-75.35,33.65s0,.05-.01,.08c0,0,0,.02,0,.02,0-.03,.01-.07,.01-.1,0,0,0,0,0,0Z"/></g><g><polygon class="cls-3" points="230.89 85.76 230.83 85.83 230.71 85.65 230.89 85.76"/><path class="cls-3" d="M217.9,110.09l-.74-.74,.48-.07c.07,.23,.15,.46,.25,.68,0,.04,.01,.09,.01,.13Z"/><path class="cls-3" d="M187.98,94.72h.05s0-.1,0-.15c-.02,.05-.04,.1-.06,.15Z"/></g><g><path class="cls-5" d="M48.89,164.79v31.12h-7.18l-.85-6.07c-.8,2.03-2.02,3.68-3.67,4.97-1.63,1.28-3.86,1.93-6.69,1.93-4.05,0-7.25-.86-9.63-2.58-2.36-1.71-4.08-4.15-5.11-7.31-1.04-3.15-1.55-6.87-1.55-11.16v-20.59c0-4.4,.51-8.19,1.52-11.37,1-3.18,2.78-5.62,5.33-7.3,2.56-1.7,6.07-2.54,10.57-2.54,4.19,0,7.52,.71,9.99,2.12,2.48,1.41,4.26,3.44,5.34,6.1,1.09,2.65,1.64,5.87,1.64,9.65v3.18h-10.68v-3.48c0-1.98-.15-3.66-.42-5.08-.28-1.41-.84-2.48-1.67-3.22-.84-.73-2.18-1.1-4.06-1.1s-3.38,.48-4.27,1.44c-.89,.97-1.44,2.23-1.66,3.78-.23,1.57-.34,3.29-.34,5.16v25.68c0,2.12,.17,3.96,.53,5.51,.34,1.57,1,2.77,1.96,3.61,.97,.83,2.33,1.25,4.09,1.25s3.2-.46,4.17-1.36c.96-.91,1.62-2.17,2.01-3.79,.37-1.62,.57-3.54,.57-5.76v-5.76h-6.59v-7.03h16.65Z"/><path class="cls-5" d="M79.35,188.18v7.73h-25.9v-51.78c.15-.03,.29-.07,.47-.1,.91-.14,1.67-.58,2.22-1.21,.34-.11,.69-.26,1.13-.49,.22-.09,.43-.19,.64-.27,.02-.02,.04-.02,.05-.02h.34l.44-.22s.1-.04,.21-.05c.39-.1,.74-.24,1.07-.41,.18-.05,.35-.09,.53-.13,.39-.09,.68-.21,.96-.32,1.48-.53,2.52-1.52,3.05-2.81,.13-.05,.26-.12,.36-.17,.03-.03,.08-.04,.13-.06h.14l.34-.11c.46-.15,.83-.31,1.14-.51,.22-.04,.64-.11,1.42-.24,.6,0,1.26-.03,2.02-.11,.73-.07,1.38-.15,1.91-.21,2.64-.23,5.03-.39,7.17-.47v6.23h-14.55v17.65h11.44v7.79h-11.44v20.29h14.71Z"/><path class="cls-5" d="M111.54,134.57v8.25h-9.62v53.09h-11.22v-53.09h-9.77v-6.67c.7-.01,1.38-.03,2.03-.03,1.53,0,3.04,.05,4.43,.15,1.49,.14,3.15,.21,4.93,.21s3.56-.03,5.44-.1c.97,0,1.37,.05,1.5,.07,.46,.17,.91,.27,1.36,.27,.92,0,1.76-.39,2.4-1.1,.58-.15,1.14-.48,1.71-1,.02-.02,.03-.03,.05-.05h6.76Z"/><path class="cls-5" d="M131.96,134.57h-11.98l-12.26,61.34h10.52l2.5-14.17h10.68l2.43,14.17h10.37l-12.26-61.34Zm-10.08,40.05l4.15-25.73,4.18,25.73h-8.33Z"/><path class="cls-5" d="M189.14,142.96l-7.39,52.95h-9.08l-6.82-41.12-6.73,41.12h-9.32l-8.7-61.34h9.38l5.08,39.76,6.35-39.62h7.66l6.5,39.62,5-39.76h5.66c.02,.32,.02,.63,.03,.89,.03,.95,.08,1.6,.11,2,.05,.46,.12,.85,.23,1.2-.34,.83-.31,1.73,.11,2.56,.28,.56,.85,1.29,1.93,1.74Z"/><path class="cls-5" d="M211.46,134.57h-8.68c.03,.24,.05,.47,.05,.69v1.01s.01,.13,.06,.42l.02,.08v.08c.13,.87,.13,1.39,.03,1.86-.2,.92-.86,1.62-1.72,1.83-.03,.05-.06,.1-.09,.13v2h-1.3v1.07h-2.17l-10.43,52.17h10.52l2.5-14.17h10.68l2.43,14.17h10.37l-12.27-61.34Zm-10.07,40.05l4.17-25.73,4.16,25.73h-8.33Z"/><path class="cls-5" d="M253.41,134.57l-12.26,37.93v23.41h-10.68v-23.41l-12.42-37.93h10.45l7.57,24.31,4.64-15.85c.21,.05,.44,.08,.68,.08,.34,0,.65-.06,.94-.16,.06,0,.13,.01,.19,.01,.36,0,.71-.09,1.04-.24h.03s.02-.03,.02-.03c.05-.03,.09-.05,.14-.08,.12,.02,.24,.03,.37,.03,.67,0,1.3-.29,1.74-.78,.33-.37,.71-1.03,.59-2.03,0-.17-.04-.31-.08-.46,.15-.11,.28-.26,.41-.4,.27-.36,.71-1.13,.42-2.27-.02-.11-.07-.32-.1-.72-.03-.36-.05-.83-.05-1.41h6.36Z"/><path class="cls-1" d="M82.1,216.15v-3.77c0-1.21-.07-2.33-.2-3.33-.12-1.01-.46-1.82-1.01-2.4-.57-.6-1.52-.89-2.88-.89s-2.37,.31-3,.94c-.61,.63-1.02,1.47-1.19,2.52-.18,1.07-.28,2.27-.28,3.58v18.94c0,1.57,.13,2.87,.37,3.9,.26,1.02,.72,1.78,1.38,2.3,.66,.53,1.57,.79,2.72,.79,1.32,0,2.26-.32,2.81-.94,.57-.63,.91-1.47,1.05-2.51,.15-1.03,.23-2.2,.23-3.49v-3.93h7.63v3.49c0,2.59-.34,4.87-1.03,6.86-.68,1.99-1.86,3.55-3.58,4.68-1.69,1.13-4.09,1.7-7.16,1.7s-5.7-.63-7.51-1.88c-1.81-1.26-3.07-2.98-3.78-5.14-.73-2.17-1.09-4.66-1.09-7.51v-15.53c0-2.98,.36-5.56,1.09-7.75,.71-2.18,1.97-3.86,3.78-5.05,1.81-1.18,4.3-1.77,7.51-1.77,3.01,0,5.35,.51,7.07,1.53,1.7,1.02,2.91,2.48,3.62,4.39,.71,1.89,1.08,4.09,1.08,6.61v3.66h-7.63Z"/><path class="cls-1" d="M111.3,222.54c1.36-.54,2.42-1.3,3.18-2.28,.78-.99,1.33-2.19,1.65-3.58,.33-1.41,.49-2.97,.49-4.74,0-2.89-.53-5.19-1.59-6.87-1.06-1.69-2.6-2.88-4.62-3.58-2.04-.69-4.52-1.05-7.46-1.05h-10.43v43.55h7.96v-19.95h3.65l5.28,19.95h7.95l-6.06-21.45Zm-2.7-6.31c-.39,.99-1.06,1.7-1.96,2.15-.92,.44-2.14,.66-3.69,.66h-2.47v-13.16h2.91c2.25,0,3.78,.53,4.59,1.63,.81,1.1,1.21,2.73,1.21,4.92,0,1.55-.19,2.81-.59,3.8Z"/><path class="cls-1" d="M144.06,200.44v29.47c0,3.05-.34,5.67-1.02,7.85s-1.91,3.87-3.69,5.05c-1.77,1.18-4.29,1.78-7.56,1.78s-5.72-.6-7.52-1.78c-1.79-1.18-3.02-2.87-3.7-5.05-.7-2.18-1.04-4.8-1.04-7.85v-29.47h7.75v30.38c0,1.36,.1,2.64,.28,3.85,.17,1.2,.59,2.17,1.26,2.9,.66,.74,1.65,1.1,2.97,1.1,1.41,0,2.41-.36,3.04-1.1,.64-.73,1.04-1.7,1.25-2.9,.19-1.21,.29-2.49,.29-3.85v-30.38h7.69Z"/><rect class="cls-1" x="147.45" y="200.44" width="7.85" height="43.55"/><path class="cls-1" d="M181.16,233.89c0,2.07-.46,3.92-1.37,5.54-.92,1.61-2.18,2.88-3.82,3.78-1.63,.92-3.54,1.38-5.72,1.38-2.63,0-4.81-.52-6.57-1.54-1.75-1.02-3.08-2.51-3.98-4.48-.89-1.97-1.39-4.4-1.51-7.26l6.85-1.35c.06,1.69,.27,3.17,.61,4.47,.34,1.29,.86,2.28,1.55,2.97s1.62,1.06,2.77,1.06c1.29,0,2.22-.39,2.75-1.15,.53-.78,.81-1.75,.81-2.95,0-1.89-.44-3.44-1.29-4.67-.86-1.22-2.01-2.43-3.45-3.66l-5.48-4.84c-1.54-1.32-2.77-2.79-3.69-4.43-.91-1.63-1.36-3.65-1.36-6.05,0-3.44,1-6.1,3.01-7.96,2-1.86,4.74-2.79,8.22-2.79,2.05,0,3.75,.3,5.11,.93s2.44,1.51,3.25,2.61c.81,1.11,1.41,2.38,1.81,3.8,.39,1.41,.65,2.91,.74,4.48l-6.77,1.18c-.07-1.36-.23-2.57-.46-3.65-.22-1.07-.64-1.91-1.23-2.53-.59-.6-1.47-.9-2.62-.9s-2.08,.38-2.7,1.14c-.63,.78-.95,1.74-.95,2.88,0,1.48,.3,2.69,.92,3.63,.61,.95,1.49,1.94,2.64,2.93l5.43,4.78c1.78,1.51,3.32,3.29,4.6,5.31,1.26,2.02,1.9,4.46,1.9,7.34Z"/><polygon class="cls-1" points="202.05 238.5 202.05 243.99 183.66 243.99 183.66 200.44 201.94 200.44 201.94 206.04 191.61 206.04 191.61 218.56 199.74 218.56 199.74 224.11 191.61 224.11 191.61 238.5 202.05 238.5"/><g><path class="cls-2" d="M61.91,137.79c-.58-.16-1.05-.52-1.37-.99-.55-.44-.91-1.07-1.02-1.79-.08-.17-.13-.36-.18-.55-.2-.31-.36-.72-.42-1.22-.03-.22-.08-.5-.15-.81l-.03-.21v-.22c0-.26-.02-.52-.05-.76,0-.04,0-.07-.01-.1l-.04-.13c-.21-.61-.32-1.16-.34-1.68-.72-1.04-.71-2.01-.4-2.74,.05-.25,.11-.5,.21-.74-.08-.32-.1-.71-.07-1.15,.07-.6,.2-1.1,.42-1.52,0-.02,0-.03,.02-.05,.02-.24,.03-.87,.03-2.55v-.38c-.14-.53-.27-1.05-.42-1.55-.14-.5-.29-.89-.42-1.18-.14-.27-.14-.5,0-.63,.07-.29,0-.65-.22-1.07-.28-.58-.42-.97-.42-1.18-.22-1.15-.51-1.99-.86-2.57-.07-.13-.15-.32-.21-.58-.08-.25-.12-.49-.12-.7-.14-.57-.21-1.03-.21-1.39-.06-.13-.13-.4-.16-.79-.03-.39-.08-.78-.16-1.14-.06-.35-.15-.79-.21-1.32-.06-.54-.18-.99-.32-1.34-.15-.36-.23-.7-.26-1.01-.05-.32-.07-.55-.07-.69,0-.29-.06-.5-.21-.65-.14-.15-.27-.55-.42-1.23-.14-.68-.29-1.5-.43-2.51-.07-.21-.13-.56-.21-1.06-.07-.51-.18-1.01-.33-1.51-.14-.57-.24-1.03-.31-1.44-.08-.39-.11-.65-.11-.79-.06-.36-.18-.73-.32-1.13-.15-.39-.29-.76-.42-1.12-.15-.36-.29-1.07-.44-2.14-.06-.42-.11-.92-.16-1.48-.03-.59-.08-1.07-.15-1.51-.08-.98-.26-1.84-.55-2.55-.21-.59-.37-1.15-.47-1.72-.11-.56-.19-1.39-.27-2.46-.15-.77-.23-1.24-.26-1.39-.05-.14-.16-.32-.37-.53-.58-.5-.86-1.28-.86-2.35,0-1.63-.19-3.3-.6-4.96-.39-1.67-.86-3.27-1.44-4.76-.14-.28-.26-.71-.37-1.28-.1-.56-.23-1.15-.37-1.71-.07-.21-.13-.44-.16-.7-.04-.24-.08-.48-.17-.69-.14-.72-.27-1.48-.42-2.3-.14-.81-.21-1.36-.21-1.65,0-.42-.11-.78-.32-1.07-.08-.14-.13-.35-.16-.65-.03-.27-.1-.56-.16-.85-.21-1.49-.38-2.36-.49-2.61-.1-.26-.4-.52-.9-.81-.36-.27-.81-.42-1.4-.42h-.53c-.21,0-.39-.03-.53-.11-.21-.15-.63-.23-1.28-.26-.65-.05-1.33-.1-2.09-.16-.74-.08-1.47-.11-2.18-.11h-1.6c-.44,.14-.97,.37-1.61,.69-.64,.33-.97,.55-.97,.7,0,.21-.13,.35-.42,.42-.29,.14-.29,.29,0,.43,.07,.07,.12,.13,.12,.17,0,.03,.03,.08,.09,.16l.12,.09c0,.22,.03,.36,.09,.44,.15,.36,.33,.78,.54,1.28,.22,.5,.32,.78,.32,.86l.33,.32c.29,0,.55,.44,.8,1.33s.65,2.65,1.23,5.29c.36,1.78,.55,2.89,.59,3.36,.03,.47-.02,.84-.17,1.12-.29,.43-.42,.68-.42,.76,0,.27-.14,.84-.43,1.7-.29,.85-.6,1.57-.96,2.13-.35,.5-.77,1.25-1.23,2.25-.47,1-.95,1.99-1.44,2.99-.14,.42-.39,.96-.69,1.6-.33,.64-.67,1.31-1.02,2.03-.36,.71-.71,1.4-1.07,2.08-.36,.68-.68,1.27-.97,1.77-.13,.35-.32,.74-.58,1.18-.24,.42-.44,.77-.58,1.07-.15,.27-.3,.53-.44,.74-.13,.21-.24,.39-.31,.53-.14,.15-.44,.67-.86,1.56-.43,.89-.89,1.86-1.39,2.92-.5,1.07-.94,2.09-1.34,3.06-.39,.96-.65,1.59-.79,1.86-.15,.29-.28,.57-.37,.86-.12,.29-.2,.53-.28,.74-.06,.15-.15,.29-.21,.44-.06,.13-.11,.24-.11,.31-.07,.08-.25,.47-.54,1.18-.13,.35-.26,.58-.37,.69-.1,.12-.23,.2-.37,.26-.15,0-.55-.03-1.23-.09-.68-.09-1.41-.17-2.18-.28-.8-.1-1.59-.21-2.41-.31-.81-.11-1.44-.21-1.87-.27-.17-.03-.33-.05-.48-.05-.5,0-.92,.18-1.28,.53-.47,.46-.63,1.01-.48,1.65,0,.15-.07,.42-.21,.86-.08,.21-.15,.7-.21,1.44-.09,.74-.13,1.59-.17,2.51-.04,.92-.04,1.78,0,2.57,.04,.78,.08,1.28,.17,1.49,.06,.21,.09,.5,.09,.86-.21,.5-.09,.74,.33,.74,.14,0,.35,.08,.64,.21,.13,.08,.34,.13,.59,.16,.08,.02,.17,.02,.3,.02,.23,0,.54-.02,.93-.07h1.6c.35,0,.56,.12,.64,.33,.07,.21-.03,.56-.27,1.06-.24,.51-.58,1.25-1.02,2.25-.36,.78-.71,1.56-1.07,2.35-.35,.78-.6,1.36-.74,1.7-.86,2.28-1.6,3.75-2.25,4.38-.92,.92-.89,1.72,.11,2.36,.5,.28,.83,.46,.96,.54,.14,.06,.5,.17,1.08,.3,.63,.15,1.2,.41,1.7,.76,.57,.36,1.08,.59,1.55,.68,.2,.05,.37,.08,.5,.08,.2,0,.33-.04,.41-.12,.05-.09,.13-.12,.22-.12,.15,0,.36,.12,.64,.33,.74,.61,1.29,.9,1.61,.9,.15,0,.25-.05,.31-.14,.1-.17,.32-.25,.68-.25,.11,0,.24,0,.39,.02,.06,.02,.13,.02,.21,.02,.34,0,.65-.15,.9-.44,.33-.36,.49-.79,.49-1.28,0-.21,.06-.47,.21-.74,.06-.15,.15-.41,.21-.76,.08-.36,.18-.72,.32-1.07,.36-.78,.6-1.42,.75-1.93,.14-.13,.26-.35,.32-.63,.07-.29,.15-.53,.21-.74,.15-.58,.26-.94,.33-1.07,.14-.29,.32-.66,.53-1.13,.21-.45,.44-.94,.65-1.44s.38-.96,.53-1.39c.15-.42,.21-.68,.21-.75,0-.06,.03-.14,.11-.21v-.11c.13-.15,.39-.89,.75-2.25,.21-.77,.4-1.39,.58-1.86,.18-.47,.34-.81,.49-1.02,.14-.21,.34-.35,.58-.42,.26-.08,.55-.11,.9-.11,1.3-.15,3-.23,5.13-.26,2.14-.05,4.22-.08,6.26-.11,1-.02,1.96-.04,2.85-.04s1.71,.02,2.49,.04c1.52,.03,2.33,.09,2.39,.16,.09,.06,.15,.29,.23,.65,.07,.35,.13,.74,.21,1.16,.15,1,.28,1.68,.42,2.04,.07,.14,.13,.34,.16,.58,.04,.24,.1,.55,.17,.91,.14,.56,.25,1.08,.37,1.55,.11,.47,.3,1.08,.58,1.86,.15,.29,.27,.68,.37,1.18,.11,.5,.24,.97,.39,1.39,.13,.42,.26,.84,.37,1.23,.1,.39,.2,.66,.26,.79,.21,.23,.32,.44,.32,.65,0,.07,.07,.29,.21,.65,.15,.35,.3,.77,.44,1.28,.42,1.27,.63,2.13,.63,2.55,0,.36,.03,.91,.12,1.67,.06,.74,.16,1.5,.25,2.3,.12,.77,.25,1.55,.39,2.34,.13,.78,.25,1.42,.31,1.93,.08,.35,.13,.68,.16,.95,.03,.29,.07,.47,.07,.53-.08,.15-.05,.3,.09,.44,.15,.13,.29,.45,.44,.96h-.11c.14,.5,.27,.76,.42,.8h.11c.2,0,.55-.04,1.07-.16,.5-.08,.86-.29,1.07-.64,.24-.3,.4-.44,.48-.44,.02,0,.03,0,.05,.01,.21,0,.6-.14,1.18-.43,.28-.15,.57-.26,.86-.37,.27-.1,.48-.17,.63-.17,.14-.06,.36-.14,.65-.21,.27-.06,.53-.17,.74-.32,.29-.06,.57-.15,.86-.21,.27-.06,.5-.15,.63-.21,.61-.21,1.08-.53,1.44-.92-.07-.05-.13-.08-.18-.13ZM28.83,95.79c.13-.71,.21-1.11,.21-1.18-.08-.06-.02-.29,.16-.64,.18-.36,.34-.6,.47-.75,.08,0,.11,.11,.11,.33,0,.29,.07,.5,.21,.64,.15,.13,.17,.34,.07,.58-.11,.25-.39,.8-.81,1.65-.31,.75-.53,1.1-.68,1.1-.03,0-.05,0-.06-.03-.15-.13-.05-.71,.32-1.7Zm-.53,5.97c.12-.27,.48-.92,1.06-1.91,.28-.58,.63-1.27,1.07-2.08,.42-.83,.71-1.44,.84-1.88,.08-.14,.16-.36,.28-.63,.11-.29,.19-.5,.26-.65,.14-.29,.27-.66,.38-1.11,.1-.47,.23-1.27,.38-2.41,.13-.57,.21-.96,.21-1.18,.06-.18,.08-.26,.03-.26-.07,0-.18,.08-.36,.26-.21,.29-.43,.45-.69,.48-.04,0-.05,.02-.08,.02-.2,0-.29-.13-.29-.39,0-.15-.12-.21-.33-.21-.14,0-.21-.03-.21-.11,0-.15,.07-.47,.21-1.02,.15-.54,.26-.83,.33-.91,.14-.27,.21-.57,.21-.84-.07-.65-.07-1.31,0-1.99,.08-.66,.14-1.08,.21-1.23,.22-.21,.25-.6,.11-1.16,0-.57,.18-1.19,.53-1.82,.29-.71,.44-1.21,.44-1.5s.03-.45,.1-.54c.14-.14,.21-.53,.21-1.18,0-.56,.08-.98,.22-1.27,.07-.07,.17-.46,.31-1.17,.15-.71,.26-1.18,.32-1.39,.15-.15,.21-.32,.21-.53,0-.23,.1-.49,.28-.81,.18-.33,.34-.49,.48-.49,.36,0,.39,.33,.1,.97-.27,.57-.27,.86,0,.86,.71,0,.79,.6,.21,1.81-.84,1.85-1.45,3.32-1.81,4.39-.36,1.06-.39,1.6-.1,1.6,.21,0,.54-.29,.96-.86,.5-.65,.77-.95,.86-.95,.06-.09,.09-.15,.09-.23,.08-.07,.18-.24,.33-.53,.14-.36,.3-.59,.48-.7,.07-.03,.11-.05,.16-.05,.1,0,.16,.07,.21,.21,.42,.94,.29,2.1-.42,3.53-.22,.5-.3,.82-.27,.97,.01,.03,.03,.05,.05,.05,.08,0,.22-.16,.43-.49,.23-.42,.42-.63,.6-.63,.28,0,.5,.5,.68,1.49,0,.36,.03,.68,.11,.95,.07,.29,.1,.51,.1,.65,.15,.15,.21,.36,.21,.65,0,.27,.05,.63,.11,1.07,.07,.42,.18,.71,.33,.85,.06,.07,.14,.28,.21,.63,.06,.36,.14,.75,.21,1.18,.35,2.08,.78,4.08,1.23,6.04,.47,1.96,1.08,3.9,1.87,5.82,.15,.15,.23,.33,.26,.54,.04,.21,.1,.38,.17,.53,0,.15,.03,.27,.11,.42,0,.13-.07,.19-.2,.19-.08,0-.19-.03-.34-.08-.35,0-1.06-.01-2.13-.05-1.07-.04-3.11-.09-6.1-.16-.78-.08-1.5-.11-2.18-.11h-1.77c-.64-.06-1.21-.11-1.71-.11,0-.07,.08-.25,.23-.54Zm9.81,7.49h-4.96c-1.54,0-2.51,.03-2.95,.1h-1.32c-.18,0-.28-.07-.28-.21,0-.15,.33-.21,.97-.21,.78,0,1.48-.03,2.09-.11,.6-.07,.94-.18,1-.33,.08-.06,.23-.09,.44-.09,.1,.06,.19,.11,.29,.11,.08,0,.16-.05,.24-.11,.15-.15,.54-.22,1.17-.22,.71-.14,1.15-.25,1.29-.32,.21-.08,.6-.13,1.17-.16,.29-.02,.58-.03,.9-.03s.63,0,.97,.03c.68,.03,1.33,.08,1.98,.16,.64,.07,1.1,.18,1.39,.32,.42,.22,.86,.31,1.28,.31,.06,0,.13,0,.19,0,.23,0,.34,.11,.34,.34,.15,.29-1.92,.43-6.2,.43Zm13.5,.76s-.12-.01-.2-.06c-.24-.18-.44-.55-.58-1.13-.08-.21-.18-.55-.32-1.01-.15-.47-.3-.92-.42-1.34-.15-.57-.3-1.12-.44-1.65-.15-.53-.24-1.02-.32-1.46-.13-.77-.25-1.44-.31-1.97-.08-.53-.18-.87-.33-1-.14-.15-.21-.46-.21-.92s.07-.76,.21-.91c.15-.13,.21-.36,.21-.63,0-.29,.07-.5,.21-.65,.15-.06,.18-.21,.12-.42-.08-.14-.13-.39-.16-.76-.04-.35-.07-.71-.12-1.07-.03-.35-.05-.66-.05-.95s.04-.42,.12-.42c.13,0,.21,.1,.21,.31s.06,.76,.21,1.6c.14,1,.29,1.92,.42,2.78,.14,.86,.35,1.78,.65,2.78,.5,2.35,.82,4.3,.97,5.87,0,.78,.06,1.4,.21,1.82,0,.14,0,.29,.05,.43,.03,.15,.04,.25,.04,.31,0,.31-.06,.45-.17,.45Zm.82,3.61c-.14,0-.21-.13-.21-.42-.08-.15-.11-.29-.11-.42,0-.15-.03-.29-.1-.44,0-.21,.03-.32,.1-.32l.11,.11c0,.07,.02,.13,.05,.16,.03,.04,.05,.13,.05,.26,0,.36,.08,.62,.22,.76,0,.21-.04,.31-.11,.31Zm2.48,8.15c-.18,0-.44-.11-.76-.35-.36-.34-.65-1.2-.86-2.56-.15-.42-.21-.86-.21-1.28-.08-.43-.05-.64,.1-.64,.14,0,.21,.08,.21,.21,0,.14,.08,.5,.22,1.06,.13,.51,.26,.75,.34,.75,.13,0,.2-.54,.2-1.59,0-.64,.01-.97,.08-.97h.01c.08,.08,.16,.33,.28,.75,.09,.43,.21,.94,.32,1.5,.1,.57,.2,1.1,.26,1.6s.11,.86,.11,1.07c0,.31-.11,.45-.3,.45Z"/><path class="cls-2" d="M49.44,99.31c-.21,0-.21,.11,0,.32,.11,.11,.19,.17,.24,.17,.01,0,.02,0,.03-.01,.04-.04,.02-.12-.05-.27,0-.14-.07-.21-.21-.21Z"/><path class="cls-2" d="M70.34,120.14s-.07,.04-.12,.11c-.11,.14-.16,.32-.16,.53,0,.07,0,.11,.03,.11s.04-.04,.08-.11c.14-.14,.21-.32,.21-.53,0-.07-.01-.11-.04-.11Z"/><path class="cls-2" d="M103.92,130.4c-.08-.07-.13-.2-.16-.38-.03-.17-.1-.34-.16-.48,0-.34-.15-.75-.44-1.17-.13-.14-.21-.24-.21-.32-.06-.06-.1-.15-.1-.21,0-.15-.11-.34-.32-.58-.21-.26-.39-.39-.53-.39-.29,0-.29-.13,0-.42,.11-.11,.24-.16,.37-.16h.1s.06,.01,.09,.03c-.03-.08-.06-.18-.09-.26-.05-.1-.09-.19-.12-.27-.08-.2-.13-.38-.18-.54-.03-.08-.04-.16-.06-.24-.23-.29-.39-.66-.47-1.09-.11-.01-.24-.04-.39-.04-.14,.04-.27,.06-.37,.06-.11,0-.19-.02-.27-.06-.15-.13-.36-.21-.65-.21-.42,0-.63-.07-.63-.21,0-.09-.16-.13-.49-.17-.32-.03-.68-.06-1.07-.11-.38-.03-.76-.05-1.11-.05h-.65c-.14,.08-.58,.15-1.34,.23-.75,.06-1.64,.1-2.65,.1h-3.32c-1.18,0-2.27-.04-3.27-.1-.99-.08-2.15-.11-3.46-.11h-4.32l-4.82,.11v-1.51c-.07-.35-.13-.84-.16-1.44-.03-.61-.08-1.08-.16-1.44-.07-1-.12-2.07-.17-3.2-.03-1.15-.01-2.51,.07-4.07,.06-1.28,.11-2.33,.16-3.14,.03-.83,.05-1.54,.05-2.14s-.02-1.15-.05-1.6c-.05-.47-.1-1.02-.16-1.67-.08-.63-.13-1.44-.16-2.39-.05-.97-.05-1.81-.05-2.51,.06-.71,.1-1.39,.1-2.04v-1.39c-.07-1.42-.1-2.41-.1-2.99s.03-1.28,.1-2.13c.08-1.22,.03-1.82-.1-1.82-.15,0-.23-.06-.23-.21,0-.14,.08-.29,.23-.43,.13-.28,.23-.8,.26-1.54,.03-.76,.05-1.31,.05-1.67,.08-.35,.13-.9,.16-1.65,.03-.76,.06-1.44,.06-2.08,.07-1.64,.12-3.14,.15-4.48,.05-1.36,.1-2.11,.16-2.25,.08-.15,.15-.67,.23-1.56,.06-.89,.13-1.97,.21-3.25,.06-.35,.11-.64,.16-.85,.03-.22,.05-.36,.05-.43,.14,0,.21-.14,.21-.43,0-.21,.21-.5,.64-.86,.15-.15,.07-.27-.21-.42-.29-.15-.43-.29-.43-.42-.07-.15-.28-.39-.63-.76-.38-.36-.62-.53-.76-.53-.28,0-.42-.07-.42-.22-.15-.12-.39-.21-.75-.21s-.71-.11-1.08-.32c-.16-.13-.28-.19-.36-.19-.05,0-.06,.03-.06,.09-.07,.13-.18,.21-.33,.21-.14,0-.27-.08-.42-.21-.03-.04-.14-.06-.34-.06-.21,0-.48,.02-.84,.06-.42,.07-.68,.1-.79,.1s-.19-.03-.28-.1c-.13-.37-.48-.68-1.06-.97-.25-.13-.46-.17-.59-.17-.17,0-.27,.09-.27,.29s-.15,.29-.47,.29c-.16,0-.36-.03-.6-.08-.37-.1-.66-.15-.84-.15-.1,0-.18,.02-.23,.03-.13,.08-.17,.29-.09,.65,.06,.42-.15,.68-.65,.74-.42,.07-.71,.18-.84,.33,0,.06-.11,.21-.32,.42-.3,0-.36,.08-.23,.21,.14,.29,.23,.92,.23,1.88s-.04,2-.07,3.15c-.03,1.13-.1,2.28-.21,3.43-.1,1.13-.23,2.02-.37,2.65-.15,.8-.23,1.44-.28,1.99-.03,.52-.05,1.39-.05,2.61,0,.79-.01,1.53-.04,2.25-.04,.71-.1,1.24-.17,1.6-.06,.64-.11,1.4-.11,2.29s.05,1.67,.11,2.3c.07,.21,.12,.66,.12,1.33s-.05,1.37-.12,2.08c-.06,2.5,.04,4.95,.33,7.38,.06,.36,.11,1.2,.16,2.51,.03,1.32,.05,3.04,.05,5.17v4.02c0,.95,.01,1.68,.05,2.13,.05,.47,.09,.76,.16,.91,.08,.14,.18,.22,.32,.22,.15,0,.23,.36,.26,1.07,.05,.7-.02,1.13-.14,1.28-.09,.06-.12,1.25-.12,3.53,0,1.34,0,2.24-.05,2.71-.05,.46-.09,.73-.16,.81-.14,.13-.22,.41-.27,.8-.04,.38,.01,.66,.16,.8,.08,.07,.08,.25,0,.54-.21,.27-.31,.53-.31,.74s-.05,.36-.11,.42c-.15,.15-.08,.41,.21,.75,.21,.29,.32,.64,.32,1.06,0,.3,.07,.65,.21,1.07,.07,.15,.13,.37,.16,.7,.04,.32,.05,.66,.05,1.02,.07,.35,.13,.66,.16,.9,.04,.26,.08,.39,.17,.39,.14,0,.21,.13,.21,.42s.03,.42,.11,.42c.06,0,.1,.15,.1,.44,0,.27,.11,.45,.32,.53,.23,0,.32,.1,.32,.33,0,.13,.07,.21,.21,.21,.08,0,.15-.04,.21-.12,0-.14,.07-.21,.17-.21,.11,0,.16,.07,.16,.21,.06,.08,.11,.15,.11,.21,0,.08,.03,.15,.11,.23,0,.1,.04,.15,.13,.15,.08,0,.21-.05,.39-.15,.15-.08,.31-.15,.49-.23,.17-.06,.34-.09,.48-.09,.42-.15,.71-.29,.86-.44,.06-.06,.81-.21,2.23-.42,.58,0,1.23-.03,1.98-.11,.76-.07,1.37-.13,1.87-.21,3.27-.3,6.18-.47,8.71-.54,.85-.01,1.68-.03,2.49-.03,1.6,0,3.15,.05,4.61,.15,1.44,.12,3.02,.21,4.75,.21s3.55-.04,5.41-.12c1.27,0,2.05,.08,2.34,.23,.2,.08,.39,.11,.55,.11,.39,0,.7-.21,.96-.66,.19-.21,.42-.31,.63-.31,.29,0,.63-.18,1.02-.53,.38-.36,.58-.71,.58-1.07,.14,0,.14-.15,0-.44,0-.29,.03-.5,.11-.63,.07-.08,.07-.22,0-.43ZM63.29,63.28s-.04,.03-.07,.03l-.21-.21c0-.08,0-.14,.02-.19v-.05c.01-.05,.05-.08,.08-.08,.08,0,.13,.03,.16,.08,.03,.05,.06,.13,.06,.24,0,.1-.03,.15-.04,.18Zm7.19,37.42c.15-.36,.21-.55,.21-.59,.05,.04,.07,.08,.12,.16,0,.02,.03,.04,.05,.04,.03,0,.04-.05,.04-.15,0-.13,.09-.21,.21-.21l.23,.44c0,.21-.05,.31-.11,.31-.15,0-.29,.11-.42,.32-.05,.19-.12,.29-.18,.29-.03,0-.07-.03-.1-.08-.09-.13-.13-.31-.05-.53Zm.42,5.03c.05-.05,.09-.07,.12-.07,.14,0,.21,.42,.21,1.23,0,.58-.02,.96-.05,1.13-.02,.08-.03,.12-.07,.12-.03,0-.06-.05-.09-.18-.5-.92-.54-1.67-.12-2.23Zm-.21-1.72c.15-.27,.21-.68,.21-1.18,.09-.39,.15-.58,.18-.58s.03,.13,.03,.37c.15,.29,.15,.68,0,1.18,0,.42-.06,.65-.21,.65-.14,0-.21-.15-.21-.44Zm-1.6-2.25l.12,.23c0,.06-.05,.1-.12,.1-.14,0-.21-.04-.21-.1,0-.15,.07-.23,.21-.23Zm-.64,8.56c-.09,.44-.18,.66-.31,.66-.07,0-.15-.08-.23-.24-.06-.14-.06-.34,0-.58,.08-.26,.18-.37,.33-.37,.14,0,.21,.17,.21,.53Zm-.42-1.39s-.05,.02-.09,.02c-.09,0-.16-.12-.19-.34-.03-.28,.03-.47,.16-.54,.1-.1,.18-.14,.24-.14,.13,0,.2,.19,.2,.56-.15,.29-.26,.44-.32,.44Zm.21-1.6c-.05,.11-.13,.16-.25,.16h-.08c-.13-.03-.18-.13-.1-.28,0-.14,.04-.24,.1-.32v-.1c0-.08,.08-.11,.23-.11,.21,0,.24,.21,.1,.65Zm-.33-3c.15,0,.23,.22,.23,.65,0,.28-.08,.49-.23,.63-.13,0-.21-.21-.21-.63s.08-.65,.21-.65Zm3.53,18.48c-.07,.44-.18,.65-.33,.65-.27,.04-.48,.06-.63,.06-.08,0-.13,0-.16-.02-.11-.03-.16-.16-.16-.37,0-.16-.02-.24-.06-.24-.02,0-.02,.02-.05,.03-.07,0-.1,.12-.1,.33s-.11,.32-.32,.32h-.38c-.17,0-.37,.03-.58,.1-.39,.04-.66,.08-.84,.08-.08,0-.14-.02-.18-.04-.11-.03-.09-.14,.05-.37,.15-.35,.18-.56,.11-.63,0-.08,.02-.26,.05-.53,.04-.29,.1-.6,.17-.91,.06-.32,.14-.61,.21-.86,.08-.25,.14-.37,.21-.37,0-.08,.09-.16,.27-.27,.18-.1,.34-.23,.49-.37,.48-.43,.74-.83,.74-1.19,0-.48,.02-.97,.05-1.44,.03-.45,.13-.69,.27-.69v.23c.07,.06,.07,.21,0,.42,0,.16,.02,.24,.07,.24,.03,0,.08-.05,.14-.13,.15-.29,.21-.52,.21-.7,0-.17,.04-.55,.12-1.13,0-.21,.03-.35,.09-.42v-.11c.15,0,.18,.61,.12,1.83,0,1.19,.03,1.9,.09,2.13,.15,.36,.26,.79,.33,1.33,.08,.53,.11,1.07,.11,1.6s-.03,1.02-.11,1.44Zm23.94,11.11c-.29,.12-.58,.18-.86,.18-.08,0-.14-.02-.22-.02-.36-.03-.49-.13-.42-.25,0-.15,.32-.23,.95-.23,.44,0,.71,.03,.86,.11,.14,.07,.03,.15-.31,.21Z"/><path class="cls-2" d="M145.58,126.66c-.07,0-.12-.11-.12-.32,.15-.22,.05-.43-.3-.64-.09-.14-.15-.27-.23-.37-.07-.11-.1-.21-.1-.27,0-.15-.01-.25-.05-.33-.05-.06-.06-.17-.06-.32-.07-.06-.11-.23-.16-.47-.04-.26-.08-.55-.16-.9-.13-1.01-.26-1.77-.38-2.3-.09-.54-.22-1.1-.37-1.67-.14-.42-.23-.89-.26-1.39-.05-.48-.09-1.16-.16-2.02-.08-.57-.13-1.26-.16-2.09-.03-.81-.1-1.47-.16-1.97-.15-.5-.23-1.1-.28-1.81-.03-.72-.08-1.33-.14-1.83,0-.49-.05-1.04-.12-1.65-.06-.6-.14-1.09-.21-1.44-.14-.42-.21-.96-.21-1.6v-5.55c0-.58-.08-1.12-.22-1.62-.15-.35-.23-.76-.26-1.23-.04-.45-.02-1,.05-1.65v-6.73c0-3.14,.06-4.92,.21-5.34,.14-.5,.29-1.21,.43-2.13,.15-.79,.26-1.57,.37-2.35,.1-.79,.23-1.57,.38-2.36,0-.57,.11-.86,.32-.86,.15,0,.24-.27,.32-.84,.13-.94,.26-1.83,.38-2.67,.09-.85,.22-1.39,.37-1.6,.27-.71,.27-1.08,0-1.08-.15,0-.26-.1-.33-.31-.06-.23-.03-.47,.12-.76,0-.13-.18-.37-.54-.68-.35-.32-.68-.48-.97-.48-.14,0-.27-.13-.42-.38-.14-.26-.21-.45-.21-.59,0-.22-.18-.38-.53-.47-.23-.07-.47-.1-.76-.1-.2,0-.41,.02-.63,.03-.29,.1-.52,.15-.67,.15-.08,0-.14-.02-.19-.04-.15-.06-.39-.17-.74-.32-.59-.27-1.01-.42-1.3-.42-.21,0-.66-.15-1.37-.44-.59-.35-1.2-.56-1.88-.63-.11-.01-.21-.01-.29-.01-.41,0-.39,.14,.02,.43,.08,0,.12,.02,.16,.05,.05,.05,.01,.07-.05,.07-.36,.27-.68,.45-.96,.53-.43,.21-.71,1.04-.85,2.46-.08,.48-.13,.87-.16,1.12-.04,.24-.17,.48-.38,.69-.29,.57-.56,1.42-.85,2.56-.15,.58-.25,1.05-.33,1.45-.06,.39-.14,.62-.21,.68-.14,.29-.21,.58-.21,.86-.08,.15-.13,.34-.16,.6-.03,.24-.13,.43-.28,.58-.42,1.21-.82,2.59-1.22,4.11-.39,1.54-.77,3.36-1.12,5.5-.36,2.07-.87,4.17-1.55,6.31-.68,2.13-1.48,4.12-2.4,5.98-.08,.07-.27,.62-.6,1.65-.3,1.04-.64,2.14-1,3.32-.36,1.16-.7,2.28-1.02,3.3-.32,1.04-.48,1.67-.48,1.88-.07,0-.2,.26-.38,.79-.17,.55-.37,1.2-.58,1.99-.5,1.63-.89,2.89-1.18,3.78-.27,.89-.57,1.62-.86,2.19-.14,.29-.26,.58-.37,.86-.1,.29-.19,.5-.26,.64-.14,.42-.32,.86-.53,1.28-.15,.21-.28,.49-.37,.81-.12,.31-.25,.58-.39,.79-.13,.36-.29,.67-.47,.91-.11,.16-.21,.24-.28,.24-.04,0-.08-.03-.09-.08,0-.21-.12-.63-.33-1.28-.35-1.21-.63-2.3-.81-3.25-.17-.97-.29-2.09-.37-3.36,0-.51-.01-1.04-.05-1.61-.03-.58-.09-1.03-.16-1.39-.06-.35-.13-.77-.16-1.23-.03-.47-.05-.87-.05-1.23-.08-.64-.11-1.97-.11-4.01s.02-4.17,.05-6.45c.05-2.28,.08-4.42,.11-6.42,.03-1.99,.1-3.27,.16-3.84,.07-.35,.13-.82,.16-1.39,.04-.57,.05-1.03,.05-1.39,.08-.42,.13-.94,.16-1.55,.04-.6,.05-1.15,.05-1.65,.08-.51,.13-.94,.16-1.35,.04-.38,.07-.64,.07-.79,0-.65,.03-1.46,.1-2.46,.08-1,.16-2.04,.27-3.1,.1-1.07,.2-2.04,.26-2.93,.08-.89,.15-1.52,.21-1.88,.23-.56,.32-1.07,.32-1.49,0-.29,.04-.43,.12-.43,.06-.07,.09-.21,.09-.42s.09-.39,.23-.54c0-.06,.03-.18,.1-.32v-.54c.08-.21,.13-.45,.16-.74,.03-.29,.1-.5,.16-.65,.15-.42,.23-.76,.28-1,.03-.26,.08-.78,.14-1.55,0-.36,.03-.75,.07-1.18,.03-.42,0-.75-.07-.96,0-.56,.08-1.03,.23-1.39,.13-.35,.21-.58,.21-.69,0-.12-.03-.31-.11-.59-.15-.43-.15-.71,0-.85,.29-.3,0-.57-.86-.86-.28-.07-.57-.33-.84-.75-.29-.5-.7-.84-1.23-1.01-.24-.09-.5-.12-.75-.12-.3,0-.59,.05-.92,.16-.37,.13-.74,.2-1.1,.2-.63,0-1.23-.21-1.78-.62-.37-.32-.66-.48-.87-.48-.08,0-.15,.01-.2,.06-.14,.13-.5,.21-1.06,.21s-.86,.04-.86,.1c-.07,.08-.18,.11-.32,.11-.07,0-.13-.03-.18-.03-.67,0-1.04,1.08-1.1,3.24,0,.64-.02,1.5-.05,2.57-.03,1.07-.1,2.05-.16,2.97,0,2.22,.03,3.35,.11,3.43,.07,.15,.1,.36,.1,.64s-.07,.76-.21,1.39c-.15,.5-.26,1.31-.33,2.41-.06,1.1-.14,2.15-.21,3.15-.14,1.07-.25,1.99-.32,2.77-.06,.79-.11,1.21-.11,1.29-.13,.57-.23,1.13-.26,1.7-.03,.57-.05,1.15-.05,1.71,0,.3-.08,.64-.23,1.07,0,.15-.01,.6-.05,1.39-.03,.78-.08,1.61-.16,2.46,0,.92,0,1.75-.05,2.46-.03,.71-.09,1.13-.16,1.28-.14,.21-.14,.45,0,.74,0,.21-.03,.36-.11,.42-.07,.08-.11,.57-.15,1.46s-.08,1.97-.11,3.25c-.03,1.28-.05,2.7-.05,4.27v4.55c0,1.45,.02,2.75,.05,3.9,.03,1.13,.05,1.95,.05,2.45,.08,.36,.13,.99,.16,1.93,.03,.92,.1,1.78,.16,2.56,.15,1.86,.28,3.15,.37,3.89,.1,.64,.2,.94,.31,.94,.02,0,.05,0,.07-.03,.05-.08,.08-.11,.09-.11,0,0,.02,0,.02,.06,0,.1,.03,.49,.1,1.12,.14,1.15,.4,2.18,.76,3.1,.13,.36,.24,.68,.32,.96,.07,.29,.1,.5,.1,.65,0,.35,.11,.53,.32,.53,.15,.14,.18,.27,.11,.42,0,.15,.07,.42,.21,.81,.15,.39,.33,.79,.54,1.23,.21,.42,.44,.81,.69,1.16,.25,.36,.47,.62,.7,.76,.13,.13,.26,.25,.37,.31,.1,.08,.23,.18,.37,.32,.15,.08,.26,.15,.38,.21,.11,.09,.19,.12,.26,.12,.14,0,.29,.06,.43,.21,.07,.14,.36,.34,.86,.58,.48,.26,.92,.45,1.28,.6,1.21,0,2.28-.07,3.2-.16,.92-.12,1.96-.46,3.11-1.02,1.13,0,2.05-.21,2.76-.63,.57-.44,.92-.65,1.07-.65,.21,0,.61-.34,1.18-1.02s.86-1.15,.86-1.44c0-.14,.18-.52,.53-1.12,.36-.61,.6-1.01,.75-1.22,.14-.15,.29-.38,.42-.7,.14-.32,.22-.58,.22-.81,.07-.06,.13-.23,.21-.47,.07-.26,.18-.55,.33-.92,.13-.36,.26-.68,.37-1,.1-.33,.19-.6,.26-.81,.14-.57,.26-.92,.32-1.07,.29-.57,.52-1.2,.7-1.86,.18-.68,.22-1.08,.16-1.23,0-.23,.06-.53,.21-.97,.06-.15,.11-.29,.11-.49v-.79c0-.21,.07-.42,.21-.65,.15-.56,.18-.88,.1-.95,0-.06,.05-.29,.11-.65,.07-.35,.16-.76,.28-1.23,.1-.45,.22-.93,.37-1.44,.13-.5,.24-.89,.32-1.16,.13-.29,.23-.58,.26-.86,.03-.29,.1-.5,.16-.64,0-.36,.07-.6,.21-.75,0-.06,.02-.16,.05-.27,.05-.1,.07-.23,.07-.38,.35-1.69,.6-2.62,.74-2.71t.03-.02c.12,0,.15,.7,.09,2.1v3.9c0,1.46,.03,2.91,.09,4.37,.08,1.47,.16,2.8,.28,4.01,.09,1.21,.22,2.22,.37,2.99,.06,.21,.14,.67,.21,1.35,.06,.66,.18,1.32,.32,1.97,.15,.71,.25,1.34,.33,1.93,.06,.56,.13,.92,.21,1.06,.06,.13,.16,.37,.26,.68,.11,.33,.19,.67,.27,1.02,.15,.36,.24,.68,.32,.97,.07,.28,.13,.45,.21,.54,.15,.27,.21,.59,.21,.95,.07,.29,.13,.5,.17,.65,.03,.14,.17,.24,.42,.32,.26,.07,.63,.1,1.13,.1h2.13c1.43-.07,2.37-.1,2.84-.1s.97-.08,1.55-.23c.63-.21,1.13-.3,1.49-.3,.14,0,.5-.15,1.06-.44,.3-.15,.51-.21,.65-.21,.07-.06,.13-.11,.21-.11,.21,0,.42-.18,.63-.54,.23-.35,.26-.6,.12-.74Zm-15.6-26.71c-.06,0-.14-.03-.21-.1,0-.14,.07-.22,.21-.22,.07,0,.12,.08,.12,.22l-.12,.1Zm1.18,16.36c-.08-.44-.13-.94-.16-1.51-.05-.56-.1-1.03-.16-1.39,0-.36-.03-1.02-.11-1.97-.07-.96-.13-1.98-.17-3.04-.03-1.07-.04-2.46-.04-4.18,.01-.03,.03-.05,.04-.05,.05,0,.08,.2,.12,.59,.03,.5,.08,1.68,.16,3.52,.06,1.86,.18,3.53,.32,5.03,.13,1.49,.28,2.67,.42,3.53,.07,.21,.12,.42,.12,.63v.53c-.04,.13-.08,.21-.12,.21-.03,0-.06-.09-.11-.25-.06-.33-.18-.88-.31-1.65Zm.75,3.46c-.04,.06-.07,.11-.08,.11-.05,0-.1-.1-.13-.27-.29-.64-.29-.96,0-.96,.13,0,.21,.15,.21,.42,.06,.29,.06,.52,0,.7Z"/><path class="cls-2" d="M167.69,88.21v.32c-.07,0-.11-.08-.11-.23,0-.06,.01-.11,.06-.16h.02s.03,.02,.03,.07Z"/><path class="cls-2" d="M169.5,93.33c-.03,.13-.08,.2-.13,.2-.01,0-.05-.03-.08-.1-.14-.21-.19-.42-.16-.63,.02-.13,.06-.19,.13-.19,.03,0,.08,.03,.14,.08,0,.08,.02,.16,.05,.27,.04,.1,.05,.23,.05,.37Z"/><path class="cls-2" d="M168.97,91.94v-.32c.14,.08,.14,.18,0,.32Z"/><path class="cls-2" d="M164.37,76.03c-.03,.06-.05,.08-.06,.08-.03,0-.03-.07-.03-.2,0-.06-.02-.19-.07-.37-.03-.18-.05-.34-.05-.47-.11-.32-.13-.48-.08-.48,.02,0,.05,.01,.08,.04,.15,.15,.25,.38,.33,.7,.06,.32,.03,.55-.12,.7Z"/><path class="cls-2" d="M164.58,77.51v-.42c.15,.15,.15,.29,0,.42Z"/><path class="cls-2" d="M188.41,102.2v.42s-.03,.03-.05,.03c-.03,0-.06-.08-.06-.24s.03-.24,.06-.24c.02,0,.04,0,.05,.03Z"/><path class="cls-2" d="M163.1,69.72c0,.27-.02,.4-.07,.4-.03,0-.08-.1-.14-.29,0-.15,.03-.24,.09-.32,.08,.08,.12,.14,.12,.21Z"/><path class="cls-2" d="M165.23,78.91c0,.14-.03,.21-.11,.21-.07,0-.1-.07-.1-.21,0-.07,.03-.13,.1-.22,.08,0,.11,.09,.11,.22Z"/><path class="cls-2" d="M167.16,85.42v.44s-.04,.02-.05,.02c-.04,0-.07-.08-.07-.25,0-.16,.03-.24,.07-.24,.01,0,.03,.02,.05,.03Z"/><path class="cls-2" d="M200.59,136.27v-1.01c0-.25-.03-.55-.11-.9-.07-.37-.13-.87-.16-1.55-.03-.68-.05-1.31-.05-1.88,0-1.63-.03-2.65-.11-3.04-.04-.18-.07-.26-.12-.26s-.11,.14-.19,.42c-.03,.15-.07,.21-.1,.21s-.08-.16-.13-.49c-.06-.53-.09-1.24-.09-2.13s.03-1.8,.09-2.72c.08-.92,.15-1.63,.23-2.13,.13-.36,.21-.83,.21-1.39v-8.38c0-1.12-.03-2.41-.11-3.9,0-1.57-.02-3.11-.05-4.6-.04-1.5-.02-2.54,.05-3.1,0-.57-.02-1.38-.05-2.4-.04-1.03-.05-1.94-.05-2.73-.08-.99-.13-1.91-.16-2.72-.05-.82,0-1.62,.16-2.41,.42-7.05,.63-12.57,.63-16.55,0-1,.02-1.84,.06-2.52,.04-.66,.09-1.08,.15-1.21,.23-.51,.32-.81,.32-.93,0-.09-.06-.26-.21-.47-.21-.29-.5-.5-.85-.64-.42-.15-.64-.28-.64-.42-.21-.55-.46-.81-.79-.81-.14,0-.32,.05-.5,.16-.18,.06-.34,.11-.47,.11-.14,0-.27-.05-.37-.11-.37-.15-.68-.32-.97-.53-.29-.21-.47-.39-.53-.54-.07-.06-.22-.11-.43-.11-.04,.03-.09,.05-.12,.05-.07,0-.1-.05-.1-.15,0-.14-.18-.21-.54-.21s-.53-.14-.53-.44c0-.16-.08-.24-.24-.24-.05,0-.12,.02-.18,.03-.29,0-.42-.03-.42-.11-.08-.06-.44-.18-1.07-.31-.58-.14-.94-.22-1.07-.22-.14,0-.19,.08-.11,.22,0,.07-.14,.1-.44,.1-.21,0-.38,.08-.53,.21h-.1c-.08,.08-.14,.11-.21,.11-.14,0-.29,.07-.43,.21,0,.15-.04,.26-.1,.33-.08,.06-.15,.18-.23,.32-.06,.15-.13,.26-.21,.37-.06,.12-.09,.23-.09,.38,0,.64-.23,1.1-.65,1.39-.29,.06-.39,.29-.33,.63,0,.29-.03,.66-.09,1.13-.08,.47-.18,.76-.33,.91-.14,0-.21,.17-.21,.53-.08,.15-.13,.31-.16,.49-.05,.17-.13,.34-.27,.46-.07,.23-.18,.52-.33,.93-.14,.38-.27,.79-.42,1.21-.14,.37-.27,.73-.37,1.08-.11,.36-.19,.57-.27,.63-.15,.3-.21,.54-.21,.75-.07,.14-.13,.34-.17,.6-.03,.24-.13,.47-.26,.69-.29,.57-.43,.99-.43,1.28-.07,.15-.15,.32-.21,.53-.07,.21-.18,.43-.33,.64-.06,.22-.14,.42-.21,.59-.06,.18-.11,.31-.11,.38,0,.06-.02,.14-.05,.21-.03,.08-.05,.14-.05,.21-.08,.08-.14,.29-.21,.64-.08,.36-.17,.75-.32,1.18s-.31,.91-.49,1.44c-.17,.54-.34,.98-.48,1.33-.13,.36-.26,.66-.37,.91-.1,.26-.2,.45-.26,.6,0,.14-.12,.21-.33,.21h-.21l-.11,.11c0,.13,.08,.21,.21,.21,.15,0,.23,.03,.23,.1,0,.14-.1,.47-.28,.97s-.34,.89-.48,1.16c-.07,.15-.15,.33-.21,.54-.07,.22-.15,.4-.21,.53-.07,.14-.15,.39-.21,.69-.08,.33-.18,.67-.33,1.02-.14,.36-.29,.8-.42,1.28-.14,.5-.29,.94-.43,1.3-.15,.35-.26,.69-.38,1-.11,.32-.16,.52-.16,.6-.21,.21-.32,.45-.32,.74-.07,.36-.23,.92-.47,1.72-.26,.77-.42,1.24-.49,1.37-.04,.05-.06,.07-.09,.07-.07,0-.1-.15-.07-.44,.03-.39,.13-.79,.26-1.23,.24-.66,.34-.99,.28-.99-.02,0-.04,.02-.05,.04-.15,.14-.44,.92-.86,2.34-.08,.21-.19,.63-.37,1.23-.18,.62-.37,1.23-.6,1.88-.21,.63-.39,1.23-.53,1.76-.13,.53-.25,.87-.31,1-.13,.47-.23,.71-.33,.71-.08,0-.14-.16-.21-.48,0-.23-.08-.47-.22-.76-.21-.21-.31-.45-.31-.74s-.05-.43-.11-.43l-.21-.64c0-.15-.05-.33-.12-.54-.06-.21-.14-.38-.21-.53-.14-.15-.22-.32-.27-.53-.03-.21-.08-.39-.15-.54-.14-.42-.26-.73-.32-.9-.03-.07-.05-.1-.07-.1-.03,0-.04,.13-.04,.36,0,.35,.03,.53,.11,.53,.13,.14,.21,.29,.21,.44-.15,.21-.03,.77,.32,1.69,0,.23-.05,.33-.11,.33-.21,0-.44-.46-.7-1.39-.24-.93-.34-1.78-.25-2.56,0-.86-.1-1.57-.28-2.13-.11-.39-.23-.57-.32-.57-.07,0-.12,.05-.16,.13-.09,.1-.18,.14-.25,.14-.11,0-.21-.08-.29-.24-.13-.29-.14-.53-.05-.74,.07-.13,.16-.2,.29-.2,.09,0,.18,.04,.3,.08,.04,.05,.08,.07,.09,.07t.02-.02s-.03-.08-.11-.16c0-.13-.04-.31-.1-.53-.08-.21-.15-.42-.21-.63-.15-.51-.28-.81-.37-.91-.04-.03-.05-.03-.07-.03-.05,0-.05,.16,0,.5,.21,.86,.21,1.33,0,1.39v-.1c-.06-.08-.1-.17-.1-.32-.08-.29-.22-.7-.43-1.23-.21-.53-.39-.91-.54-1.12-.21-.22-.32-.61-.32-1.18-.13-.64-.24-.97-.31-.97-.14-.13-.18-.3-.11-.53,0-.28-.07-.45-.21-.53-.15-.28-.18-.49-.11-.64,.06-.29-.04-.67-.33-1.18-.06-.14-.16-.37-.26-.69-.11-.33-.16-.55-.16-.7-.14-.13-.27-.63-.37-1.49-.11-.85-.1-1.45,.05-1.81,.06-.29,.06-.61,0-.97-.07-.35-.18-.6-.33-.74,0-.02-.01-.02-.01-.02-.05,0-.05,.26,.01,.76,.09,.57,.07,.88-.04,.91h-.02c-.11,.01-.23-.23-.36-.7-.14-.42-.21-.66-.21-.74-.14-.15-.08-.28,.21-.42,.15-.21,.18-.5,.12-.86-.15-.42-.23-.71-.23-.86,0-.14-.06-.21-.21-.21-.06,0-.11,.07-.11,.21,.22,.86,.18,1.28-.1,1.28-.03,.03-.06,.05-.08,.05-.1,0-.13-.2-.13-.58,0-.49-.08-.75-.23-.75-.13,0-.21-.09-.21-.32,0-.13-.03-.41-.09-.79-.08-.39-.18-.84-.33-1.35-.14-.56-.27-1.13-.37-1.69-.11-.59-.24-1.15-.37-1.72-.23-.57-.32-1.07-.32-1.5,0-.13-.04-.41-.12-.8-.06-.38-.18-.81-.32-1.23-.42-1.35-.71-2.24-.84-2.67-.15-.43-.15-.64,0-.64,.13-.07,.19-.23,.14-.47-.03-.26-.11-.42-.26-.49-.14-.06-.22-.16-.27-.27-.03-.1-.05-.33-.05-.7,0-.56-.03-.84-.1-.84-.14,0-.22-.22-.22-.65,0-.35-.04-.53-.1-.53-.08,0-.11-.21-.11-.65,0-.21-.04-.45-.1-.74-.08-.28-.15-.57-.23-.86-.14-.27-.22-.64-.26-1.11-.03-.47-.09-.91-.16-1.35-.14-.77-.22-1.24-.27-1.37-.04-.15-.12-.29-.26-.44-.21-.21-.32-.39-.32-.53,.14-.15-.04-.33-.54-.54-.42-.27-.65-.5-.65-.64,.09-.21-.03-.41-.3-.59-.29-.17-.65-.34-1.07-.48-.29,0-.44-.1-.44-.31s-.06-.34-.21-.34c-.08,0-.19,.03-.32,.12-.03,.11-.08,.16-.16,.16-.07,0-.17-.05-.26-.16-.15-.13-.47-.22-.97-.22-.57,0-.86-.03-.86-.09-.06,0-.31-.08-.74-.23-.15,0-.31-.03-.47-.1-.18-.08-.34-.14-.49-.21-.11-.08-.21-.11-.32-.11-.12,0-.21,.03-.33,.11-.14,.13-.42,.21-.85,.21s-.63-.08-.63-.21c0-.14-.26-.24-.75-.27-.11,0-.21-.02-.29-.02-.39,0-.71,.07-1,.18-.33,.1-.58,.15-.76,.15-.08,0-.15-.02-.2-.04-.21,0-.34,.04-.37,.1-.05,.08,.02,.15,.16,.21,0,.08,.02,.13,.05,.16,.03,.05,.05,.13,.05,.28,0,.06,.08,.32,.21,.74,.15,.29,.18,.54,.11,.75,0,.35,.04,.53,.12,.53,.21,.29,.3,1.57,.3,3.85,0,1.63,.09,2.52,.23,2.67,.13,.29,.18,.57,.1,.86-.07,.35-.12,.94-.16,1.76-.04,.83-.05,1.33-.05,1.55v.75c0,.42,.03,.92,.11,1.49v1.97c0,1.12,.02,2.25,.05,3.43,.03,1.16,.08,2.75,.16,4.75,0,.36,.02,.76,.05,1.23,.03,.46,.1,.88,.16,1.23,.07,.36,.11,.67,.11,.96v.53c0,2.85-.11,5.66-.32,8.45-.08,.77-.13,1.47-.16,2.07-.03,.61-.05,.95-.05,1.02,0,.14,.02,.69,.05,1.66,.03,.96,.05,2.07,.05,3.37,.08,.63,.11,1.26,.11,1.86v3.04c.07,.08,.1,.45,.1,1.13v2.51c.08,1,.11,1.83,.11,2.51s.03,1.05,.11,1.11c.13,.15,.13,.47,0,.97v.63c0,.29,.04,.5,.1,.65,.08,.15,.11,.5,.11,1.07s.04,1.15,.12,1.71c0,.63,.01,1.39,.05,2.23,.03,.86,.08,1.57,.16,2.14,.06,.58,.11,1.2,.16,1.88,.03,.68,.05,1.19,.05,1.55,.14,2.7,.37,4.53,.69,5.5,.28,.84,.72,1.24,1.28,1.24,.08,0,.18,0,.28-.01,.13-.03,.27-.03,.39-.03,.24,0,.42,.03,.56,.13,.36,.29,1.07,.43,2.14,.43,.71,0,1.39-.08,2.04-.21,.63-.14,1.06-.32,1.27-.53,.21-.29,.36-.45,.42-.49,.02,0,.04,0,.07,0,.08,0,.24,.06,.47,.17,.19,.09,.34,.12,.45,.12,.31,0,.41-.24,.29-.76-.06-.15,0-.21,.23-.21,.92,0,1.16-1.31,.74-3.95-.08-.36-.13-.84-.16-1.46-.03-.59-.05-1.18-.05-1.74-.08-.5-.13-.97-.16-1.39-.03-.44-.1-.72-.16-.86-.08-.29-.08-.5,0-.65,.06-.06,.11-.32,.11-.74-.08-.21-.13-.7-.16-1.44-.05-.75-.1-1.59-.16-2.51-.08-.94-.13-1.83-.16-2.67-.04-.86-.1-1.47-.17-1.83-.08-.63-.14-1.74-.21-3.3-.08-1.57-.11-3.15-.11-4.75s.02-3.01,.05-4.22c.05-1.22,.1-1.82,.16-1.82,.15,0,.28,.18,.37,.54,.12,.35,.2,.77,.28,1.28l.21,.74c.06,0,.16,.21,.27,.65,.1,.42,.17,.74,.17,.95,0,.15,.03,.26,.09,.32v.12c.21,.13,.36,.48,.44,1.07,.06,.21,.19,.58,.37,1.11,.18,.54,.34,1.05,.47,1.55,.15,.57,.31,1.14,.49,1.7,.17,.59,.34,1.04,.48,1.39,.21,.8,.34,1.23,.37,1.35,.04,.09,.08,.22,.17,.37,.14,.21,.25,.5,.37,.86,.11,.35,.16,.63,.16,.85,0,.36,.14,.78,.42,1.28,.29,.57,.5,1.22,.65,1.93,.14,.63,.27,1.23,.42,1.76,.14,.53,.29,.94,.43,1.23,.07,.13,.13,.36,.21,.63,.07,.29,.12,.5,.12,.65,.13,0,.21,.09,.21,.32-.08,.13-.05,.39,.09,.75,.09,.14,.12,.38,.12,.74,0,.14,.03,.29,.11,.42,.07,.15,.13,.29,.21,.44,.42,.85,.76,1.68,1,2.5,.26,.83,.31,1.23,.17,1.23-.15,0-.25,.07-.31,.21-.08,.15-.05,.26,.1,.33,0,.21-.04,.39-.1,.53-.15,.42-.11,.86,.1,1.28,.13,.26,.27,.39,.42,.39,.11,0,.21-.05,.32-.18,.11-.1,.19-.15,.24-.15,.07,0,.08,.05,.08,.15,0,.23,.15,.32,.44,.32,.21,.08,.39,.29,.53,.65,.07,.36,.36,.57,.85,.65,.43,0,.61,.03,.53,.09-.13,0-.21,.04-.21,.12,.08,.14,.19,.21,.37,.21s.28-.07,.28-.21c0-.21,.09-.42,.32-.6,.15-.11,.27-.18,.4-.18,.05,0,.08,0,.13,.03,.07,.07,.12,.1,.17,.1,.03,0,.04-.03,.04-.1,0-.05,.04-.06,.12-.06s.21,.01,.37,.06c.31,.07,.66,.18,1.07,.31,.38,.15,.76,.32,1.11,.53,.36,.23,.65,.44,.86,.65,.19,.16,.34,.24,.45,.24,.13,0,.18-.11,.18-.35,0-.13,.26-.31,.76-.54,.49-.21,.75-.38,.75-.53,0-.21,.17-.39,.53-.53,.36-.13,.58-.33,.69-.54,.1-.21,.17-.63,.17-1.28v-.9c0-.24,.03-.41,.09-.49l.23-1.06c0-.51,.13-1.1,.42-1.82,.29-.71,.49-1.34,.58-1.87,.12-.54,.25-1.18,.38-1.98,.08-.35,.12-.71,.16-1.06,.03-.36,.09-.6,.16-.75,.14-.29,.21-.53,.21-.74,0-.23,.08-.39,.23-.54,.12-.14,.21-.29,.21-.43,0-.21,.09-.46,.32-.75,.06-.14,.13-.3,.21-.48,.06-.18,.1-.34,.1-.47,0-.15,.08-.44,.22-.86,.28-.44,.42-.82,.42-1.18,0-.21,.04-.39,.12-.53,.06-.15,.13-.28,.21-.42,0-.15,.06-.29,.21-.44,0-.28,.24-.99,.74-2.14,.15-.56,.31-1.1,.49-1.6s.27-.85,.27-1.06c.07-.22,.13-.49,.21-.8,.07-.32,.18-.6,.33-.81,.13-.5,.27-1.08,.42-1.76,.14-.68,.21-1.2,.21-1.55,0-.28,.08-.49,.21-.63,.14,0,.22-.33,.22-.97,0-.21,.07-.52,.21-.91,.15-.39,.3-.76,.49-1.12,.16-.35,.32-.66,.47-.9,.14-.26,.26-.37,.32-.37,0,.06,.02,.27,.05,.63,.05,.35,.07,.79,.07,1.27,0,.59,.01,1.23,.04,1.99,.04,.75,.05,1.41,.05,1.98,.08,1.63,.12,2.67,.12,3.09s-.09,.76-.21,.97c-.15,.14-.23,.42-.23,.86,.14,.27,.14,.48,0,.63-.13,.08-.18,.27-.1,.58,.07,.32,.18,.57,.33,.69,.12,.15,.17,.26,.09,.33,0,.08-.01,.27-.05,.6-.03,.3,0,.64,.05,1v1.6c0,.08-.01,.24-.05,.49-.03,.26-.04,.51-.04,.81-.09,.71-.09,1.06,0,1.06,.12,0,.21-.08,.21-.22,0-.13,.03-.21,.09-.21,.08,0,.13,.14,.16,.43,.05,.28,.07,.62,.07,1.01s-.02,.76-.07,1.06c-.03,.33-.08,.52-.16,.6-.06,.21-.03,.33,.12,.33,.14,.06,.21,.17,.21,.3,0,.15-.07,.23-.21,.23-.07,0-.13,.08-.17,.26-.03,.18-.04,.53-.04,1.07s.01,1.29,.04,2.29c.04,1.01,.05,2.32,.05,3.95,0,2.99,.02,5.35,.07,7.05,.03,1.72,.06,3.01,.09,3.9,.05,.89,.09,1.52,.12,1.88,.03,.35,.08,.63,.16,.86,.14,.48,.18,.84,.1,1.06-.28,.36-.33,.72-.15,1.07,.16,.36,.5,.6,1,.75,.15,0,.29,.04,.44,.16,.13,.09,.28,.22,.42,.37,.29,.35,.55,.55,.81,.58,.02,0,.05,.02,.06,.02,.21,0,.31-.13,.31-.39,0-.31,.08-.47,.26-.47,.1,0,.23,.05,.37,.15,.15,.14,.41,.25,.76,.32,.36,.06,.63,.11,.84,.11,.1,.02,.2,.03,.28,.03,.44,0,.78-.29,1.02-.88,.11-.2,.24-.3,.39-.3,.11,0,.22,.05,.35,.18,0,.08,.15,.2,.42,.37,.29,.18,.5,.28,.65,.28v-.11c0-.15-.03-.28-.11-.42-.07-.3-.07-.49,0-.59,.03-.05,.06-.08,.11-.08,.06,0,.13,.05,.21,.13,.07,.11,.13,.16,.18,.16,.1,0,.14-.26,.14-.81-.11-.45-.09-.68,.07-.68,.05,0,.1,.02,.14,.05,.28,.18,.51,.28,.7,.28,.24,0,.4-.16,.49-.5,0-.36,.11-.62,.37-.8,.11-.08,.21-.13,.3-.13,.12,0,.2,.07,.28,.18,.08,.12,.15,.18,.19,.18s.07-.03,.08-.11c.04-.18,.02-.57-.06-1.13-.06-.36-.1-.64-.1-.86Zm-52.44-35.14c0,.63-.03,1.13-.07,1.49-.03,.36-.05,.58-.05,.65-.06,.03-.11,.05-.16,.05-.06,0-.11-.04-.16-.1-.06-.11-.03-.24,.11-.39,.13-.13,.21-.29,.21-.47s-.03-.6-.11-1.23c-.06-.35-.1-.73-.1-1.13s.04-.65,.1-.79c.08-.28,.15-.42,.2-.42,.03,0,.06,.08,.08,.26,.03,.38,.01,1.08-.05,2.08Zm.53-24.36c0,1-.05,1.5-.11,1.5-.15,0-.21-.29-.21-.85v-.86s0-.03-.02-.03c-.01,0-.08,.29-.19,.89-.07,.55-.15,.82-.24,.82-.02,0-.05-.03-.09-.08-.08-.14-.11-.76-.11-1.88v-3.57c0-1.28,.02-2.49,.05-3.62,.05-1.15,.1-1.75,.16-1.83,.03-.05,.05-.08,.07-.08,.03,0,.04,.16,.04,.51,0,.22,.02,.59,.05,1.12,.04,.53,.1,1.08,.17,1.67,.06,1.13,.11,1.81,.11,2.02s-.05,.61-.11,1.18v.79c0,.07,.03,.1,.08,.1,.03,0,.08-.02,.13-.03,.04-.03,.06-.03,.09-.03,.08,0,.13,.08,.13,.24v2.02Zm1.75,49.73s.03-.02,.03-.02c.02,0,.03,.03,.03,.07,.15,0,.21,.08,.21,.22,0,.07-.06,.1-.21,.1l-.11-.21c0-.07,.02-.13,.05-.16Zm.27,2.73c-.17,.21-.34,.32-.48,.32-.1,0-.18-.03-.26-.11-.15-.14-.21-.29-.21-.44,0-.13,.06-.24,.21-.3,.32-.1,.58-.15,.74-.15,.39,0,.39,.23,0,.68Zm12.4-31.95c.14,.08,.32,.49,.53,1.23,.21,.75,.32,1.26,.32,1.55,0,.33-.03,.49-.09,.49l-.02-.02c-.07-.03-.15-.19-.21-.47-.15-.43-.23-.69-.26-.8-.05-.1-.13-.17-.27-.17-.15,0-.21-.3-.21-.95,0-.57,.06-.86,.21-.86Zm-.43-1.07c0,.36-.08,.54-.22,.54v-.12c-.07-.06-.1-.21-.1-.42s.03-.35,.1-.42v-.11c.14,0,.22,.18,.22,.53Zm-.22-1.6c0,.5-.08,.76-.24,.76-.04,0-.05,0-.07,0-.08-.15-.11-.36-.11-.63,0-.3,.06-.47,.21-.54l.11,.1,.1,.11v.21Zm-.37-5.01c.11,0,.19,.18,.27,.53,0,.28-.08,.42-.21,.42-.14,0-.23-.14-.23-.42,0-.35,.07-.53,.17-.53Zm-.59,.42c0,.06-.03,.11-.11,.11l-.1-.11c0-.07,.07-.11,.21-.11,.07,0,.07,.04,0,.11Zm0-1.07c0,.26-.03,.39-.08,.39-.03,0-.08-.07-.13-.18-.08-.06-.11-.19-.11-.37s.03-.26,.11-.26c.15,0,.21,.13,.21,.42Zm-1.27-6.08c.14,0,.22-.02,.25-.07,.04-.03,.02-.22-.04-.58l-.12-.74,.23,.63c.13,.44,.24,.92,.31,1.45,.08,.54,.17,1.19,.32,1.98,.15,.77,.16,1.18,.05,1.23-.11,0-.23-.37-.37-1.14-.15-.48-.25-.74-.31-.74-.15-.06-.18-.21-.11-.42,0-.23-.07-.32-.21-.32-.21,0-.36-.18-.44-.54-.07-.5,.08-.74,.44-.74Zm-.86,11.42v-.42c.14,.14,.14,.27,0,.42Zm.32,2.34c-.14-.12-.19-.25-.16-.37,.03-.09,.11-.16,.26-.16,.14,0,.23,.11,.23,.32,0,.23-.05,.34-.13,.34-.05,0-.12-.04-.2-.13Zm.54,1.14c-.05,.06-.1,.09-.13,.09-.04,0-.07-.01-.08-.04-.15-.15-.21-.28-.17-.42,.04-.15,.08-.23,.17-.23,.13,0,.21,.08,.21,.23,.06,.14,.06,.25,0,.37Zm.16-6.31s-.05,.06-.08,.06c-.05,0-.12-.03-.2-.11-.06-.15-.13-.39-.16-.74-.03-.36-.02-.54,.07-.54,.13,0,.24,.28,.3,.84,.08,.23,.1,.39,.07,.49Zm.05-2.83s-.05-.07-.07-.07c-.03,0-.05,.1-.05,.28v.22l-.09,.1c-.07,.07-.13,.1-.17,.1s-.09-.05-.11-.15c-.03-.18,.02-.37,.16-.58,.13-.36,.25-.52,.36-.52,.14,0,.27,.28,.39,.83,.14,.29,.14,.58,0,.86l-.1,.21-.11-.54c-.07-.35-.15-.6-.21-.74Zm.42,9.93v-.1c-.07-.08-.1-.21-.1-.43,0-.36,.03-.54,.1-.54,.14,.15,.22,.36,.22,.65s-.08,.42-.22,.42Zm.39,1.7s-.04-.03-.07-.1c-.15-.21-.21-.39-.21-.53,0-.07,.02-.1,.05-.1s.1,.03,.16,.1c.08,0,.11,.14,.11,.43,0,.13-.01,.2-.04,.2Zm-.02-8.85c.02-.06,.05-.08,.08-.08,.05,0,.11,.06,.19,.18,.15,.14,.29,.22,.42,.22,.04-.03,.05-.03,.07-.03,.03,0,.08,.07,.1,.2,.03,.17,.06,.38,.06,.63s-.03,.5-.06,.74c-.04,.26-.08,.45-.17,.6-.11,.34-.19,.5-.24,.5s-.06-.13-.06-.4c0-.49-.04-.83-.07-1.01-.03-.18-.08-.45-.16-.81-.13-.35-.19-.59-.16-.74Zm2.96,17.02c-.07,0-.18-.13-.34-.36-.36-.71-.57-1.21-.63-1.49-.08-.29-.18-.53-.32-.76-.15-.56-.34-1.19-.6-1.91-.2-.59-.33-.9-.36-.9,0,0-.02,.01-.02,.05,0,.21-.04,.34-.16,.37h-.05c-.06,0-.09-.05-.09-.16v-.44c0-.21-.05-.48-.12-.84,0-.73,.05-1.1,.13-1.1,.05,0,.12,.11,.2,.34,0,.14,.14,.5,.42,1.07,.29,.72,.43,1.11,.43,1.18,0,.14,.04,.26,.1,.32,.36,.86,.63,1.55,.81,2.09,.18,.53,.34,1.03,.47,1.49,.15,.47,.23,.72,.23,.8,0,.17-.04,.25-.1,.25Zm24.23-22.36c.07-.08,.13-.11,.16-.11,.05,0,.04,.14-.04,.44,0,.06-.05,.12-.12,.21l-.11,.09c-.13,0-.2-.06-.15-.21,.04-.14,.12-.27,.26-.42Zm-1.71,4.37c.08,0,.11,.05,.11,.11,0,.15-.03,.21-.11,.21-.13,0-.21-.06-.21-.21l.21-.11Zm-.21,4.82c0,.06-.04,.1-.1,.1-.08,0-.11-.04-.11-.1,0-.08,.03-.11,.11-.11,.06,0,.1,.03,.1,.11Zm-.49-.36c.07-.19,.1-.4,.11-.63,.09-.01,.18-.03,.28-.03h.02c-.12,.19-.21,.44-.26,.73,0,0-.13,.14-.15,.14v-.21Zm-1.28-4.75s.12,.03,.17,.08c.14,.1,.24,.14,.3,.14,.13,0,.1-.19-.09-.56-.15-.15-.18-.34-.1-.58,.03-.17,.1-.25,.18-.25,.03,0,.08,.02,.14,.08,.13,.13,.2,.41,.15,.8-.03,.39-.12,.63-.26,.69-.15,.15-.21,.36-.21,.65v.31l-.11,.22c-.05,.1-.17,.15-.33,.15-.1,0-.19-.02-.32-.05-.13-.13-.18-.27-.1-.42,0-.15,.07-.36,.21-.65,.11-.4,.23-.61,.37-.61Zm-.26,2.54l-.11,.11c-.06,0-.11-.03-.11-.11,0-.15,.05-.21,.11-.21,.07,0,.11,.06,.11,.21Zm-.97-2.99c.3-1.07,.57-1.61,.86-1.61,.21,0,.21,.15,0,.44-.06,.07-.14,.23-.21,.47-.08,.26-.18,.52-.32,.81-.34,.68-.55,1.02-.63,1.02h-.02c-.06-.05,.05-.42,.32-1.13Zm-2.88,8.08s.07,.02,.12,.04c.06,.08,.09,.21,.09,.43-.04,.08-.08,.13-.09,.13v-.03c0-.07-.03-.15-.07-.21-.03-.07-.05-.15-.05-.21-.04-.1-.04-.15,0-.15Zm-1.92,7.95c-.15,.27-.24,.42-.32,.42-.02,.01-.04,.01-.05,.01-.1,0-.15-.18-.12-.55,.05-.42,.13-.81,.28-1.16,.06-.15,.18-.49,.32-1.02,.13-.53,.33-1.17,.54-1.88,.35-1.21,.6-2,.74-2.39,.08-.23,.16-.34,.24-.34,.07,0,.13,.05,.18,.18,.08,.14,.02,.58-.16,1.32-.18,.76-.37,1.38-.58,1.88-.28,.57-.42,1-.42,1.28-.08,.14-.13,.32-.17,.53-.03,.21-.09,.39-.16,.54-.14,.56-.26,.97-.32,1.18Zm1.39-1.07c-.14,.27-.21,.6-.21,.95,0,.44-.11,.92-.32,1.51-.15,.56-.26,.84-.33,.84-.14,0-.19-.13-.16-.42,.03-.29,.1-.47,.16-.54,.15-.14,.21-.47,.21-.95,0-.58,.08-.89,.23-.97,.13-.15,.21-.32,.21-.53l.21-.43c.21,0,.21,.18,0,.54Zm1.07-3.53c0,.15-.07,.5-.21,1.07-.08,.15-.13,.34-.16,.58-.04,.26-.1,.45-.17,.58-.16,.34-.29,.52-.35,.52-.05,0-.07-.08-.07-.24,0-.39,.13-.87,.42-1.44,.07-.15,.13-.36,.17-.65,.03-.27,.08-.5,.16-.63,.06-.35,.16-.63,.26-.81,.03-.06,.06-.08,.09-.08,.05,0,.07,.12,.07,.36,0,.35-.07,.6-.21,.74Zm.74-1.81c-.06,.13-.11,.21-.16,.21-.03,0-.05-.08-.05-.21,0-.15,.07-.23,.21-.23,.15,.15,.15,.23,0,.23Zm-.09-3.06c-.09,.18-.15,.37-.23,.6-.21,.57-.39,.86-.53,.86-.13,0-.22-.03-.22-.07,0-.03,.09-.22,.22-.58,.14-.44,.22-.74,.22-.97,0-.21,.05-.5,.16-.9,.1-.39,.26-.77,.47-1.12,.08-.21,.15-.42,.21-.65,.08-.21,.15-.39,.23-.53,.13-.13,.24-.31,.31-.54,.08,0,.08,.26,0,.76-.07,.49-.13,.81-.21,.96l-.21,.86c0,.42-.07,.71-.21,.85-.09,.15-.15,.29-.21,.47Zm2.76,.65c-.14,.68-.27,1.08-.42,1.23-.14,.36-.29,.74-.44,1.18-.13,.49-.27,.81-.42,.95-.14,.15-.21,.33-.21,.54s-.08,.47-.21,.74c-.08,.15-.13,.31-.16,.49-.05,.18-.1,.34-.16,.48-.08,.28-.18,.54-.32,.75-.08,.13-.15,.19-.18,.19s-.03-.03-.03-.1c0-.13,.11-.58,.37-1.32,.24-.75,.53-1.57,.86-2.46,.32-.89,.59-1.68,.85-2.41,.25-.7,.41-1.1,.47-1.17,.02-.01,.03-.01,.05-.01,.1,0,.08,.31-.05,.92Zm.44-1.97c-.08,.06-.11,.09-.15,.09,0-.01,.02-.05,.04-.09,0-.15,.01-.28,.04-.38,.05-.11,.07-.24,.07-.37,.06-.29,.16-.43,.26-.43,.11,0,.13,.17,.06,.53-.08,.14-.13,.27-.16,.37-.05,.11-.1,.2-.16,.28Zm.74,4.06c-.14,.27-.27,.43-.37,.47-.02,.01-.03,.01-.05,.01-.08,0-.11-.1-.11-.27,0-.29,.06-.52,.21-.7,.1-.13,.21-.19,.31-.19,.04,0,.08,.01,.13,.03,.06,.08,.03,.29-.12,.65Zm2.72-7.17c-.18,.94-.37,1.39-.58,1.39-.15,0-.21,.21-.21,.65l-.21,.86c-.15,.13-.23,.35-.23,.63s-.13,.47-.42,.53c-.21,.21-.32,.36-.32,.44,0,.14-.07,.42-.21,.84-.18,.48-.29,.73-.36,.73-.05,0-.06-.1-.06-.29,0-.3,.03-.47,.09-.54,.07,0,.12-.14,.12-.44,0-.48,.14-.74,.42-.74,.14,0,.21-.1,.21-.32,.08-.36,.11-.65,.11-.91,0-.24,.06-.58,.21-1,.15-.58,.29-.94,.44-1.07,0-.23,.05-.4,.16-.53,.1-.15,.23-.29,.37-.44,.21-.21,.28-.6,.21-1.18,0-.63,.05-.94,.13-.94,.05,0,.11,.1,.2,.31,.12,.42,.11,1.1-.07,2.02Zm.16-11.42c-.08,.08-.14,.11-.19,.11-.03,0-.05-.01-.07-.06-.05-.12,.02-.31,.17-.58,.04-.12,.11-.18,.16-.18,0,0,.03,0,.05,.01,.06,.04,.09,.13,.09,.26,0,.15-.06,.29-.21,.44Zm1.07,55.76c0-.14,.08-.21,.21-.21,.08,0,.11,.07,.11,.21,0,.21-.03,.32-.11,.32-.13,0-.21-.11-.21-.32Zm.44,4.59c-.15,0-.26-.19-.33-.59-.08-.39-.03-.65,.1-.8,.08-.08,.15-.11,.21-.11,.15,0,.23,.29,.23,.86,0,.43-.08,.64-.21,.64Zm4.15-42.09c0-.14,.04-.21,.12-.21,.14,.07,.19,.33,.16,.75-.05,.42-.16,.89-.37,1.39-.29,.56-.47,.89-.54,.95-.14,0-.16-.27-.06-.85,.11-.57,.24-.99,.37-1.28,.23-.36,.32-.6,.32-.75Zm.12-4.48s.03-.03,.05-.03c.03,0,.04,.08,.04,.24,0,.13,0,.2-.03,.2-.01,0-.03-.04-.06-.1-.21-.21-.21-.31,0-.31Zm-.12,11.96c0-.36,.04-.54,.12-.54,.27,.08,.32,.44,.09,1.07-.13,.29-.21,.68-.21,1.18,0,.57-.04,.88-.16,.91h-.01c-.1,0-.15-.26-.15-.81-.06-.49-.03-.81,.11-.96,.15-.14,.21-.42,.21-.85Zm.21-9.4c-.06-.28-.06-.5,0-.65,.05-.08,.09-.11,.13-.11s.07,.01,.1,.06c.07,.12,.1,.31,.1,.58,0,.38-.03,.54-.1,.54-.08,0-.14-.13-.23-.42Zm.23-1.18c0,.08-.05,.11-.11,.11l-.12-.11c-.06-.07-.06-.13,0-.21,.15,0,.23,.08,.23,.21Zm-2.25-8.5c0-.59,.07-.97,.21-1.11,.1-.1,.16-.15,.2-.15,.01,0,.01,.02,.01,.05,0,.07,.05,.31,.12,.75v1.39c0,.35-.04,.6-.12,.74-.01,.05-.05,.07-.08,.07-.06,0-.14-.1-.22-.28-.09-.36-.12-.84-.12-1.46Zm.36,2.8s-.03,0-.03,0c-.09-.04-.12-.16-.12-.38s.03-.32,.12-.32c.27,0,.35,.15,.21,.44-.07,.18-.13,.27-.18,.27Zm.55,6.09s-.03-.09-.08-.09c-.04,0-.1,.05-.18,.13-.07,.05-.1,.08-.13,.08-.06,0-.1-.08-.1-.24,0-.24,.08-.45,.23-.58,.13-.15,.27-.65,.42-1.5,.15-.72,.29-1.31,.42-1.82,.23-.35,.32-.64,.32-.85s.02-.42,.07-.65c.01-.15,.05-.23,.1-.23,.01,0,.03,0,.04,.02,.09,0,.12,.31,.12,.9,0,.62-.03,1.32-.12,2.09,0,.29-.09,.5-.3,.65-.36,.21-.44,1.28-.23,3.2,0,.78-.03,1.25-.1,1.39-.06,.08-.11,.13-.16,.13-.08,0-.14-.09-.21-.29-.11-.32-.13-.76-.06-1.34,0-.57-.02-.91-.05-1Zm.05,8.05c.22-1.13,.4-1.71,.53-1.71h.05c.11,0,.13,.3,.06,.92-.06,.66-.17,1.08-.32,1.23-.06,.08-.13,.13-.18,.13-.09,0-.14-.18-.14-.57Zm.69,22.86c-.03-.86-.08-1.85-.16-2.99-.06-1.14-.1-2.27-.1-3.42,0-.64-.01-1.26-.05-1.87-.04-.6-.09-1.01-.16-1.22-.14-.5-.14-.82,0-.97,.07-.14,.1-.37,.1-.69s.08-1.15,.21-2.51c.13-1.89,.31-2.83,.55-2.83,.03,0,.07,.01,.1,.05v.76c-.15,.42-.21,.68-.21,.79s.06,.16,.21,.16c.14,0,.21,.24,.21,.75v.74c.14,0,.21,.42,.21,1.23s-.07,1.52-.21,2.09c-.07,.64-.07,1,0,1.06,.14,0,.21,.15,.21,.44s-.07,.53-.21,.75c-.07,.27-.07,.5,0,.63,.08,.22,.08,.47,0,.76-.07,.14-.12,.64-.16,1.53-.04,.91-.05,1.94-.05,3.16s-.02,2.25-.05,3.1c-.05,.86-.1,1.28-.16,1.28-.04-.08-.07-.31-.12-.69-.06-.54-.13-1.23-.16-2.09Zm.7,6.31c0,.21-.03,.32-.1,.32-.14,0-.23-.08-.23-.23,0-.21,.09-.3,.23-.3,.02-.02,.03-.03,.05-.03,.03,0,.05,.08,.05,.24Zm-.41-.84s-.01,0-.01-.02c-.08-.06-.1-.21-.05-.42,.03-.23,.11-.36,.26-.44l.11,.12c-.13,.5-.23,.76-.31,.76Zm.46,2.81c-.07,0-.17-.06-.26-.16-.07-.15-.12-.36-.12-.63,0-.29,.09-.44,.23-.44,.21,0,.31,.24,.31,.75,0,.32-.05,.48-.16,.48Zm.59-5.92c-.14,.42-.21,.66-.21,.74,0,.22-.03,.31-.06,.31-.02,0-.03-.01-.05-.05-.06-.09-.14-.3-.21-.58,0-.35,.07-.6,.21-.74,.11-.16,.21-.25,.29-.25,.03,0,.07,0,.08,.04,.12,.06,.1,.24-.05,.53Zm2.98-44.31s.07,.04,.11,.08c.09,0,.12,.07,.12,.21,0,.15-.03,.21-.12,.21-.04,.05-.08,.09-.11,.09-.06,0-.1-.1-.1-.3s.04-.29,.1-.29Zm-.31,1.62c0-.31,.04-.5,.12-.58,.09-.18,.18-.28,.22-.28,.17,0,.2,.6,.08,1.78l-.21,1.49c-.06,0-.13-.14-.16-.42-.03-.29-.05-.61-.05-.97v-1.02Zm-.04,6.68c-.05-.35-.07-.74-.07-1.16s.05-.97,.11-1.62c.15,0,.23,.26,.26,.76,.05,.5,.07,1.1,.07,1.81s-.05,1.09-.15,1.09c-.05,0-.11-.07-.18-.23,0-.08,0-.29-.04-.65Zm.04,2.88c0-.63,.07-1.02,.21-1.16,.04-.04,.05-.04,.09-.04,.03,0,.08,.05,.12,.13,.09,.08,.12,.28,.12,.6s-.02,.62-.05,.91c-.05,.29-.08,.52-.11,.69-.04,.13-.07,.2-.1,.2-.02,0-.05-.02-.07-.03-.14-.23-.21-.65-.21-1.3Zm.3,2.17s.08,.03,.12,.08c.15,.15,.15,.32,0,.53,0,.15-.01,.21-.04,.21-.04,0-.05-.06-.05-.21-.12-.4-.12-.61-.03-.61Zm.03,2.12c0-.08,.06-.12,.21-.12,0,.07,.01,.12,.05,.12,.03,0,.06,.03,.06,.09-.23,0-.32-.03-.32-.09Zm.24-16.62s-.08-.04-.15-.16v-.32s.1-.03,.13-.03c.07,0,.1,.05,.1,.14,0,.25-.03,.37-.08,.37Z"/><path class="cls-2" d="M167.16,84.78l-.12,.11c-.14,0-.21-.03-.21-.11,0-.13,.07-.21,.21-.21,.08,.08,.12,.14,.12,.21Z"/><path class="cls-2" d="M162.77,68.76l-.32,.33v-.12l-.1-.21c0-.21,.1-.32,.32-.32,.13,0,.18,.11,.1,.32Z"/><path class="cls-2" d="M198.88,140.12v.32c-.07,0-.1-.08-.1-.21,0-.1,.02-.14,.03-.14,.02,0,.05,.01,.07,.03Z"/><path class="cls-2" d="M228.13,120.74c-.07,0-.2-.34-.41-1.02-.14-.36-.29-.76-.42-1.23-.15-.47-.29-.87-.44-1.23-.14-.36-.24-.71-.32-1.07-.06-.35-.1-.64-.1-.85,0-.23,.02-.34,.05-.34s.08,.14,.16,.45c.07,.21,.17,.47,.28,.79,.1,.32,.22,.6,.37,.81,.49,.92,.78,1.96,.84,3.09,.03,.4,.03,.6-.01,.6Z"/><path class="cls-2" d="M228.71,112.51s-.08,.05-.13,.15v.32c.04,.07,.07,.11,.11,.11s.07-.04,.11-.11c0-.32-.03-.48-.09-.48Z"/><path class="cls-2" d="M221.1,100.6c-.14,0-.29-.21-.43-.65-.15-.14-.24-.32-.33-.53-.06-.21-.12-.39-.21-.54-.14-.35-.3-.77-.46-1.27-.2-.51-.25-.78-.17-.86l.02-.02c.08,0,.24,.24,.45,.71,.26,.54,.37,.91,.37,1.12,0,.29,.12,.53,.33,.76,.35,.78,.5,1.2,.43,1.28Z"/><path class="cls-2" d="M245.66,68.34c-.13-.14-.23-.27-.26-.39-.03-.09,.02-.4,.16-.9,.15-.57,.18-1.12,.1-1.65-.06-.54-.18-.88-.31-1.02-.14-.15-.22-.28-.22-.42,0-.08-.07-.12-.21-.12-.07,0-.18-.06-.33-.21,0-.06-.01-.11-.05-.11-.03,0-.04,.05-.04,.11,0,.21-.04,.33-.12,.33l-.21,.32c-.06,.21-.16,.31-.27,.31-.1,0-.23-.1-.37-.31-.13-.22-.38-.32-.7-.32s-.55,.06-.68,.21c-.08,.14-.24,.22-.48,.27h-.13c-.15,0-.2-.05-.15-.16,.15-.14-.03-.22-.53-.22-.36,0-.54-.07-.54-.22,.05-.22,.02-.32-.06-.32-.07,0-.15,.03-.26,.11-.02,.07-.07,.09-.13,.09-.1,0-.23-.07-.4-.2-.28-.13-.54-.24-.75-.31-.06-.03-.13-.04-.18-.04-.09,0-.14,.04-.14,.14,0,.08-.03,.15-.1,.21-.21,0-.26-.13-.11-.42,0-.14-.1-.34-.33-.58-.13-.16-.25-.24-.35-.24-.07,0-.12,.03-.18,.08-.06,.06-.03,.17,.11,.32,.29,.13,.38,.26,.26,.37-.05,.07-.16,.1-.32,.1-.1,0-.23-.02-.36-.05-.43,0-.64,.03-.64,.11-.07,.13-.21,.21-.43,.21s-.4-.08-.53-.21c-.05-.04-.11-.08-.16-.08-.13,0-.28,.1-.44,.29-.24,.28-.37,.6-.37,.96,0,.23-.02,.34-.06,.34-.02,0-.04,0-.05-.02-.13-.14-.25-.21-.31-.21v1.28c-.08,.42-.11,.91-.11,1.44v5.29c0,1-.04,1.68-.12,2.04-.21,.63-.24,1.7-.09,3.2,0,.84,.01,1.93,.04,3.2,.04,1.28,.04,2.59,0,3.95-.03,1.36-.06,2.59-.09,3.69-.05,1.1-.1,1.94-.16,2.51,0,.56,.03,.85,.09,.85t.04,.02s.08-.18,.08-.55c0-.71,.17-1.13,.53-1.28,.06-.03,.13-.05,.18-.05,.11,0,.16,.05,.19,.15,.03,.14-.01,.26-.16,.32-.15,.07-.23,.33-.26,.75-.05,.43,.02,.71,.15,.85,.14,.08,.14,.18,0,.33,0,.06-.02,.14-.05,.21-.03,.08-.05,.18-.05,.32-.15,1.64-.21,2.65-.21,3.04,0,.34,.02,.5,.06,.5,.02,0,.04,0,.04-.01,.01-.02,.05-.03,.06-.03,.07,0,.15,.08,.26,.24,0,.14,.07,.29,.21,.42,0,.05-.02,.06-.08,.06-.05,0-.13-.01-.24-.06-.02-.02-.04-.02-.05-.02-.05,0-.1,.08-.16,.25-.07,.21-.12,.43-.16,.69-.04,.24-.05,.52-.05,.79,0,.29,.03,.47,.11,.54t.03,0s.07-.11,.07-.34c0-.35,.08-.53,.21-.53,.01,0,.03-.02,.03-.02,.05,0,.08,.2,.08,.55,0,.86-.11,1.3-.32,1.3-.15,0-.21,.06-.21,.21,0,.14-.07,.21-.21,.21,0,.06-.04,.14-.12,.21,0,.21-.03,.44-.09,.65-.05,.37-.13,.56-.23,.56-.05,0-.1-.05-.15-.14-.17-.28-.34-.96-.48-2.03-.08-.5-.31-1.06-.7-1.71-.32-.52-.56-.78-.71-.78-.03,0-.06,0-.1,.04s-.09,.08-.14,.08c-.18,0-.28-.49-.28-1.48,0-.56-.06-.92-.21-1.06v.11c-.08,0-.11,.06-.11,.21,0,.16-.02,.24-.05,.24-.08,0-.24-.37-.48-1.1-.15-.21-.29-.5-.42-.85-.15-.36-.3-.68-.44-.96-.28-.57-.42-1.1-.42-1.6,.06-1-.13-2.33-.58-4.01-.47-1.67-1.1-3.33-1.88-4.97-.29-.56-.57-1.21-.86-1.92-.27-.72-.5-1.39-.63-2.03-.08-.22-.14-.45-.23-.69-.06-.26-.14-.45-.21-.6,0-.13-.03-.27-.09-.42-.08-.15-.12-.24-.12-.32l-.42-1.07c-.14-.28-.26-.57-.32-.86-.08-.27-.18-.48-.32-.63-.15-.44-.21-.71-.21-.86v-.21l-.12-.11c-.06-.07-.17-.36-.32-.86,0-.21-.07-.39-.21-.53,0-.07-.03-.15-.11-.21-.13,0-.13,.14,0,.42,.14,.14,.14,.29,0,.44,0,.06,.04,.09,.11,.09v.33c.21,.58,.45,1.18,.69,1.82,.25,.63,.38,1.02,.38,1.17,0,.11-.04,.18-.1,.18-.02,0-.03,0-.06-.02-.1-.03-.2-.13-.26-.26,0-.23-.08-.4-.21-.53,0-.15-.05-.33-.12-.54-.08-.22-.18-.5-.32-.85-.18-.62-.31-.91-.37-.91-.07,0-.1,.29-.05,.91v1c0,.11-.08,.16-.23,.16-.13,0-.21-.24-.21-.74,.15-.93,0-1.54-.42-1.81-.08-.09-.11-.18-.11-.33,0-.21-.03-.48-.1-.79-.08-.32-.14-.57-.23-.7-.21-.22-.24-.58-.09-1.06,.06-.15,.06-.39,0-.7-.08-.32-.26-.92-.54-1.76-.35-1.07-.59-1.75-.69-2.04-.12-.28-.23-.45-.37-.54-.08-.21-.18-.59-.33-1.16-.08-.23-.16-.49-.27-.81-.1-.32-.23-.58-.37-.81-.28-.56-.43-.98-.43-1.28-.21-.85-.5-1.6-.85-2.23-.29-.58-.42-.89-.42-.97,0-.14-.18-.27-.54-.42-.35-.21-.58-.47-.64-.76-.15-.34-.26-.55-.38-.58-.11-.03-.55-.11-1.34-.26-.84-.23-1.37-.44-1.6-.65-.15-.21-.45-.39-.95-.53-.34-.1-.64-.15-.91-.15-.13,0-.26,.02-.37,.04-.44,0-.76-.07-.97-.22-.21-.14-.57-.22-1.07-.25-.5-.04-.89-.07-1.17-.07-.24-.08-.51-.13-.84-.13-.16,0-.32,0-.5,.03-.53,.07-.87,.21-1.02,.42,0,.3-.09,.44-.32,.44-.13,.07-.21,.16-.21,.26,0,.11,.08,.16,.21,.16,.14,0,.23,.03,.23,.12,0,.06-.09,.14-.23,.21-.13,0-.13,.06,0,.21,.14,.14,.29,.38,.44,.74,.14,.36,.17,.62,.09,.76-.06,.21-.06,.31,0,.31,.08,.08,.12,.34,.12,.81v1.86c0,1.06,.03,2.39,.11,3.96,.06,1.57,.13,2.67,.21,3.3v.7c0,.32-.03,.69-.11,1.13,0,.42-.02,1.1-.05,2.02-.03,.92-.1,1.81-.16,2.67-.07,.94-.13,2.01-.17,3.2-.03,1.22-.08,2.22-.16,3,0,.85-.01,2.03-.05,3.52-.03,1.51-.09,2.85-.16,4.06,0,1.28-.01,2.48-.05,3.58-.04,1.11-.06,1.84-.06,2.2-.07,.5-.1,.79-.1,.9,0,.1,.07,.16,.21,.16,.15,0,.21,.33,.21,.96,0,.57,.03,.89,.12,.97,.14,0,.21-.53,.21-1.6,0-.5,.01-1.05,.04-1.67,.05-.6,.07-1.08,.07-1.44,.06-.42,.1-.87,.1-1.32v-1.23c-.07-.8-.1-1.28-.1-1.46s.03-.44,.1-.79c.08-.15,.11-.34,.11-.58v-.81c.06-.28,.1-.54,.1-.75v-.43c.14-.13,.22-.36,.22-.63,0-.1,0-.15,.02-.15s.02,.02,.03,.03c.03,.08,.05,.21,.05,.44,0,.13,.02,.27,.06,.42,.04,.14,.05,.24,.05,.32,.15,0,.15,.63,0,1.93-.08,.56-.13,1.08-.16,1.53-.03,.47,0,.78,.05,.93,.15,.27,.15,.98,0,2.13-.06,.42-.1,1.04-.1,1.81v2.25c-.08,.71-.11,1.3-.11,1.77v.79c-.06,.08-.11,.81-.11,2.18v9.19c0,1.04-.02,1.78-.05,2.25-.03,.47-.07,.73-.1,.81-.03,.03-.05,.05-.08,.05-.02,0-.05-.02-.08-.05-.1-.07-.18-.1-.21-.1-.13,0-.05,.21,.21,.63,.06,.07,.11,.37,.16,.91,.03,.53,.08,1.1,.15,1.7,.08,.61,.11,1.16,.11,1.66v.86c-.06,.05-.13,.08-.18,.08-.06,0-.13-.05-.19-.15-.12-.17-.16-.4-.16-.69,0-.21-.02-.32-.05-.32-.02,0-.03,.03-.07,.11-.06,.21-.13,.53-.21,.97,0,1,.15,1.5,.42,1.5,.04,0,.08,0,.12-.01,.03-.02,.06-.02,.08-.02,.09,0,.13,.1,.13,.28,0,.26,.08,1.02,.22,2.29,.07,.38,.12,.68,.16,.97,.04,.3,.12,.51,.26,.65,.15,.36,.18,.71,.12,1.07-.15,.37-.26,.55-.36,.55-.11,0-.18-.39-.18-1.2,0-.29-.08-.5-.22-.65l-.21-.85c0-.49-.07-.75-.21-.75-.15,0-.21,.15-.21,.44,.06,.15,.03,.36-.12,.63-.06,.15-.09,.34-.09,.6,0,.24,.03,.7,.09,1.33,.08,.43,.13,1.02,.16,1.76,.04,.74,.05,1.41,.05,1.97,0,2.33,.23,3.5,.65,3.5,.1,0,.21-.07,.32-.18,.2-.1,.34-.15,.47-.15,.07,0,.13,.02,.18,.04,.21,0,.34-.13,.42-.42,.11-.18,.23-.28,.32-.28h.05c.12,.05,.16,.21,.16,.49,0,.48,.09,.72,.25,.72,.13,0,.29-.13,.5-.4,.21-.15,.4-.21,.58-.21s.21,.1,.07,.32c-.08,.13-.02,.23,.16,.26,.03,.02,.06,.02,.09,.02,.17,0,.31-.07,.49-.18,.15-.03,.26-.05,.37-.05,.12,0,.2,.02,.28,.05,.03,.03,.06,.05,.11,.05,.16,0,.36-.15,.63-.47,.41-.31,.68-.45,.79-.45,.04,0,.05,.01,.07,.01,.32,.13,.6,.2,.81,.2,.39,0,.58-.21,.58-.62,0-.35,.06-.53,.21-.53s.21-.18,.21-.54,.07-.56,.21-.64c.36-.13,.47-.36,.32-.63-.14-.3-.21-.64-.21-1.02s.07-.59,.21-.59c.21,0,.33,.13,.33,.42,0,.65,.24,1.04,.74,1.19,.24,.09,.41,.14,.52,.14,.06,0,.1-.01,.13-.05v-2.18c0-.53-.03-1.05-.07-1.55-.03-.51-.04-.78-.04-.86-.07,0-.13-.39-.17-1.17-.03-.79-.04-1.68-.04-2.67-.09-1.06-.12-1.98-.12-2.73s-.03-1.15-.09-1.23v-1.92c0-.57-.04-1.17-.07-1.82-.03-.63-.08-1.16-.16-1.6-.07-.64-.1-1.06-.1-1.27s.07-.39,.21-.54c.15-.14,.21-.55,.21-1.23s-.03-1.52-.09-2.51c-.15-1.29-.25-2.24-.28-2.89-.03-.63,.02-1.31,.16-2.02,.07-.42,.13-.94,.16-1.56,.04-.59,.02-1.18-.04-1.76-.09-1.7-.09-3.17,0-4.38,.06-1.2,.17-2.41,.3-3.63,.08-.35,.12-.74,.12-1.18v-1.16c0-.36-.02-.65-.05-.86-.03-.16-.05-.24-.05-.24-.02,0-.02,.01-.02,.03-.13,0-.21-.08-.21-.23,0-.06,.02-.11,.07-.14,0-.02,.01-.03,.01-.03,.02,0,.04,.03,.04,.08,.06,0,.09-.15,.09-.44s.08-.42,.23-.42c.13,0,.18-.07,.1-.21-.15-.29-.21-.68-.21-1.18s.06-.75,.21-.75c.14,0,.25,.12,.32,.33,0,.21,.11,.42,.32,.63,.15,.14,.28,.44,.42,.86,0,.43,.18,1,.54,1.71,.29,.71,.35,1.18,.22,1.39-.14,.15-.11,.21,.1,.21,.07,.07,.11,.24,.11,.54-.08,.35,0,.64,.21,.85,.07,.07,.12,.1,.17,.1,.09,0,.16-.18,.16-.53v-.6s.1,.06,.21,.18c.14,.29,.27,.5,.42,.64,.14,.13,.34,.59,.6,1.33,.24,.74,.37,1.23,.37,1.44,0,.14,.15,.5,.42,1.07,.29,.58,.47,1,.53,1.29,.09,.26,.04,.45-.06,.6,.03,0,.11,.13,.23,.36,.25,.5,.48,1.13,.69,1.92,.15,.5,.29,.92,.42,1.28,.15,.35,.23,.56,.23,.65,.13,.14,.19,.27,.16,.42-.05,.14-.13,.21-.27,.21-.15,0-.2,.29-.17,.85,.04,.57,.13,1.1,.28,1.6,.21,.3,.31,.54,.31,.75,.08,.08,.11,.14,.11,.23,.14,.27,.21,.48,.21,.63,.23,.35,.34,.69,.37,1.02,.05,.32-.01,.48-.14,.48-.15,0-.23-.08-.23-.23,0-.06-.15-.38-.42-.95-.15-.57-.29-.92-.44-1.07,0-.14-.06-.21-.21-.21-.14,0-.21,.08-.21,.26s.07,.34,.21,.49c.15,.14,.26,.34,.33,.58,.06,.26,.24,.81,.53,1.66,.06,.21,.14,.47,.21,.8,.08,.32,.18,.6,.32,.81,.29,.71,.44,1.13,.44,1.27,.06,.15,.11,.31,.15,.49,.04,.18,.12,.34,.27,.47,.15,.44,.21,.76,.21,.97-.06,.14,.03,.53,.32,1.18,.28,.57,.42,.95,.42,1.16,0,.3,.09,.44,.23,.44,.13,0,.2-.23,.15-.65-.04-.42-.15-.82-.38-1.18-.21-.42-.38-.9-.53-1.44-.14-.53-.27-1.05-.42-1.55-.21-.48-.39-1.02-.53-1.6-.15-.57-.21-.99-.21-1.28,0-.19,.01-.27,.06-.27,.03,0,.05,.01,.1,.06,.1,.15,.22,.39,.37,.75,.13,.56,.24,.88,.32,.97,.07,.06,.1,.24,.1,.53l.11,.21v.1c.15,.08,.25,.29,.33,.64,0,.15,.03,.31,.09,.49,.07,.18,.15,.34,.21,.47,.23,.22,.33,.44,.33,.65,0,.14,.13,.56,.37,1.27,.26,.72,.52,1.39,.81,2.04,.14,.57,.21,.89,.21,.96,0,.21,.06,.38,.21,.53,.21,.21,.39,.61,.53,1.18,.08,.15,.2,.42,.38,.86,.17,.42,.34,.89,.48,1.39,.15,.48,.29,.94,.42,1.33,.15,.38,.23,.66,.23,.8,.06,.13,.13,.3,.21,.47,.06,.18,.14,.34,.21,.49,.06,.14,.14,.31,.21,.48,.08,.18,.11,.34,.11,.47,.07,.15,.12,.28,.12,.39,0,.1,.03,.2,.09,.26,.12,.16,.05,.24-.16,.24-.06,0-.16-.01-.26-.03-.1-.02-.18-.03-.22-.03-.09,0-.09,.05,0,.14,.08,.07,.17,.47,.32,1.19,.08,.42,.13,.66,.16,.74l.02,.02s.05-.12,.05-.34c0-.36,.04-.54,.16-.54,.08,0,.21,.1,.37,.33,.03,.04,.08,.06,.11,.06,.07,0,.1-.1,.1-.27,0-.15,.03-.23,.1-.23v-.1c.14,0,.22,.07,.22,.21,0,.21,.07,.33,.21,.33,.21,0,.28,.27,.21,.85-.14,.36-.19,.55-.16,.59,.02,0,.02,.01,.03,.01,.05,0,.12-.06,.25-.18,.13-.14,.17-.48,.09-1.02-.06-.53-.17-.9-.32-1.11-.15-.15-.24-.37-.31-.7-.08-.32-.05-.48,.1-.48s.26,.09,.32,.27c.07,.18,.18,.55,.33,1.12,.06,.29,.16,.56,.26,.86,.11,.29,.19,.5,.27,.64,.07,.13,.15,.28,.21,.42,.07,.15,.11,.29,.11,.42,0,.36,.04,.54,.1,.54,.08,.08,.18,.27,.33,.6,.14,.32,.21,.51,.21,.58,0,.06-.02,.11-.05,.11-.04,0-.1-.05-.16-.11-.22,0-.36,.03-.43,.11-.03,.02-.06,.03-.11,.03-.1,0-.24-.04-.42-.14-.1-.1-.16-.15-.19-.15-.02,0-.04,.02-.04,.04,0,.08,.23,.67,.65,1.82,.31,.76,.5,1.14,.58,1.14,.05,0,.07-.05,.07-.18,0-.28,.05-.42,.16-.42,.1,0,.15,.18,.15,.53s.04,.52,.13,.52c.04,0,.11-.07,.19-.2,.05-.04,.1-.08,.14-.08,.12,0,.23,.1,.34,.29,.18,.28,.26,.6,.26,.96,0,.5,.12,.97,.33,1.39,.21,.86,.21,1.28,0,1.28-.15,0-.21-.18-.21-.54,.14-.35,.11-.63-.12-.85-.13-.36-.29-.55-.47-.59h-.04c-.13,0-.15,.17-.02,.49,.08,.15,.18,.5,.32,1.07,.15,.42,.21,.77,.21,1.07,.04,.17,.02,.27-.03,.27-.08,0-.29-.27-.6-.81-.16-.19-.26-.31-.3-.31-.12,0,0,.51,.4,1.49,.15,.36,.26,.67,.32,.96,.08,.27,.12,.47,.12,.53,0,.07,.06,.11,.21,.11l.11,.1v.21c0,.08,.03,.24,.1,.49,.08,.24,.17,.55,.32,.9,.21,.8,.24,1.25,.11,1.39-.14,.21-.04,.51,.31,.86,.26,.26,.5,.37,.71,.37,.1,0,.18,0,.26-.05,.07,0,.13-.01,.16-.06,.04-.03,.08-.05,.17-.05h.21c.06,.07,.21,.11,.42,.11s.32,.04,.32,.1c.08,.08,.16,.13,.21,.13s.08-.03,.11-.06c.07-.12,.07-.25,0-.38-.06-.14-.05-.22,.05-.22,.12,0,.2,.08,.28,.22,.05,.09,.11,.13,.21,.13,.05,0,.09,0,.16-.03,.18-.06,.26-.18,.26-.32,0-.08,.03-.13,.08-.13,.08,0,.19,.08,.35,.24,.17,.16,.26,.24,.3,.24,.01,0,.03,0,.03-.03,0-.14,.21-.21,.63-.21,.11,.02,.21,.03,.29,.03,.23,0,.36-.08,.36-.24,.03-.16,.14-.24,.32-.24,.15,0,.31,.03,.53,.13,.12,.06,.18,.08,.21,.08,.07,0,.02-.07-.11-.18-.06-.14-.05-.27,.06-.39,.04-.03,.09-.06,.15-.06,.07,0,.15,.05,.23,.13,.42,.27,.42,.42,0,.42-.15,0-.21,.06-.21,.21,0,.14-.12,.22-.33,.22-.14,0-.26,.04-.32,.1,0,.15,.15,.21,.42,.21,.23,0,.32-.06,.32-.21,0-.14,.07-.22,.21-.26,.04-.01,.07-.01,.09-.01,.11,0,.19,.05,.24,.17,.11,.12,.21,.17,.27,.17,.02,0,.04,0,.05-.02,.07-.03,.07-.15,0-.37,0-.28,.07-.5,.21-.63,.07-.08,.07-.23,0-.44-.14-.21-.16-.34-.05-.37h.04c.12,0,.34,.13,.66,.37,.35,.29,.56,.47,.63,.53,.08,.09,.05,.15-.1,.23-.14,.07-.14,.16,0,.31,.07,.05,.12,.06,.16,.06,.1,0,.13-.09,.1-.32-.03-.32-.19-.6-.47-.81-.22-.21-.32-.4-.32-.58,0-.13,.05-.2,.16-.2,.05,0,.1,.02,.16,.04,.21,0,.31-.04,.31-.12-.07-.06-.18-.09-.31-.09-.14,0-.22-.08-.22-.21,0-.3,.43-.44,1.29-.44,.21,0,.27-.15,.21-.42-.08-.29-.13-.65-.16-1.07-.03-.44-.05-.97-.05-1.6-.08-.65-.15-1.18-.23-1.6-.06-.44-.21-.97-.42-1.6-.06-.44-.16-1.02-.27-1.77-.1-.76-.21-1.55-.31-2.41-.11-.85-.18-1.68-.23-2.5-.03-.83-.04-1.48-.04-1.98-.07-.21-.04-.68,.11-1.39,.14-.44,.21-.74,.21-.97,0-.21-.03-.49-.11-.84-.13-.58-.21-1.21-.21-1.93v-1.81c0-.14,.01-.48,.04-1.02,.05-.53,.07-1.08,.07-1.66,.06-.57,.1-1.31,.1-2.24v-7.16c0-.92,.04-1.6,.11-2.02,.06-.21,.11-.65,.11-1.28s-.05-1.33-.11-2.04c-.07-.71-.11-1.33-.11-1.86v-3.9c0-1.92,.04-2.89,.11-2.89,.06-.07,.13-.26,.16-.59,.03-.32,.05-.69,.05-1.11s-.02-.84-.05-1.23c-.03-.41-.1-.63-.16-.7-.07-.21-.07-.35,0-.44,.06-.27,.11-.56,.11-.85,.07-.21,.1-.41,.1-.59v-.37l.21-.74c0-.86,.05-1.68,.11-2.46,.07-.78,.18-1.54,.33-2.25,.06-.42,.11-1.05,.16-1.86,.03-.82,.08-1.62,.16-2.41,.13-1.84,.24-3.02,.31-3.53,.08-.21,.14-.42,.22-.63,.07-.22,.1-.35,.1-.43,0-.21,.08-.33,.21-.33,.44,0,.44-.27,0-.84Zm-40.91,12.28c0,1-.06,1.49-.21,1.49-.06-.71-.11-1.28-.11-1.7s.03-.84,.06-1.23c.03-.39,.05-.63,.05-.7,.03-.03,.05-.03,.06-.03,.17,0,.21,.71,.15,2.17Zm-.32,37.06c-.04,.08-.07,.11-.1,.11s-.08-.03-.11-.11c-.1-.31-.1-.47,.04-.47,.05,0,.1,.02,.17,.05v.42Zm.22,12.83c-.22,0-.32-.11-.32-.32,.06-.22,.19-.33,.37-.33s.28,.11,.28,.33-.12,.32-.33,.32Zm.26-4.81c-.1,0-.16-.08-.16-.22,0-.13,.08-.21,.23-.21,.13,0,.21,.08,.21,.21-.08,.14-.16,.22-.28,.22Zm.63-24.28s-.08-.09-.14-.29c0-.21,.03-.35,.11-.43,.07,0,.1,.11,.1,.32,0,.27-.02,.4-.07,.4Zm1.57,2.38c0,.21-.08,.32-.22,.32-.21,0-.25-.17-.1-.53,.14-.14,.14-.36,0-.65,0-.21,.06-.38,.21-.53,.03-.03,.08-.06,.11-.06,.08,0,.13,.12,.15,.38,.05,.36-.02,.72-.15,1.07Zm-.11-1.89s-.03,0-.05-.03c-.11-.15-.16-.6-.16-1.4,0-.95-.08-1.42-.21-1.42-.07,0-.13,.08-.23,.26,0,.06-.03,.13-.1,.21-.14,0-.19-.23-.16-.7,.04-.46,.08-.8,.16-1.01,.21-.21,.21-.33,0-.33v-.09c0-.09,.04-.15,.1-.23,.15-.13,.24-.55,.28-1.21,.03-.68-.02-1.1-.17-1.23-.14-.15-.11-.26,.12-.33,.13,0,.24-.64,.31-1.92,.16-1.67,.27-2.51,.34-2.51,.01,0,.03,.1,.03,.26,.05,.71-.02,2.96-.15,6.73,0,1.92,.03,2.93,.1,2.99,.08,.15,.11,.5,.11,1.07-.13,.6-.22,.89-.32,.89Zm2.78-3.88c-.08,.71-.14,1.24-.23,1.6-.04,.26-.09,.39-.14,.39-.02,0-.05-.02-.07-.07-.06-.06-.09-.29-.09-.69s.03-.65,.09-.8c.15-.29,.15-.56,0-.85-.06-.44-.06-.68,0-.75,.12-.11,.21-.18,.28-.18,.21,0,.26,.46,.16,1.35Zm3.41-17.3c.15,0,.25,.04,.33,.1,.06,.08,.03,.15-.12,.21-.06,.08-.17,.41-.32,.97-.06,.57-.14,.86-.21,.86-.06,0-.1-.29-.1-.86s.04-.92,.1-1.07c.07-.14,.18-.21,.32-.21Zm-.32-25.43v.1c-.05,.05-.08,.08-.11,.08-.07,0-.1-.1-.1-.29,.07,0,.15,.05,.21,.11Zm0,30.01c.15,0,.18,.15,.11,.44-.06,.11-.11,.16-.17,.16h-.04c-.08-.03-.11-.13-.11-.28,0-.21,.07-.32,.21-.32Zm-1.49,43.73c-.09,0-.24-.05-.43-.13-.15-.15-.21-.33-.21-.54s.06-.32,.21-.32c.14,0,.29,.08,.43,.26,.13,.18,.21,.34,.21,.48,0,.17-.06,.25-.21,.25Zm.21-73.85c-.14-.21-.32-.39-.53-.53-.21-.15-.36-.25-.44-.33-.21-.13-.29-.24-.26-.3,.04-.09,.17-.12,.38-.12,.14,0,.46,.26,.97,.75,.48,.5,.74,.82,.74,.97,0,.06-.03,.09-.08,.09-.11,0-.37-.17-.78-.53Zm1.07,66.34c-.14,0-.21-.06-.21-.21s.07-.21,.21-.21l.11,.21c0,.07-.04,.15-.11,.21Zm.11-5.76c-.08,1.1-.17,1.65-.3,1.65h-.02c-.15-.03-.21-.63-.21-1.76,0-.57,.02-.92,.05-1.07,.03-.14,.11-.21,.26-.21,.14,0,.22,.05,.22,.16v1.23Zm-.43-5.24l.11-.11c.07,0,.15,.05,.21,.11,0,.15-.06,.21-.21,.21-.08,0-.11-.06-.11-.21Zm.43,2.25l-.11,.1c-.06,.08-.13,.11-.16,.11s-.05-.03-.05-.11c-.08-.07-.08-.15,0-.21,.03-.04,.08-.05,.13-.05s.11,.01,.19,.05v.11Zm.21-19.4c-.08,1.04-.11,1.7-.11,1.98v1.18c0,.71,.03,1.57,.11,2.55,.07,1.36,.08,2.3,.05,2.83-.03,.54-.09,.88-.16,1.02-.06,.29-.06,.51,0,.65,.07,.15,.11,.34,.11,.58s-.04,.7-.11,1.35c-.14,.48-.23,1.01-.26,1.6-.05,.56-.09,1.02-.16,1.37v.97c-.08,.15-.11,.29-.11,.42,0,.02-.02,.02-.02,.02-.27,0-.37-4.3-.31-12.94v-3.25c0-.47,.04-.91,.12-1.35,0-.21,.01-.56,.05-1.06,.03-.49,.06-.96,.06-1.39,.13-2.06,.28-3.09,.42-3.09,.15,.14,.18,.24,.11,.32-.08,.99-.08,1.75,0,2.23,.04,.33,.1,.49,.18,.49,.03,0,.08-.05,.13-.16,.03-.05,.07-.09,.08-.09,.03,0,.07,.07,.08,.2,.04,.21,.02,.63-.05,1.28-.06,.5-.14,1.26-.21,2.29Zm.33,5.08l-.12-.11c0-.07,.04-.15,.12-.21,.13,0,.21,.06,.21,.21,0,.08-.08,.11-.21,.11Zm.21-3.31c-.15,0-.21-.07-.21-.21l.21-.12c.06,0,.1,.04,.1,.12,0,.14-.04,.21-.1,.21Zm0-14.64c-.15,0-.21-.04-.21-.1,0-.15,.06-.21,.21-.21,.01-.03,.03-.05,.05-.05,.03,0,.05,.05,.05,.15,0,.14-.04,.21-.1,.21Zm16.5,19.97s.03-.03,.05-.03c.03,0,.06,.05,.11,.15,.15,0,.15,.06,0,.21,0,.06-.02,.11-.03,.11-.02,0-.03-.05-.08-.11-.07-.15-.08-.24-.05-.33Zm.16,14.97c.06,.21,.06,.34,0,.37h-.05c-.06,0-.16-.05-.27-.16-.15-.15-.26-.41-.38-.81-.11-.39-.13-.61-.04-.7,0,0,0-.01,.03-.01,.08,0,.19,.13,.34,.4,.18,.31,.31,.62,.37,.91Zm-.74-16.78l.21,.65c-.15,0-.31-.18-.49-.53-.18-.36-.26-.62-.26-.76,0-.17,.02-.26,.07-.26,.08,0,.22,.3,.47,.9Zm-5.78-22.32c.15,0,.21,.03,.21,.1,0,.14-.06,.22-.21,.22l-.1-.22c0-.07,.04-.1,.1-.1Zm-2.88-3.96c.07,0,.1,.04,.1,.11,0,.14-.03,.21-.1,.21-.08,0-.11-.07-.11-.21l.11-.11Zm-1.92-3.51c-.07,0-.12-.09-.12-.23,.08,0,.12,.08,.12,.23Zm0,.21c.14,0,.24,.21,.32,.63,.15,.43,.24,.64,.32,.64,.13,.07,.21,.21,.21,.42,0,.3,.17,.86,.49,1.72,.31,.86,.58,1.46,.79,1.81,.29,.44,.42,.89,.42,1.39,.08,.44,.08,.68,0,.75,0,.01-.01,.03-.03,.03-.06,0-.16-.16-.28-.45,0-.15-.04-.31-.11-.49-.06-.18-.14-.34-.21-.47-.21-.35-.32-.61-.32-.76,0-.21-.03-.35-.12-.42-.06-.06-.17-.39-.3-.97-.23-.36-.41-.7-.54-1.07-.14-.27-.22-.48-.22-.63,0-.29-.04-.5-.1-.65-.15-.27-.28-.59-.37-.95-.12-.36-.1-.53,.05-.53Zm-1.18-4.5l-.1,.11c-.08,0-.11-.06-.11-.21,0-.03,.01-.05,.03-.05,0,0,.05,.02,.08,.05,.06,0,.1,.03,.1,.1Zm-1.61-3.41s.07-.07,.1-.07c.07,0,.16,.1,.28,.28,.17,.29,.3,.61,.38,.97,.07,.21,.13,.4,.21,.58,.07,.18,.15,.34,.21,.48,.28,.21,.36,.39,.22,.54-.02,.03-.05,.05-.07,.05-.1,0-.26-.17-.47-.49-.71-1.42-1-2.2-.86-2.34Zm1.4,5.87c0,.14-.07,.21-.22,.21-.06,0-.11-.1-.11-.31,0-.23,.05-.32,.11-.32,.15,.14,.22,.29,.22,.42Zm5.87,35.63s-.13-.04-.21-.16c0-.22,.03-.35,.11-.43,.05-.05,.08-.07,.11-.07,.07,0,.1,.1,.1,.28,0,.26-.03,.38-.11,.38Zm1.45,4.57c-.06,0-.14-.1-.22-.29-.1-.26-.17-.46-.17-.6,0-.23,.04-.34,.09-.34,0,0,.01,.01,.03,.03,.06,.06,.14,.24,.21,.53,.08,.21,.11,.42,.11,.63-.01,.02-.03,.04-.05,.04Zm.62-10.94s-.08-.03-.15-.1c-.21-.21-.39-.59-.53-1.18-.28-.77-.54-1.34-.75-1.7-.14-.35-.25-.79-.32-1.27-.06-.5-.1-.97-.1-1.39-.08-.15-.19-.42-.32-.81-.15-.39-.29-.78-.44-1.18-.14-.39-.26-.75-.37-1.07-.1-.31-.16-.5-.16-.58,0-.15-.07-.21-.21-.21-.07,0-.16-.15-.26-.42-.11-.3-.16-.54-.16-.77,0-.21-.11-.42-.32-.63-.3-.29-.44-.64-.44-1.06-.07-.44-.23-1.04-.47-1.83-.26-.78-.45-1.2-.6-1.28-.06-.06-.18-.36-.31-.86,0-.13-.08-.39-.22-.74-.15-.36-.28-.71-.42-1.07-.29-.57-.47-1-.54-1.28-.08-.29-.03-.5,.12-.64,.13-.15,.16-.26,.09-.38-.03-.04-.06-.06-.11-.06s-.13,.03-.21,.11c-.08,.07-.16,.08-.23,.08-.21,0-.3-.24-.3-.71,0-.29-.04-.47-.1-.53-.08-.08-.11-.18-.11-.33-.07-.14-.1-.27-.1-.37,0-.11-.05-.22-.12-.37-.14-.29-.22-.57-.27-.86-.03-.29-.11-.5-.26-.64-.14-.28-.21-.51-.21-.64,0-.22-.05-.35-.11-.43-.15-.15-.25-.33-.33-.54-.06-.21-.17-.8-.32-1.81-.16-.9-.18-1.37-.03-1.37,.05,0,.1,.03,.14,.09,.51,.36,.68,.75,.54,1.17-.07,.14-.1,.31-.05,.48,.03,.18,.19,.67,.48,1.44,0,.13,.02,.2,.07,.2,.03,0,.08-.03,.14-.08,.12-.12,.21-.18,.31-.18,.02,0,.05,0,.07,.02,.09,.03,.16,.13,.16,.25-.15,.15-.08,.51,.21,1.07,.14,.58,.21,.97,.21,1.18,0,.15,.03,.33,.11,.54,.07,.21,.13,.39,.21,.53,.36,.71,.65,1.68,.86,2.88,.21,1,.45,1.54,.74,1.6,.3,.15,.51,.83,.65,2.04,.07,.15,.11,.31,.16,.49,.04,.17,.12,.34,.26,.46,.15,.3,.21,.54,.21,.76s.08,.39,.21,.54c.15,.35,.44,1.05,.86,2.07,.44,1.03,.65,1.7,.65,1.99,.06,.06,.17,.39,.32,.95,.06,.15,.11,.33,.16,.54,.03,.21,.08,.39,.16,.53,.07,.15,.1,.39,.1,.75,0,.08,.15,.32,.44,.74,.21,.37,.35,.76,.42,1.18,0,.44,.11,.71,.32,.86,.21,.06,.33,.56,.33,1.49,.06,.35,.11,.71,.14,1.06,.05,.36,.07,.62,.07,.76,.09,.34,.11,.52,.03,.52Zm.6,3.32c0,.22-.02,.34-.05,.34s-.07-.04-.1-.12c-.11-.22-.16-.53-.16-.97,0-.63,.06-.95,.21-.95,.06,.14,.11,.39,.16,.74,.03,.36,.02,.68-.06,.96Zm.85,0c-.03,.08-.06,.11-.09,.11-.05,0-.08-.03-.12-.11-.11-.31-.09-.47,.04-.47,.04,0,.11,.01,.17,.05v.42Zm.07-7.36c-.11-.36-.24-.73-.39-1.14-.13-.38-.27-.74-.42-1.06-.15-.31-.24-.52-.32-.59-.15-.14-.23-.33-.26-.58-.05-.26-.07-.45-.07-.6-.13-.21-.27-.56-.42-1.06-.14-.49-.24-.93-.32-1.28-.07-.15-.16-.37-.26-.7-.11-.32-.24-.64-.37-1.02-.37-.98-.67-1.79-.92-2.39-.25-.6-.44-1.12-.59-1.55-.14-.42-.26-.81-.37-1.18-.11-.34-.23-.75-.37-1.17-.21-.86-.29-1.39-.21-1.6,.01-.05,.03-.07,.05-.07,.09,0,.26,.31,.48,.93,.13,.63,.28,1.02,.42,1.16,.07,.15,.21,.52,.44,1.13,.21,.6,.45,1.3,.74,2.07,.15,.36,.25,.72,.33,1.07,.06,.36,.16,.65,.3,.86,.15,.21,.28,.52,.38,.91,.11,.4,.21,.77,.27,1.13,.15,.35,.26,.71,.37,1.07,.12,.35,.2,.59,.28,.74,.21,.29,.31,.6,.31,.95l.11,.23v.1l.42,.97c.08,.27,.16,.63,.28,1.07,.11,.42,.22,.8,.37,1.16,.14,.36,.24,.68,.32,.97,.07,.28,.1,.5,.1,.63,0,.15,.03,.28,.06,.37,.03,.12,.05,.21,.05,.28,.15,.29,.34,.71,.58,1.28,.26,.58,.38,.92,.38,1.06,0,.3,.04,.51,.11,.65,.21,.15,.24,.29,.11,.42-.03,.02-.06,.03-.08,.03-.11,0-.21-.14-.29-.4-.11-.32-.42-1.18-.92-2.62l-.42-.84c-.07-.15-.12-.36-.12-.65,0-.14-.04-.39-.14-.74Zm.79,22.53s0,.08-.02,.08c0,0-.03-.01-.03-.03-.03-.03-.06-.08-.06-.16-.05-.15-.07-.23-.03-.23t.03,.02c.14,.14,.18,.26,.11,.32Zm.42,1.72c0,.19-.01,.29-.06,.29-.04,0-.08-.07-.15-.2-.14-.21-.19-.42-.16-.63,.03-.13,.06-.19,.13-.19,.03,0,.08,.03,.14,.08,.21,.21,.25,.44,.1,.65Zm.65,1.65s-.07,.06-.1,.06-.08-.03-.11-.11c-.08-.21-.11-.42-.11-.6,0-.11,.01-.18,.06-.18,.02,0,.03,0,.05,.03,.14,0,.21,.1,.21,.31,.06,.23,.06,.37,0,.49Zm.53,1.44c0,.08,0,.11-.05,.11-.03,0-.04-.03-.04-.11-.15-.15-.2-.25-.12-.33,.02-.01,.05-.03,.07-.03,.05,0,.09,.05,.14,.15v.21Zm1.72,1.5c-.08,0-.18-.15-.33-.44-.14-.56-.29-1.11-.42-1.65-.14-.53-.29-.98-.43-1.34-.51-1.13-.93-2.31-1.28-3.53-.36-1.19-.5-1.87-.44-2.02,.15-.14,.21-.34,.16-.58-.03-.26-.22-.66-.58-1.23-.21-.5-.37-.97-.48-1.39-.1-.44-.09-.65,.06-.65,.07,.08,.13,.18,.21,.33,.07,.06,.18,.32,.32,.74,.13,.36,.26,.68,.38,.97,.09,.28,.22,.5,.37,.63,.14,.23,.31,.7,.48,1.44,.18,.76,.2,1.17,.05,1.23-.08,0-.08,.16,0,.49,.07,.32,.18,.66,.33,1.01,.13,.43,.27,.86,.42,1.28,.14,.44,.26,.71,.32,.86,.06,.21,.15,.5,.21,.86,.06,.35,.18,.71,.32,1.07,.15,.35,.25,.67,.33,.95,.06,.29,.14,.5,.21,.65,0,.21-.07,.32-.21,.32Zm0-17.2c-.15-.08-.26-.34-.33-.8-.06-.47-.06-.7,0-.7,.07,0,.21,.21,.42,.65,.23,.42,.33,.71,.33,.85,0,.07-.03,.1-.1,.1-.08,0-.18-.03-.32-.1Zm1.13,20.03h-.02c-.09-.05-.3-.45-.58-1.23-.24-.82-.31-1.23-.19-1.23,.01,0,.05,.02,.08,.05,.14,.15,.21,.26,.21,.32,0,.21,.11,.54,.32,.96,.21,.76,.26,1.13,.18,1.13Zm.26-1.02c-.23,0-.33-.21-.33-.65,0-.06,.02-.09,.04-.09,.05,0,.09,.06,.18,.16,.14,.18,.21,.34,.21,.47,0,.08-.04,.11-.1,.11Zm2.72-49.53s.03,.03,.04,.06c.09,.23,.09,.38,0,.44-.01,.02-.03,.03-.04,.03-.04,0-.05-.08-.05-.24,0-.19,.01-.29,.05-.29Zm-.28,7.23c.03-.06,.05-.1,.07-.1,.06,0,.11,.18,.16,.52,0,.44-.02,.7-.07,.81-.03,.1-.11,.16-.26,.16-.08,.03-.16,.03-.21,.03-.21,0-.17-.22,.1-.68,.15-.14,.21-.38,.21-.74Zm-.42-6.52c.03-.1,.05-.13,.08-.13,.02,0,.03,.08,.03,.24,.13,.36,.1,.54-.11,.54-.15,0-.15-.21,0-.65Zm-.42,15.71c-.08,0-.11-.08-.11-.21,0-.23,.03-.33,.11-.33,.06,0,.1,.07,.1,.21,0,.22-.04,.33-.1,.33Zm.1-11.97v-.42c0-.15,.03-.29,.11-.44,0-.13,.02-.32,.05-.58,.03-.24,.05-.44,.05-.58,0-.15,.03-.28,.06-.38,.03-.11,.05-.19,.05-.27,.15,0,.18,.39,.11,1.18-.08,.71-.14,1.21-.22,1.49-.04,.14-.07,.21-.1,.21s-.08-.07-.11-.21Zm.32,7.37c-.15,0-.23-.14-.26-.43-.05-.28,.02-.54,.15-.75,0-.27,.08-.63,.22-1.06,0-.28,.07-.51,.21-.64,.07,0,.1,.26,.1,.8s-.06,1.05-.21,1.55c0,.36-.06,.53-.21,.53Zm.28,3.85c.09-.22,.25-.32,.46-.32,.15,0,.25,.1,.28,.32,.03,.21-.02,.39-.16,.54-.08,.18-.15,.26-.24,.26s-.18-.08-.3-.26c-.14-.15-.16-.33-.04-.54Zm-1.56,35.58c.03-.07,.05-.1,.08-.1,.05,0,.08,.06,.13,.19,.07,.21,.12,.51,.12,.86s-.08,.53-.23,.53c-.07,0-.13-.21-.21-.64-.07-.42-.03-.71,.11-.84Zm.49,4.93c-.07,0-.15-.05-.28-.13-.21-.14-.4-.5-.58-1.07-.18-.56-.19-.85-.06-.85,.08,0,.22,.21,.43,.64,.21,.42,.39,.81,.54,1.17,.03,.16,.01,.24-.05,.24Zm.79-.57c0,.05,0,.07-.02,.07,0,0-.01-.02-.03-.07-.03-.06-.06-.17-.06-.3,0-.23,.03-.36,.06-.44,.02-.03,.03-.05,.03-.05,.02,0,.02,.02,.02,.05v.74Zm.21,1.83s-.06-.05-.1-.11c-.08-.15-.09-.29-.06-.42,.02-.08,.05-.11,.06-.11,.04,0,.07,.03,.1,.11,.08,0,.11,.13,.11,.42-.03,.06-.08,.11-.11,.11Zm1.07-23.5c0,.77-.03,1.31-.1,1.6-.06,.47-.11,.69-.11,.69,0-.03-.18-.4-.54-1.13-.06-.27-.08-.5-.04-.68,0-.11,.04-.16,.11-.16,.03,0,.08,.03,.14,.1,.02,.03,.04,.06,.05,.06,.05,0,.07-.16,.07-.48-.08-.15-.13-.31-.16-.49-.04-.18-.1-.31-.17-.37,0-.06-.01-.23-.04-.49-.04-.24-.02-.55,.04-.9,0-.92-.03-1.39-.11-1.39v.11c-.06,0-.1,.07-.1,.21v.21l-.11,.11s-.06,.05-.1,.05c-.06,0-.11-.16-.11-.47,0-.29,.07-.43,.21-.43,.29,0,.29-.25,0-.75-.16-.22-.31-.34-.4-.34-.17,0-.23,.26-.23,.76s-.05,.78-.11,.81h-.02c-.06,0-.13-.19-.19-.6-.08-.48-.08-.92,0-1.27,.06-.36,.17-.54,.32-.54,.21,0,.31,.08,.31,.21h.11c0,.08,.07,.12,.21,.12,.15,0,.21-.08,.21-.26v-1.77c0-1.29,.08-1.92,.23-1.92,.06,0,.09,.14,.09,.42s.04,.92,.12,1.92c0,.3,.03,.43,.11,.43,0,.08,.02,.24,.05,.48,.03,.26,.08,.37,.16,.37,.07,0,.1,1.07,.1,3.21v2.57Zm-.86-10.79c0-.15,.08-.21,.23-.21l.09,.09c0,.09-.03,.15-.09,.21-.07,.07-.12,.1-.15,.1-.05,0-.08-.06-.08-.19Zm.92,.53c-.01,.07-.01,.1-.03,.1-.03,0-.08-.36-.13-1.07-.08-.63-.16-1.08-.27-1.33-.04-.08-.05-.11-.08-.11-.05,0-.09,.2-.09,.6,0,.13-.01,.24-.04,.31-.04,.08-.05,.18-.05,.32-.03,.03-.07,.05-.08,.05-.1,0-.15-.23-.15-.68v-.76c0-.28-.03-.53-.1-.74-.14-.36-.14-.6,0-.75,.07-.06,.1-.24,.1-.53s.05-.6,.11-.97c0-.78,.04-1.2,.12-1.28h.01c.07,0,.17,.32,.31,.97,0,.27,.03,.5,.1,.63v.65c-.15,.06-.15,.21,0,.42,.14,.14,.21,.82,.21,2.04,.08,1.13,.1,1.84,.06,2.13Zm.05-20.3c-.08,.08-.11,.34-.11,.81v3.57c0,.51-.03,.75-.1,.75v2.29c0,.75-.08,1.53-.21,2.3-.08,1.01-.16,1.59-.27,1.77-.02,.03-.04,.04-.05,.04-.07,0-.07-.43,0-1.27,0-.36-.02-.68-.07-.96-.03-.29-.05-.5-.05-.65-.06-.14-.08-.27-.04-.42,.03-.14,.04-.29,.04-.43,.07-.15,.15-.46,.21-.96,.09-.5,.12-1.02,.12-1.55s-.02-1.02-.05-1.44c-.05-.42-.1-.65-.16-.65-.08,0-.12-.18-.12-.53,.07-.21,.04-.45-.11-.75-.06-.06-.06-.35,0-.85,.15-.57,.23-1.22,.23-1.93,0-.77,.06-1.32,.21-1.65,.05-.09,.08-.14,.11-.14,.07,0,.1,.24,.1,.72,0,.39,.01,.59,.06,.59,.02,0,.04-.02,.05-.05,0-.13,.07-.21,.21-.21,.07,0,.11,.26,.11,.74s-.04,.8-.11,.86Zm1.55-3.32c.1,0,.12,.47,.05,1.39,0,.94-.03,1.4-.11,1.4t-.03,.01c-.2,0-.28-.43-.28-1.29,.13-1,.26-1.51,.37-1.51Zm-.53,5.78c.03-.65,.08-1.07,.16-1.28,.08-.14,.16-.21,.23-.21,.03,0,.06,.02,.08,.05,.08,.11,.08,.34,0,.69-.13,.93-.23,1.51-.26,1.77-.03,.16-.05,.24-.1,.24-.01,0-.03-.03-.06-.08-.07-.15-.1-.53-.05-1.18Zm-.16,2.57c.06-.71,.14-1.07,.21-1.07,.14,0,.23,.08,.26,.26,.05,.18,.03,.67-.05,1.44,0,.36-.03,.6-.1,.7-.03,.05-.06,.06-.09,.06-.05,0-.09-.03-.13-.11-.15-.15-.18-.57-.1-1.28Zm-.21,11c-.08,0-.11-.08-.11-.21,0-.1,.01-.14,.04-.14,.02,0,.04,0,.07,.03v.32Zm.1-.86c-.15,0-.2-.16-.17-.48,.04-.33,.13-.62,.28-.91,.06-.21,.06-.35,0-.42-.08-.08-.1-.26-.07-.53,.05-.29,.1-.6,.17-.92,.08-.31,.14-.62,.22-.91,.07-.27,.13-.42,.21-.42,.07,0,.1,.95,.1,2.88-.06,.79-.1,1.52-.1,2.2v1.23c0,.35-.06,.56-.16,.63-.02,.02-.05,.03-.06,.03-.1,0-.2-.13-.31-.35-.15-.28-.15-.49,0-.64,.14-.29,.19-.59,.16-.9-.05-.32-.13-.49-.27-.49Zm0,4.06c.14,0,.22-.06,.27-.21,.03-.14,.05-.26,.05-.32,.14,0,.21,.1,.21,.32s-.1,.31-.32,.31-.28-.03-.21-.1Zm.21,3.09c0-.13,.04-.21,.11-.21v-.09c.14,0,.21,.09,.21,.3,0,.23-.07,.33-.21,.33v-.1c-.07,0-.11-.08-.11-.23Zm.11-.95v-.21c-.07-.08-.11-.21-.11-.44,0-.21,.04-.35,.11-.42v-.21c.14,0,.21,.21,.21,.63s-.07,.65-.21,.65Zm.21,13.78c0,.86-.07,1.28-.21,1.28-.07,0-.11-.16-.11-.49v-5.71c-.07-2.78-.07-4.53,0-5.24,.06-.58,.14-.89,.25-.89,.02,0,.05,.02,.07,.05,.08,1.99,.11,3.61,.11,4.85s-.01,2.48-.06,3.69c-.03,1.22-.05,2.02-.05,2.46Zm.21,28.2l-.1-.21c0-.08,.04-.15,.1-.21,.15,0,.23,.06,.23,.21,0,.14-.08,.21-.23,.21Zm.76-51.7l-.11-.21c0-.08,.01-.13,.05-.16,.01-.02,.03-.02,.03-.02,0,0,.03,.02,.03,.06,.13,0,.21,.08,.21,.21l-.21,.12Zm.31-2.02c-.07,0-.1-.09-.1-.23,0-.1,.02-.13,.05-.13,.02,0,.03,0,.05,.03v.33Zm2.41-1.23c.14-.12,.24-.17,.31-.17,.04,0,.06,.04,.06,.1,0,.15-.11,.29-.32,.44-.17,.16-.28,.24-.34,.24-.05,0-.08-.05-.08-.15,0-.12,.13-.29,.37-.46Zm-.28,1.11c.08-.06,.15-.11,.2-.11s.09,.05,.13,.11c0,.21-.07,.39-.21,.54-.08,.08-.15,.13-.2,.13-.03,0-.06-.04-.06-.09-.05-.09,.01-.29,.14-.58Zm-.16,3.27s.03,.02,.07,.05v.31s-.04,.03-.05,.03c-.05,0-.07-.08-.07-.24,0-.1,.02-.15,.05-.15Zm-.14,3.14c.06-.63,.17-1.04,.3-1.18,.23-.34,.36-.75,.44-1.17,.18-.87,.37-1.31,.57-1.31,.01,0,.04,.02,.08,.03,.13,.13,.16,.46,.09,.96-.06,.5-.21,1.03-.42,1.6-.35,.71-.53,1.21-.53,1.5,0,.13-.08,.28-.23,.43-.06,0-.13,.03-.21,.11-.14,0-.18-.33-.09-.97Zm.74,19.44s.06-.03,.1-.03c.08,0,.11,.08,.11,.24,0,.33-.02,.49-.06,.49s-.09-.08-.15-.28v-.42Zm-.11-6.4c0-.15,.08-.33,.21-.54,.09-.13,.16-.19,.22-.19,.04,0,.08,.03,.1,.08v.44c-.15,.27-.26,.43-.37,.46-.02,.02-.03,.02-.03,.02-.08,0-.13-.1-.13-.27Zm.21,4.8c0-.21,.08-.34,.22-.37,.02,0,.04-.02,.04-.02,.11,0,.17,.13,.17,.39,0,.21-.08,.32-.21,.32-.14,0-.22-.11-.22-.32Zm.11-6.41c-.11,.33-.19,.47-.26,.47-.01,0-.05-.01-.06-.04-.15-.22-.2-.54-.17-.96,.05-.44,.13-.71,.28-.86,.16-.22,.27-.32,.36-.32,.11,0,.17,.18,.17,.53-.08,.36-.17,.75-.32,1.18Zm.32-11.11l.12,.21c0,.11-.05,.18-.12,.18-.01,0-.03,0-.05-.02-.11-.03-.21-.13-.27-.26-.06-.29-.03-.58,.11-.85,.1-.16,.2-.25,.26-.25,.02,0,.03,0,.07,.04,.06,.06,.03,.27-.12,.63-.08,.08-.08,.18,0,.32Zm.12,1.07v.65l-.12,.09c-.14,0-.21-.14-.21-.42s.07-.43,.21-.43c0,.08,.04,.11,.12,.11Zm-.36,3.48s-.08-.13-.08-.39c0-.28,.05-.54,.16-.75,.08-.16,.15-.24,.21-.24,.02,0,.03,.02,.07,.03,.06,.07,.06,.33,0,.75-.17,.4-.28,.6-.36,.6Zm-1.68-20.26s-.08,.04-.1,.04c-.08,0-.11-.07-.11-.2,0-.18,.06-.34,.21-.47,.03-.06,.05-.09,.06-.09,.04,0,.05,.06,.05,.19,0,.29-.05,.47-.11,.53Zm.27,20.81c-.08,0-.09-.28-.06-.83,.08-.35,.13-.73,.16-1.11,.03-.39,.05-.78,.05-1.14,.08-.06,.11-.21,.11-.42,0-.29,.07-.42,.21-.42,.03-.03,.05-.05,.07-.05,.03,0,.05,.05,.05,.15,0,.08,.06,.18,.21,.32,.14,.07,.19,.23,.16,.49-.03,.24-.13,.43-.28,.58-.13,.15-.19,.29-.14,.42,.01,.1,.06,.15,.13,.15,.05,0,.08,0,.13-.04h.21c.14,.07,.16,.2,.06,.38-.11,.17-.24,.27-.39,.27-.13,0-.21,.15-.21,.42l-.21,.44c-.11,.26-.21,.39-.26,.39Zm1.86,18.2c-.06,.35-.17,.59-.32,.74l-.21,1.28c-.06,.77-.16,1.23-.26,1.34-.01,0-.03,.02-.05,.02-.08,0-.11-.36-.11-1.04,0-.21-.08-.32-.23-.32-.06,0-.06,.11,0,.32,0,.28-.06,.5-.21,.63-.11,.12-.18,.18-.19,.18t-.02-.02s.03-.22,.12-.58c.06-.65,.12-1.16,.21-1.55,.06-.39,.14-.91,.21-1.54,.04-.13,.04-.19,.01-.19s-.06,.01-.13,.08c-.05,.03-.08,.03-.13,.03-.14,0-.14-.26,.04-.78,.14-.58,.21-.92,.21-1.06,.13-.26,.22-.39,.29-.39t.03,.01c.06,.04,.1,.23,.1,.59,0,.42,.05,.85,.11,1.28,.03,.24,.06,.35,.08,.35s.03-.08,.03-.24c0-.29,.05-.45,.16-.49h.04c.08,0,.16,.12,.22,.38,.07,.29,.07,.61,0,.97Zm.33-1.19c-.08,0-.12-.06-.12-.21,0-.22,.04-.32,.12-.32,.01-.02,.03-.03,.05-.03,.03,0,.06,.08,.06,.24,0,.21-.05,.32-.11,.32Zm.11-.74h-.03c-.07,0-.16-.24-.29-.76-.08-.27-.08-.55,0-.79,.06-.24,.18-.37,.32-.37,0,.06,.02,.17,.05,.32,.03,.13,.05,.36,.05,.63,0,.58-.03,.89-.1,.97Zm-21.37-18.38c-.08-.06-.19-.47-.37-1.18-.18-.71-.28-1.1-.28-1.16-.07-.26-.08-.41-.07-.46l-.02,.02c-.08,.08-.12,.36-.12,.86,.07,.14,.12,.34,.12,.58v.6c0,.13,.05,.49,.16,1.07,.1,.56,.23,.92,.37,1.07,.05,.16,.1,.24,.15,.24,.03,0,.05-.02,.06-.03,.07-.15,.13-.21,.16-.21,.04,0,.05,.06,.05,.21,.07,.06,.15,.11,.21,.11,.21,0,.08-.58-.42-1.72Z"/><path class="cls-2" d="M219.5,93.12c0,.13-.08,.21-.22,.21-.07-.08-.1-.14-.1-.21,0-.14,.03-.22,.1-.22v-.1c.14,0,.22,.1,.22,.32Z"/><path class="cls-2" d="M232.64,130.51v-.32c.14,.14,.14,.24,0,.32Z"/><path class="cls-2" d="M219.39,96.21v.21l-.42-1.06c-.44-1.07-.5-1.6-.23-1.6,.23,.43,.36,.79,.44,1.06,.06,.29,.11,.57,.16,.86,.03,.29,.05,.47,.05,.53Z"/><path class="cls-2" d="M230.18,126.66s-.02,.06-.03,.06c-.03,0-.08-.08-.18-.27-.13-.36-.18-.54-.11-.54,.03,0,.11,.09,.21,.21,.14,.3,.17,.47,.11,.54Z"/><path class="cls-2" d="M217.9,74.64c0,.14,.07,.25,.21,.32,.07-.07,.04-.18-.11-.32h-.11Z"/><path class="cls-2" d="M217.14,89.37c-.06,0-.18-.1-.31-.31,0-.22-.06-.46-.16-.76-.11-.27-.21-.48-.27-.63-.15-.35-.26-.72-.37-1.13-.12-.39-.13-.58-.05-.58,.27,.71,.48,1.28,.63,1.71,.14,.42,.32,.99,.53,1.7Z"/><path class="cls-2" d="M232.32,131.37c0,.13-.04,.19-.09,.19-.08,0-.22-.18-.45-.52-.14-.43-.21-.71-.21-.85,0-.15-.08-.43-.21-.86-.14-.42-.18-.68-.11-.75,0-.03,.03-.04,.05-.04,.08,0,.17,.22,.32,.69,.18,.57,.23,.89,.16,.96l.21,.64c.15,.13,.21,.24,.21,.31,.08,.08,.12,.15,.12,.23Z"/><path class="cls-2" d="M231.57,126.01s-.06,.05-.1,.05c-.08,0-.19-.05-.34-.15-.42-.29-.45-.61-.09-.97,.06-.08,.09-.13,.11-.13,.03,0,.03,.09-.02,.25,0,.35,.09,.56,.23,.64,.13,.13,.21,.25,.21,.31Z"/><path class="cls-2" d="M233.17,130.93c0,.14-.03,.26-.11,.32v-.21c0-.09,.02-.14,.05-.14,.01,0,.03,.01,.06,.03Z"/><path class="cls-2" d="M218.65,91.41s-.02,.06-.04,.06c-.03,0-.09-.09-.17-.27-.09-.15-.13-.32-.17-.53-.04-.23,.02-.33,.17-.33,.06,0,.13,.16,.21,.49,.06,.3,.06,.52,0,.58Z"/><path class="cls-2" d="M204.01,120.09c0,.11-.07,.16-.21,.16-.07,.05-.12,.08-.15,.08-.05,0-.06-.06-.06-.19,0-.15,.06-.21,.21-.21,.14,0,.21,.05,.21,.16Z"/><path class="cls-2" d="M204.01,114.69c0,.22-.02,.32-.05,.32s-.1-.1-.16-.32c-.1-.5-.1-.76,.01-.76,.05,0,.12,.05,.2,.13,.14,0,.14,.21,0,.63Z"/><path class="cls-2" d="M203.68,107.96c-.05,.16-.13,.24-.21,.24-.03,0-.06,0-.11-.02,0-.08-.02-.19-.05-.37-.03-.17-.05-.39-.05-.6,0-.5,.05-.74,.16-.74,.1,0,.2,.24,.26,.74,.08,.3,.08,.54,0,.75Z"/><path class="cls-2" d="M203.68,119.28v.12c-.06-.07-.09-.15-.09-.21-.15-.15-.21-.23-.17-.28h.02s.08,.05,.15,.16c.06,0,.09,.08,.09,.21Z"/><path class="cls-2" d="M203.47,116.61v.12c-.14,0-.21-.18-.21-.54s.02-.53,.05-.53,.1,.18,.16,.53c.15,.15,.15,.29,0,.42Z"/><path class="cls-2" d="M203.68,113.31c0,.28-.03,.46-.09,.54-.05,.16-.09,.24-.13,.24s-.07-.05-.1-.15c-.07-.21-.1-.68-.1-1.39,0-.87,.05-1.29,.16-1.29,.02,0,.04,0,.05,.01,.07,.51,.13,.89,.16,1.19,.04,.27,.05,.56,.05,.85Z"/><path class="cls-2" d="M203.59,118.54s-.04,.01-.04,.01c-.05,0-.08-.14-.08-.43,0-.16,.02-.25,.03-.25,.02,0,.05,.05,.09,.13,.12,.21,.12,.39,0,.54Z"/><path class="cls-2" d="M215.75,85v.31c-.13-.06-.21-.16-.21-.31,0-.08,.02-.11,.06-.11s.09,.03,.15,.11Z"/><path class="cls-2" d="M204.01,96c0,.07-.12,.1-.33,.1-.14,0-.21-.06-.21-.21,0-.21,.07-.32,.21-.32,0,.14,.12,.29,.33,.43Z"/><path class="cls-2" d="M215.44,83.71l-.11,.23c-.07-.08-.11-.15-.11-.23-.07,0-.1-.02-.1-.05s.03-.05,.1-.05l.22,.1Z"/><path class="cls-2" d="M203.8,99c-.07,.17-.12,.27-.15,.27-.05,0-.06-.16-.06-.48,0-.36,.03-.6,.09-.7,.02-.03,.05-.05,.07-.05,.05,0,.09,.1,.14,.31,.08,.08,.05,.29-.09,.65Z"/><path class="cls-2" d="M203.68,106.36c-.14,0-.21-.1-.21-.31,0-.15,.03-.26,.12-.32,.01-.04,.04-.04,.08-.04,.06,0,.14,.05,.22,.13,.23,.36,.15,.54-.21,.54Z"/><path class="cls-2" d="M261.48,67.05c-.14,.08-.27,.13-.37,.16-.11,.03-.21,.18-.28,.44-.06,.24-.14,.59-.21,1.06-.08,.46-.17,1.15-.32,2.07-.14,.65-.24,1.54-.32,2.67-.07,1.15-.15,2.61-.21,4.39-.07,.79-.15,1.53-.21,2.25-.08,.71-.12,1.18-.12,1.39-.14,.71-.21,1.31-.21,1.81-.06,.21-.11,.6-.11,1.18s-.03,1.13-.1,1.7c0,.58-.01,1.16-.05,1.76-.04,.62-.06,1.05-.06,1.34-.07,.28-.1,.6-.1,.96v.97c0,.71-.08,1.13-.22,1.28,0,.29,.04,.5,.11,.64,.06,.13,.11,.57,.11,1.28-.08,.28-.11,.68-.11,1.17s-.03,.94-.11,1.29v1.81c-.07,.15-.1,.34-.1,.59v.59c.06,.21,.1,.46,.1,.75v.86c0,.48-.07,.74-.21,.74-.07,.06-.07,.18,0,.32,.08,.07,.11,.21,.11,.42-.08,.15-.03,.39,.1,.75,.22,.22,.22,.5,0,.86-.13,.29-.21,.67-.21,1.18v.63c0,.29-.04,.53-.1,.76-.15,.48-.15,.92,0,1.28,.06,.21,.11,.55,.16,1.01,.03,.46,.05,.93,.05,1.38s-.02,.91-.05,1.29c-.05,.39-.1,.62-.16,.7-.08,.06-.08,.21,0,.42,.06,.15,.1,.42,.1,.86-.28,1.42-.36,2.28-.21,2.55,.14,.15,.14,.33,0,.54,0,.14-.02,.27-.05,.37-.05,.11-.07,.21-.07,.27,.15,.07,.12,.21-.09,.42-.09,.09-.09,.18,0,.33v1.6c0,.44,.01,.81,.04,1.13,.04,.31,.05,.52,.05,.58,.15,.15,.23,.51,.23,1.07s-.08,.92-.23,1.07c0,.06-.06,.47-.21,1.18,0,.63-.1,1.25-.32,1.81-.28,.57-.42,.89-.42,.96,0,.43-.39,.84-1.18,1.23-.78,.38-1.57,.59-2.35,.59-.86,0-1.6,.1-2.25,.31-.42,.15-.9,.24-1.44,.28-.09,0-.19,.01-.27,.01-.36,0-.52-.06-.52-.17-.08-.07-.11-.15-.11-.22-.15-.29-.29-.46-.42-.53-.72-.86-1.15-1.45-1.3-1.83-.13-.34-.06-.63,.23-.84,.13-.14,.13-.35,0-.65-.08-.29-.15-.67-.23-1.18-.06-.48-.09-1.23-.09-2.18v-3.62c0-1.48,.03-3.3,.09-5.52,.08-1.42,.12-2.77,.12-4.06v-6.08c-.07-1.64-.12-3.55-.12-5.71s.02-4.37,.07-6.57c.03-2.22,.09-4.25,.21-6.15,.11-1.89,.22-3.33,.37-4.32,.15-.85,.24-1.68,.32-2.46,.07-.79,.18-1.78,.33-2.99,.06-.56,.13-1.24,.21-2.04,.06-.77,.14-1.45,.21-2.02,.14-.79,.21-1.5,.21-2.13s-.03-1.61-.1-2.9c-.08-.99-.1-1.78-.06-2.35,.04-.56,.06-.88,.06-.95,.13-.15,.37-.21,.7-.21,.3,0,.58,.06,.79,.21,.08,.03,.16,.05,.27,.05,.1,0,.23-.02,.38-.05,.06-.03,.13-.03,.19-.03,.13,0,.24,.05,.34,.13,.06,.08,.42,.18,1.07,.32,.71,0,1.06,.03,1.06,.11,.15,.15,.38,.21,.7,.21s.55-.06,.7-.21c.04-.01,.09-.03,.14-.03,.15,0,.28,.08,.39,.24,.27,.3,.6,.43,.95,.43,.33-.04,.59-.05,.81-.05s.38,.01,.47,.05c.23,.08,.58,.35,1.07,.85,.65,.65,1.25,1.07,1.83,1.28,.92,.44,1.1,.73,.53,.86Z"/></g></g></g><g><path class="cls-3" d="M116.35,49.13c1.36,.53,2.66,1.26,3.48,2.52,1.04,1.61,.73,3.48,.26,5.22-.14,.54-.27,1.09-.38,1.64,.41-.29,.77-.63,1.05-1.01,1.21-1.65,1.81-4.17,1.81-7.62,0-2.45-.29-4.48-.87-6.01-.58-1.54-1.54-2.69-2.88-3.45-1.33-.76-3.11-1.13-5.34-1.13h-3.85v8.01c.53,.1,1.06,.22,1.57,.33,1.73,.4,3.5,.85,5.15,1.49Z"/><path class="cls-3" d="M117.43,14.94c-1.47-.42-3.33-.64-5.61-.64h-2.19V31.57h3.79c2.21,0,3.93-.34,5.14-.98,1.21-.67,2.06-1.67,2.54-3.05,.47-1.35,.71-3.07,.71-5.14s-.35-3.85-1.1-5.03c-.73-1.18-1.83-1.99-3.28-2.43Z"/><path class="cls-4" d="M82.18,32.17h-12.5V6.5h-11.13V61.74c.59-.57,1.14-1.42,1.79-1.98,1.14-.97,2.5-1.21,3.96-1.28,1.83-.08,3.66,.22,5.38,.83v-19.18h12.5v27.71h11.21V6.5h-11.21v25.67Z"/><path class="cls-4" d="M128.59,37.43c-1.58-1.28-3.59-2.12-6.02-2.53,1.98-.35,3.61-1.05,4.92-2.08,1.31-1.04,2.31-2.44,2.99-4.21,.68-1.76,1.02-3.88,1.02-6.36,0-3.09-.42-5.62-1.28-7.65-.85-2.02-2.08-3.62-3.67-4.8-1.58-1.2-3.49-2.04-5.68-2.54-2.2-.5-4.65-.76-7.39-.76h-15.06v61.34h1.95c.18-4.06,.34-8.13,.56-12.19,.16-3.02,.62-8.08,4.44-8.6,1.38-.19,2.85-.02,4.26,.25v-8.01h3.85c2.23,0,4.01,.37,5.34,1.13,1.34,.76,2.3,1.91,2.88,3.45,.58,1.53,.87,3.56,.87,6.01,0,3.45-.6,5.97-1.81,7.62-.29,.39-.65,.72-1.05,1.01-.61,3-.79,6.14-1.06,9.2,1.82-.16,3.48-.48,4.95-1,2.15-.76,3.95-1.89,5.39-3.38s2.52-3.35,3.25-5.6,1.1-4.84,1.1-7.76-.39-5.42-1.18-7.49c-.78-2.08-1.96-3.76-3.56-5.05Zm-7.49-9.89c-.48,1.38-1.33,2.38-2.54,3.05-1.21,.64-2.93,.98-5.14,.98h-3.79V14.3h2.19c2.28,0,4.14,.22,5.61,.64,1.45,.44,2.55,1.25,3.28,2.43,.75,1.18,1.1,2.86,1.1,5.03s-.24,3.79-.71,5.14Z"/><path class="cls-4" d="M163.4,64.85s.04,.07,.07,.1c-.02-.05-.05-.1-.07-.15,0,.02,0,.04,0,.06Z"/><path class="cls-4" d="M163.82,54.13c.95,1.93,.56,3.97,.99,6,.32,1.52,.97,2.93,1.71,4.29,1.25-1.32,2.2-2.89,2.82-4.73,.95-2.81,1.44-6.03,1.44-9.65v-4.94h-10.76v5.27c1.59,.85,2.96,2.03,3.8,3.75Z"/><path class="cls-4" d="M164.15,7.97c-2.4-1.44-5.71-2.15-9.95-2.15-4.5,0-8.03,.82-10.57,2.49-2.55,1.67-4.33,4.04-5.33,7.12-1.02,3.09-1.52,6.73-1.52,10.92v21.87c0,3.93,.49,7.4,1.48,10.41,1.79-.13,3.55,.16,5.12,.89-.17-1.12-.33-2.23-.5-3.35-.28-1.86-.94-4.06-.2-5.88,.78-1.93,2.7-2.35,4.59-2.42,.24,0,.48,0,.73,0V23.92c0-1.88,.13-3.54,.37-5.05,.26-1.48,.82-2.67,1.71-3.56,.88-.87,2.28-1.31,4.21-1.31s3.27,.41,4.04,1.25c.78,.83,1.26,1.96,1.44,3.36,.18,1.43,.26,2.98,.26,4.7v5.3h10.76v-5.14c0-3.54-.5-6.65-1.52-9.32-1-2.67-2.7-4.74-5.11-6.18Z"/><path class="cls-4" d="M199.27,60.9c.09,.01,.19,.03,.28,.05,0-.11-.02-.23-.02-.34-.02-1.09,.26-2.2,.39-3.3-.22-.18-.39-.42-.48-.71-.83-2.62,.51-5.31,2.7-6.79,1.18-.79,2.59-1.21,3.98-1.41,.95-.14,1.98-.27,2.97-.17,0-.08,0-.15,0-.23V6.5h-10.84V49.29c0,1.92-.13,3.72-.41,5.42-.29,1.68-.87,3.05-1.74,4.07-.37,.43-.85,.75-1.41,1,.22,.13,.43,.26,.65,.4,1.19,.77,2.57,.54,3.92,.72Z"/><path class="cls-4" d="M188.47,59.49c-.31-.2-.6-.44-.85-.71-.94-1.02-1.54-2.39-1.78-4.07-.26-1.7-.39-3.5-.39-5.42V6.5h-10.9V47.99c0,4.3,.48,7.98,1.44,11.07,.95,3.07,2.7,5.45,5.22,7.11,.49,.32,1.02,.61,1.59,.86,1.16-2.98,2.87-6.19,5.67-7.54Z"/></g></g></g></svg>