<?xml version="1.0" encoding="UTF-8"?><svg id="Layer_2" xmlns="http://www.w3.org/2000/svg" viewBox="0 0 209 100.69"><defs><style>.cls-1{fill:#1faa9f;}.cls-2{fill:#4c4b4b;}.cls-3{fill:#343333;}.cls-4{fill:#373737;}.cls-5{fill:#525252;}.cls-6{fill:#3c3d3d;}</style></defs><g id="Layer_1-2"><path d="m63.16,21.97c.92-.23.57.48.55.82-.05,1.5-.16,3-.26,4.51.09.05.19.09.28.14.33-.38.69-.73.98-1.13,1.99-2.78,4.84-4.14,8.07-4.75,1.78-.34,3.62-.64,5.41-.55,4.31.22,8.34,1.43,11.84,4.08,4.16,3.15,6.31,7.47,7.54,12.42.68,2.75.87,5.52.71,8.29-.29,5.01-1.46,9.8-4.49,13.93-2.81,3.83-6.65,6.22-11.17,7.6-2.32.71-4.69.59-7.07.58-3.7-.01-6.93-1.31-9.8-3.57-.32-.25-.55-.63-.79-.96-.22-.31-.4-.65-.6-.98-.15.1-.3.2-.45.29.05,1.03.13,2.06.13,3.1.01,5.52,0,11.03,0,16.55,0,.64.03,1.29.05,1.93-.06.06-.11.12-.17.18h-12.16V21.98h11.18c.07,0,.14,0,.21-.01Zm.79,22.35c-.13,2.09.12,4.17.97,6.14,1.24,2.88,3.22,5.1,6.24,6.1,4,1.33,7.82.82,11.12-1.91,1.41-1.17,2.59-2.62,3.15-4.47.75-2.49,1.09-4.99.79-7.6-.33-2.86-1.03-5.41-3.16-7.61-3.06-3.16-8.94-4.43-12.94-2.1-.71.42-1.41.91-1.98,1.49-1,1.01-2.07,2.01-2.81,3.21-1.26,2.03-1.5,4.36-1.37,6.75Z"/><path d="m29.71,62.21c-.77.91-1.35,1.71-2.04,2.38-1.51,1.46-3.35,2.38-5.38,2.88-2.09.52-4.23.69-6.4.62-3.31-.11-6.24-1.18-8.88-3.13-3.91-2.91-5.89-6.87-6.55-11.64-.39-2.84-.31-5.67-.32-8.5-.02-6.85-.01-13.7-.02-20.55,0-.73-.08-1.45-.13-2.24h12.39v1.16c0,8.86-.11,17.73.05,26.58.06,3.42,2.8,7.19,7.06,7.18,1.43,0,2.9-.09,4.29-.4,3.06-.68,4.49-2.96,4.96-5.81.35-2.14.44-4.35.45-6.52.05-7.39.02-14.79.02-22.24h12.12c.14,15.03-.19,30.02.19,45.06h-11.37c-.14-1.47-.28-3.01-.45-4.82Z"/><path d="m155.31,32.08c-1.2.03-2.4.08-3.6.1-1.33.02-2.65,0-3.87,0v-10.18h7.86c0-2.19-.11-4.42.03-6.64.11-1.72.3-3.5.86-5.11,1.7-4.86,4.98-8.2,10.06-9.56,3.66-.99,7.34-.85,11.01,0,.19.04.46.32.46.49.03,3.24.02,6.48.02,9.71-1.57-.1-3.09-.3-4.61-.26-3.42.08-5.75,2.22-5.73,5.67.01,1.84,0,3.69,0,5.68h10.15c0,1.4,0,2.66,0,3.91,0,1.75-.04,3.51.02,5.26.03.83-.27,1.06-1.05,1.06-2.99-.03-5.99-.01-9.06-.01v34.71h-12.2s-.08-.21-.08-.38c0-11.2-.01-22.4-.02-33.59,0-.25-.03-.51-.05-.76-.07-.03-.14-.07-.21-.1Z"/><path d="m208.98,56.79c0,2.92-.01,5.84.01,8.76,0,.73-.23.96-.97,1.22-2.79.97-5.66.83-8.49.68-4.77-.25-9.41-3.98-10.87-8.41-.81-2.46-.88-4.94-.88-7.46-.01-5.84,0-11.68,0-17.53,0-.45,0-.89,0-1.41h-8.17v-10.93c.64,0,1.31.03,1.98,0,.96-.06,1.95-.04,2.87-.27,2.12-.51,3.19-2.09,3.88-4.05.72-2.06.54-4.18.56-6.29,0-.87,0-1.74,0-2.68h10.92v13.55h8.4c.07,0,.14-.01.21-.02.19.11.55.22.55.34.03,3.4.02,6.8.02,10.28h-9.12c-.02.35-.05.63-.05.91,0,6.33,0,12.65.03,18.98.01,2.35,1.6,4.32,4.22,4.29,1.58-.02,3.15-.11,4.73-.17.06.07.11.13.17.2Z"/><path d="m106.17,1.28h12.18v65.69h-12.18V1.28Z"/><path class="cls-1" d="m148.77,100.41c-.59,0-1.17-.01-1.76,0-3.86.11-7.63-.53-11.38-1.37-8.78-1.95-16.58-5.98-23.77-11.25-1.36-.99-2.67-2.1-3.79-3.35-.77-.85-1.41-1.96-1.71-3.06-.42-1.58,1.83-4.05,3.47-4.18,1.6-.12,2.97.26,4.23,1.32,3.31,2.79,6.9,5.21,10.78,7.14,3.63,1.82,7.34,3.47,11.29,4.51,5.58,1.47,11.27,2.14,16.98,1.59,7.66-.73,14.96-2.87,21.66-6.82,3.37-1.98,6.64-4.09,9.6-6.65,1.32-1.14,2.82-1.25,4.38-1.03,1.49.21,2.76,2.08,2.91,3.59.18,1.77-.62,2.99-1.82,4.06-3.33,2.98-6.97,5.54-10.94,7.6-2.79,1.45-5.59,2.95-8.53,4.03-3.39,1.25-6.89,2.33-10.43,2.99-3.66.69-7.42.79-11.14,1.14,0-.09-.02-.19-.03-.28Z"/><path d="m141.01,67h-12.2V21.77h12.2v45.23Z"/><path class="cls-1" d="m142.23,7.11c.62,4.02-3.5,7.61-7.39,7.6-3.61-.02-7.66-3.87-7.4-7.43.29-3.96,2.57-6.89,7.7-7.21,3.71-.23,7.85,3.44,7.09,7.05Z"/><path class="cls-4" d="m63.16,21.97c-.07,0-.14,0-.21.01.07,0,.14,0,.21-.01Z"/><path class="cls-6" d="m208.43,21.96c-.07,0-.14.01-.21.02.07,0,.14-.01.21-.02Z"/><path class="cls-5" d="m155.31,32.08c.07.03.14.07.21.1-.07-.03-.14-.07-.21-.1Z"/><path class="cls-2" d="m208.98,56.79c-.06-.07-.11-.13-.17-.2.06.07.11.13.17.2Z"/><path class="cls-3" d="m63.93,84.42c.06-.06.11-.12.17-.18-.06.06-.11.12-.17.18Z"/></g></svg>