<?xml version="1.0" encoding="utf-8"?>
<!-- Generator: Adobe Illustrator 19.0.0, SVG Export Plug-In . SVG Version: 6.00 Build 0)  -->
<svg version="1.1" id="Layer_1" xmlns="http://www.w3.org/2000/svg" xmlns:xlink="http://www.w3.org/1999/xlink" x="0px" y="0px"
	 viewBox="0 0 899.2 392.8" style="enable-background:new 0 0 899.2 392.8;" xml:space="preserve">
<style type="text/css">
	.st0{fill:#BE1E2D;}
	.st1{fill:none;}
	.st2{fill:#FFFFFF;}
</style>
<g>
	<g>
		<g>
			<g>
				<g>
					<path d="M62.2,119.9c0,0.5-0.5,1.2-1.2,1.9c-3,0.7-5.6,1.4-10,3c-2.8,0.9-3.9,2.1-2.3,4.9c10.9,20.2,27.9,46.9,29.5,49.7
						c1.4,2.1,3,3.9,4.2,5.8c0.9,1.2,2.1,1.2,3.3-0.5c17.2-23,25.8-36,29.7-41.8c3.3-5.1,6.3-11.8,6.3-13.9c0-2.1-2.3-4.4-14.6-7
						l0.2-0.9c0.2-0.7,0.9-1.2,3-1.2c3.5,0,8.4,0.7,16.7,0.5c9.1-0.2,15.8-0.7,18.1-0.7c2.1,0,3,0,3.7,0.7c0.2,0.5,0.5,1.2,0,1.6
						c-10.4,2.1-13.5,4.9-23,16.5c-15.6,19.3-30.7,40.2-36.7,50.6c-2.5,4.2-3,5.8-3,14.9v17.6c0,11.2,0.2,21.1,0.7,28.3
						c0.9,10.2,2.1,11.2,20.9,15.1c0.2,0.5,0.2,1.2,0,1.6c-0.5,0.7-1.6,0.9-4.6,0.9c-7.9-0.2-17.7-1.4-29.5-1.4
						c-8.4,0-14.4,1.2-22.3,1.2c-1.9,0-2.1-0.2-2.3-0.5c-0.2-0.5-0.5-0.9-0.5-1.2c0-0.5,0.2-0.7,0.7-0.9c9.1-1.2,15.3-3.5,17.2-7.4
						c1.4-2.8,2.3-8.6,2.3-30.4v-26.5c0-3.5-1.6-6.7-4.9-12.8c-23.7-41.1-34.6-56.2-36.9-59c-2.3-2.8-4.6-4.9-12.5-6.7
						c-1.2-0.2-1.9-0.7-1.9-0.9c0-0.5,0.2-0.9,0.5-1.2c0.5-0.2,1.2-0.5,3-0.5c7.7,0,18.1,0.9,23.7,0.9c3.7,0,9.1-0.5,12.5-0.9
						c3-0.2,6.7-0.5,8.6-0.5c1.2,0,1.4,0,1.4,0.7V119.9z"/>
					<path d="M222.7,116.2c39.2,0,76.2,32.3,76.2,73.9c0,28.6-13.7,48.5-25.5,60.4c-15.6,15.1-35.8,20-46.9,20
						c-24.6,0-47.2-9.3-63.2-26.9c-11.6-13.2-18.8-33-18.8-50.9c0-20.2,7.7-40.4,25.5-55.5c15.6-13.5,33.7-20.9,52.5-20.9H222.7z
						 M216.6,121.3c-13.7,0-24.4,4.4-34.8,15.8c-12.8,13.5-16,33.9-16,51.6c0,20.9,7.4,41.8,20,55.3c14.4,15.3,28.3,20.9,43.9,20.9
						c27.9,0,48.8-20.4,48.8-66.2c0-20.4-5.6-41.6-21.1-59.5c-9.1-10.2-21.6-17.9-40.4-17.9H216.6z"/>
					<path d="M422.9,234c0.5,0,1.2,0.9,1.6,1.6c0.2,0.7,0.5,1.4-0.2,3.5c-2.8,8.1-4.9,14.6-6.5,23.9c-0.5,2.8-1.4,3.5-3.5,3.9
						c-2.3,0.2-4.9,0.2-14.2,0.2c-7.2,0-20.4-0.7-56.4-0.9c-8.4,0-17.4,0.9-24.4,1.6c-2.3,0.2-3.5,0.2-4.4,0
						c-0.5-0.5-0.7-1.4-0.5-1.9c7.2-2.3,13.9-4.4,15.6-12.3c0.7-3.5,1.4-11.4,1.4-34.8v-50.4c0-19.3-0.5-31.8-0.9-36.9
						c-0.2-4.7-1.6-6.3-13.9-9.5c-0.7-0.2-0.7-0.7-0.5-1.2v-0.2c0.5-0.5,0.9-0.7,2.1-0.7c5.6,0,10.7,0.5,17.7,0.5
						c7.9,0,18.4-1.2,28.8-1.4c0.5,0.7,0.9,1.4,0.7,2.3c-13,3-14.9,5.8-15.6,12.8c-0.9,7.2-1.4,21.6-1.4,43.2v28.1
						c0,34.4,0.5,43.7,0.9,48.3c0.2,3,0.9,5.1,4.4,6.3c3.2,0.9,10.5,1.6,20.4,1.6c21.4,0,32.3-1.4,39-9.1c4.6-5.1,7.2-12.3,8.6-17.7
						c0.2-0.7,0.5-0.9,0.9-0.9H422.9z"/>
					<path d="M545,234c0.5,0,1.2,0.9,1.6,1.6c0.2,0.7,0.5,1.4-0.2,3.5c-2.8,8.1-4.9,14.6-6.5,23.9c-0.5,2.8-1.4,3.5-3.5,3.9
						c-2.3,0.2-4.9,0.2-14.2,0.2c-7.2,0-20.4-0.7-56.4-0.9c-8.4,0-17.4,0.9-24.4,1.6c-2.3,0.2-3.5,0.2-4.4,0
						c-0.5-0.5-0.7-1.4-0.5-1.9c7.2-2.3,13.9-4.4,15.6-12.3c0.7-3.5,1.4-11.4,1.4-34.8v-50.4c0-19.3-0.5-31.8-0.9-36.9
						c-0.2-4.7-1.6-6.3-13.9-9.5c-0.7-0.2-0.7-0.7-0.5-1.2v-0.2c0.5-0.5,0.9-0.7,2.1-0.7c5.6,0,10.7,0.5,17.7,0.5
						c7.9,0,18.3-1.2,28.8-1.4c0.5,0.7,0.9,1.4,0.7,2.3c-13,3-14.9,5.8-15.6,12.8c-0.9,7.2-1.4,21.6-1.4,43.2v28.1
						c0,34.4,0.5,43.7,0.9,48.3c0.2,3,0.9,5.1,4.4,6.3c3.3,0.9,10.5,1.6,20.4,1.6c21.4,0,32.3-1.4,39-9.1c4.6-5.1,7.2-12.3,8.6-17.7
						c0.2-0.7,0.5-0.9,0.9-0.9H545z"/>
					<path d="M631.2,116.2c39.3,0,76.2,32.3,76.2,73.9c0,28.6-13.7,48.5-25.6,60.4c-15.6,15.1-35.8,20-46.9,20
						c-24.6,0-47.1-9.3-63.2-26.9c-11.6-13.2-18.8-33-18.8-50.9c0-20.2,7.7-40.4,25.5-55.5c15.6-13.5,33.7-20.9,52.5-20.9H631.2z
						 M625.1,121.3c-13.7,0-24.4,4.4-34.8,15.8c-12.8,13.5-16,33.9-16,51.6c0,20.9,7.4,41.8,20,55.3c14.4,15.3,28.3,20.9,43.9,20.9
						c27.9,0,48.8-20.4,48.8-66.2c0-20.4-5.6-41.6-21.1-59.5c-9.1-10.2-21.6-17.9-40.4-17.9H625.1z"/>
				</g>
				<polygon class="st0" points="204.3,95.5 301.7,16.2 304.8,150.5 285.9,53.1 				"/>
				<polygon points="238.8,295.8 141.4,375.2 138.3,240.8 157.1,338.2 				"/>
			</g>
			<g>
				<g>
					<g>
						<path d="M789.1,248.4L789.1,248.4c-0.1-0.1-0.5-0.7-1.1-1.5c-0.3-0.4-0.7-0.9-1.3-1.3c-0.6-0.4-1.4-0.8-2.2-1
							c-0.2,0-0.4,0-0.6,0c-1.1,0-1.9,0.3-2.7,0.7c-1.2,0.5-2.4,1.2-3.4,1.7c-0.3,0.2-0.6,0.3-0.9,0.5c-0.1-0.2-0.2-0.4-0.3-0.6
							c-0.3-0.5-0.8-1.1-1.5-1.5c-0.7-0.4-1.6-0.6-2.5-0.6c-0.1,0-0.1,0-0.1,0c3.3-5.8,8.8-15.3,9.1-16.2c0.5-1.4-0.6-2.8-0.6-2.8
							l-3-1.2v-7h-4.6v-3.8h-5.6v-4.7h-7.9v4.7h-6.1v3.8h-4.1v6.9l-3.2,1.3c0,0-1.1,1.5-0.6,2.8c0.4,1,6.5,11.8,9.8,17.4
							c-1,0.5-1.9,1.1-2.7,1.6c-0.5,0.3-0.9,0.6-1.2,0.8c-0.2,0.1-0.3,0.2-0.4,0.2c0,0,0,0,0,0c-0.1,0-0.1,0-0.1,0
							c-0.1-0.1-0.3-0.3-0.6-0.9c-0.4-0.8-1-1.6-1.8-2.1c-0.8-0.5-1.7-0.7-2.5-0.7c-1.4,0-2.5,0.4-3.7,0.9c-2.3,0.9-5.2,2-5.2,2
							l1.7,4c0,0,2.9-1.1,5.1-2c1-0.4,1.8-0.6,2-0.6c0,0,0,0,0,0c0,0,0.1,0.1,0.2,0.3c0.5,1,1.1,1.9,1.9,2.5c0.8,0.7,1.9,1,2.8,1
							c0.5,0,1-0.1,1.4-0.2c0.9-0.3,1.4-0.6,2-1c0.9-0.5,1.9-1.2,2.8-1.7c0.8-0.4,1.5-0.7,1.9-0.7h0.1c0.1,0.2,0.2,0.6,0.4,1.1
							c0.1,0.4,0.2,0.8,0.6,1.3c0.2,0.3,0.4,0.6,0.8,0.9c0.4,0.3,1,0.5,1.5,0.5c0.1,0,0.1,0,0.2,0c0.7,0,1.1-0.2,1.5-0.3
							c1.4-0.5,3-1.4,4.6-2.2c0.8-0.4,1.6-0.8,2.3-1c0.6-0.2,1.1-0.3,1.2-0.3h0c0,0,0,0,0,0h0c0.1,0,0.2,0,0.3,0
							c0.1,0.1,0.2,0.3,0.3,0.6c0.2,0.4,0.6,1,1.2,1.6c0.7,0.6,1.5,0.8,2.1,0.7c1.1,0,1.8-0.4,2.6-0.7c1.1-0.5,2.3-1.2,3.3-1.7
							c0.5-0.3,1-0.5,1.3-0.6c0.2-0.1,0.3-0.1,0.4-0.1c0,0,0,0,0,0c0,0,0,0,0.1,0.1c0.2,0.1,0.5,0.6,0.9,1.2c0.4,0.6,1,1.5,2.4,2.1
							l1.7-3.6L789.1,248.4L789.1,248.4L789.1,248.4z M763.6,219l0,0.1L763.6,219l-10.7,4.2v-2.7h4.3v-3.7h13.2v3.7h4.4v2.9
							L763.6,219z"/>
					</g>
					<path d="M744.2,258.3c1-0.4,1.8-0.6,2-0.6c0,0,0,0,0,0c0,0,0.1,0.1,0.2,0.3c0.5,1,1.1,1.9,1.9,2.5c0.8,0.6,1.9,1,2.8,1
						c0.5,0,1-0.1,1.4-0.2c0.9-0.3,1.4-0.6,2-1c0.9-0.6,1.9-1.2,2.8-1.7c0.8-0.5,1.6-0.7,1.9-0.8c0.1,0.2,0.2,0.6,0.4,1.1
						c0.1,0.4,0.2,0.8,0.6,1.3c0.2,0.3,0.4,0.6,0.8,0.9c0.4,0.3,1,0.5,1.5,0.5c0.1,0,0.1,0,0.2,0c0.7,0,1.1-0.2,1.5-0.3
						c1.4-0.5,3-1.4,4.6-2.2c0.8-0.4,1.6-0.8,2.3-1c0.6-0.2,1.1-0.3,1.2-0.3h0c0,0,0,0,0,0h0c0.1,0,0.2,0,0.3,0
						c0.1,0.1,0.2,0.3,0.3,0.7c0.2,0.4,0.6,1,1.2,1.6c0.7,0.6,1.5,0.7,2.1,0.7c1.1,0,1.8-0.4,2.6-0.7c1.1-0.5,2.3-1.2,3.3-1.7
						c0.5-0.3,1-0.5,1.3-0.6c0.2-0.1,0.3-0.1,0.4-0.1c0,0,0,0,0,0c0,0,0,0,0.1,0c0.2,0.1,0.5,0.6,0.9,1.2c0.4,0.6,1,1.5,2.4,2.1
						l1.7-3.6l0.2-0.3l0,0l0,0h0c-0.1-0.1-0.5-0.7-1.1-1.5c-0.3-0.4-0.7-0.9-1.3-1.3c-0.6-0.4-1.4-0.8-2.2-1c-0.2,0-0.4,0-0.6,0
						c-1.1,0-1.9,0.4-2.7,0.7c-1.2,0.5-2.4,1.2-3.4,1.7c-0.3,0.2-0.6,0.3-0.9,0.5c-0.1-0.2-0.2-0.4-0.3-0.6
						c-0.3-0.5-0.8-1.1-1.5-1.5c-0.7-0.4-1.6-0.6-2.5-0.6c-0.1,0-0.1,0-0.2,0c-1.2,0-2.2,0.4-3.3,0.8c-1.6,0.6-3.2,1.5-4.5,2.1
						c-0.3,0.2-0.6,0.3-0.9,0.4c-0.1-0.4-0.4-0.9-0.7-1.4c-0.5-0.9-1.8-1.7-3.2-1.8c-0.2,0-0.3,0-0.5,0c-1.1,0-2.1,0.3-3,0.7
						c-1.3,0.6-2.5,1.3-3.5,2c-0.5,0.3-0.9,0.6-1.2,0.8c-0.2,0.1-0.3,0.2-0.4,0.2c0,0,0,0,0,0c-0.1,0-0.1,0-0.1,0
						c-0.1-0.1-0.3-0.3-0.6-0.9c-0.4-0.8-1-1.6-1.8-2.1c-0.8-0.5-1.7-0.7-2.5-0.7c-1.4,0-2.5,0.5-3.7,0.9c-2.3,0.9-5.2,2-5.2,2
						l1.7,4C739.1,260.3,742,259.2,744.2,258.3z"/>
					<path d="M728,199.4v71.8h70.5v-1.7v-70.2H728z M795.2,267.9h-63.8v-65.1h63.8V267.9z"/>
				</g>
				<g>
					<g>
						<path d="M784.9,150.4c0,0-1.7-15.7-2.3-16.8c-0.6-1.1-1.7-5.2-17.2-6.7c-1.7-0.1-3.3-0.1-4.4,0c-15.5,1.5-16.6,5.6-17.2,6.7
							c-0.6,1.1-2.3,16.8-2.3,16.8l0.1,22.4h3.8c0,0.1,0,0.1,0,0.2v2.7c0,1.8,1.4,3.3,3.2,3.3c1.8,0,3.2-1.5,3.2-3.3V173
							c0-0.1,0-0.1,0-0.2h22.8c0,0.1,0,0.1,0,0.2v2.7c0,1.8,1.4,3.3,3.2,3.3c1.8,0,3.2-1.5,3.2-3.3V173c0-0.1,0-0.1,0-0.2h3.8
							L784.9,150.4z M754.4,130.7H772c0.8,0,1.5,0.7,1.5,1.5c0,0.8-0.7,1.5-1.5,1.5h-17.6c-0.8,0-1.4-0.7-1.4-1.5
							C753,131.4,753.6,130.7,754.4,130.7z M748.7,165.8c-1.7,0-3.1-1.4-3.1-3.2c0-1.7,1.4-3.2,3.1-3.2c1.7,0,3.1,1.4,3.1,3.2
							C751.8,164.3,750.4,165.8,748.7,165.8z M763.3,154.1c0,0-0.1,0-0.2,0c-1.8,0-14.2,0-15.9,0c-1.8,0-1.2-2.9-1.2-2.9
							s1.1-8.6,1.6-11.2c0.5-2.6,2.1-2.3,2.1-2.3h13.5h0.2h13.5c0,0,1.6-0.3,2.1,2.3c0.5,2.6,1.6,11.2,1.6,11.2s0.6,2.9-1.2,2.9
							C777.6,154.1,765.1,154.1,763.3,154.1z M777.9,165.8c-1.7,0-3.1-1.4-3.1-3.2c0-1.7,1.4-3.2,3.1-3.2c1.7,0,3.1,1.4,3.1,3.2
							C781,164.3,779.6,165.8,777.9,165.8z"/>
					</g>
					<path d="M728,117v71.8h70.5v-1.7V117H728z M795.2,185.5h-63.8v-65.1h63.8V185.5z"/>
				</g>
				<g>
					<path d="M831.8,160l-7.2-1l-3,3.6l7.4,3.9l4,8.1l3.5-3.9L836,165l8.8-9.1l10.9,21l4.4-4.6l-6.6-25.4l11.7-12.2
						c1.3-1.4,1.4-3.6,0.1-4.9c-1.3-1.3-3.4-1.2-4.8,0.2l-11.3,11.8l-25.7-6.9l-4.5,4.5l21.5,11.6L831.8,160z"/>
					<path d="M807.4,117v71.8h70.4v-1.7V117H807.4z M874.5,185.5h-63.8v-65.1h63.8V185.5z"/>
				</g>
				<g>
					<path d="M807.4,199.4v71.8h70.4v-1.7v-70.2H807.4z M874.5,267.9h-63.8v-65.1h63.8V267.9z"/>
					<g>
						<polygon points="828.2,215.8 831.2,214.2 834.2,215.8 833.6,212.4 836,210.1 832.7,209.6 831.2,206.5 829.7,209.6 
							826.4,210.1 828.8,212.4 						"/>
						<polygon points="839.6,215.8 842.6,214.2 845.6,215.8 845,212.4 847.4,210.1 844.1,209.6 842.6,206.5 841.1,209.6 
							837.8,210.1 840.2,212.4 						"/>
						<polygon points="851.1,215.8 854,214.2 857,215.8 856.4,212.4 858.8,210.1 855.5,209.6 854,206.5 852.5,209.6 849.2,210.1 
							851.6,212.4 						"/>
					</g>
					<g>
						<path class="st1" d="M857.8,226.3c-10.1,0-20.2,0-30.3,0c-2.5,0-2.8,0.4-2.8,2.9c0,9.1,0,18.1,0,27.2c0,0.6,0.1,1.2,0.1,1.8
							c4.8,0,9.5,0,14.3,0c0-3.5,0-6.9,0-10.4c2.5,0,4.7,0,7.3,0c0,3.6,0,7,0,10.3c4.9,0,9.6,0,14.3,0c0-0.6,0-1.1,0-1.6
							c0-9.1,0-18.2,0-27.4C860.6,226.7,860.2,226.3,857.8,226.3z M835.2,252.7c-2.3,0-4.5,0-6.9,0c0-1.7,0-3.3,0-5
							c2.3,0,4.5,0,6.9,0C835.2,249.3,835.2,250.9,835.2,252.7z M828.4,243.9c0-1.7,0-3.3,0-5.1c2.3,0,4.5,0,6.8,0
							c0,1.7,0,3.3,0,5.1C833,243.9,830.8,243.9,828.4,243.9z M835.3,235c-2.3,0-4.5,0-6.9,0c0-1.7,0-3.3,0-5.1c2.3,0,4.5,0,6.9,0
							C835.3,231.7,835.3,233.2,835.3,235z M846.1,243.9c-2.3,0-4.5,0-6.9,0c0-1.7,0-3.3,0-5.1c2.2,0,4.5,0,6.9,0
							C846.1,240.4,846.1,242.1,846.1,243.9z M846.1,235c-2.4,0-4.6,0-7,0c0-1.7,0-3.3,0-5c2.3,0,4.6,0,7,0
							C846.1,231.6,846.1,233.2,846.1,235z M850,229.9c2.3,0,4.5,0,6.9,0c0,1.7,0,3.3,0,5.1c-2.3,0-4.5,0-6.9,0
							C850,233.3,850,231.6,850,229.9z M850,238.8c2.3,0,4.5,0,6.8,0c0,1.7,0,3.3,0,5.1c-2.2,0-4.5,0-6.8,0
							C850,242.2,850,240.6,850,238.8z M856.9,252.8c-2.4,0-4.5,0-6.8,0c0-1.6,0-3.2,0-5c2.2,0,4.5,0,6.8,0
							C856.9,249.4,856.9,251,856.9,252.8z"/>
						<path d="M864.1,227.7c0-2.7-2.2-4.7-4.9-4.9c-0.3,0-0.6,0-0.9,0v-4.4h-31.6v4.4c-3.8,0.2-5.7,2.1-5.7,6.1c0,10.3,0,20.7,0,31
							c0,0.6,0.1,1.2,0.1,1.8H864c0.1-0.2,0.2-0.4,0.2-0.6C864.2,249.9,864.2,238.8,864.1,227.7z M850.7,224.4v-4.9h1v4h1.4v0.8v0.1
							L850.7,224.4L850.7,224.4z M846.5,224.4v-4.9h2.7v0.9h-1.8v0.9h1.8v0.9h-1.8v1.3h1.8v0.9v0.1L846.5,224.4L846.5,224.4z
							 M842.4,219.5h2.8v0.9h-0.9v4v0.1h-1v-0.1v-4h-0.9V219.5z M837,220.7c0.2-0.4,0.6-0.7,1-0.9c0.4-0.2,0.8-0.3,1.3-0.3
							c0.7,0,1.3,0.3,1.8,0.8c0.5,0.5,0.8,1.1,0.8,1.9c0,0.7-0.3,1.3-0.8,1.8c-0.3,0.3-0.6,0.4-0.9,0.6c-0.3,0.1-0.6,0.2-1,0.2
							c-0.3,0-0.7-0.1-1-0.2c-0.3-0.1-0.7-0.3-0.9-0.6c-0.5-0.5-0.7-1.1-0.7-1.8C836.6,221.5,836.8,221.1,837,220.7z M832.2,224.4
							v-4.9h1v1.9h1.7v-1.9h1v4.9v0.1h-1v-0.1v-2.1h-1.7v2.1v0.1L832.2,224.4L832.2,224.4z M860.6,258c-4.8,0-9.4,0-14.3,0
							c0-3.4,0-6.8,0-10.3c-2.5,0-4.8,0-7.3,0c0,3.5,0,6.9,0,10.4c-4.8,0-9.5,0-14.3,0c0-0.6-0.1-1.2-0.1-1.8c0-9.1,0-18.1,0-27.2
							c0-2.5,0.4-2.9,2.8-2.9c10.1,0,20.2,0,30.3,0c2.5,0,2.8,0.4,2.8,2.9c0,9.1,0,18.2,0,27.4C860.6,257,860.6,257.4,860.6,258z"/>
						<path d="M839.1,235c2.4,0,4.6,0,7,0c0-1.8,0-3.4,0-5c-2.4,0-4.7,0-7,0C839.1,231.7,839.1,233.3,839.1,235z"/>
						<path d="M839.2,243.9c2.4,0,4.6,0,6.9,0c0-1.9,0-3.5,0-5.1c-2.4,0-4.7,0-6.9,0C839.2,240.6,839.2,242.3,839.2,243.9z"/>
						<path d="M828.4,235c2.4,0,4.6,0,6.9,0c0-1.7,0-3.3,0-5.1c-2.4,0-4.6,0-6.9,0C828.4,231.7,828.4,233.3,828.4,235z"/>
						<path d="M856.8,229.9c-2.4,0-4.6,0-6.9,0c0,1.8,0,3.4,0,5.1c2.4,0,4.6,0,6.9,0C856.8,233.2,856.8,231.6,856.8,229.9z"/>
						<path d="M828.4,238.8c0,1.8,0,3.5,0,5.1c2.4,0,4.6,0,6.8,0c0-1.8,0-3.4,0-5.1C832.9,238.8,830.7,238.8,828.4,238.8z"/>
						<path d="M856.8,238.8c-2.3,0-4.5,0-6.8,0c0,1.8,0,3.4,0,5.1c2.4,0,4.6,0,6.8,0C856.8,242.1,856.8,240.5,856.8,238.8z"/>
						<path d="M828.4,252.7c2.3,0,4.5,0,6.9,0c0-1.8,0-3.4,0-5c-2.4,0-4.6,0-6.9,0C828.4,249.4,828.4,251,828.4,252.7z"/>
						<path d="M850,252.8c2.3,0,4.5,0,6.8,0c0-1.8,0-3.4,0-5c-2.4,0-4.6,0-6.8,0C850,249.5,850,251.1,850,252.8z"/>
						<path d="M839.3,223.7c0.5,0,0.8-0.2,1.2-0.5c0.3-0.3,0.5-0.7,0.5-1.2c0-0.5-0.2-0.9-0.5-1.2c-0.3-0.3-0.7-0.5-1.2-0.5
							c-0.5,0-0.9,0.2-1.2,0.5c-0.3,0.3-0.5,0.7-0.5,1.2c0,0.5,0.2,1,0.6,1.3C838.5,223.5,838.9,223.7,839.3,223.7z"/>
						<polygon class="st2" points="833.1,224.4 833.1,222.3 834.8,222.3 834.8,224.4 834.8,224.4 835.8,224.4 835.8,224.4 
							835.8,219.5 834.8,219.5 834.8,221.4 833.1,221.4 833.1,219.5 832.2,219.5 832.2,224.4 832.2,224.4 833.1,224.4 						"/>
						<path class="st2" d="M838.3,224.4c0.3,0.1,0.6,0.2,1,0.2c0.3,0,0.7-0.1,1-0.2c0.3-0.1,0.6-0.3,0.9-0.6
							c0.5-0.5,0.8-1.1,0.8-1.8c0-0.7-0.3-1.3-0.8-1.9c-0.5-0.5-1.1-0.8-1.8-0.8c-0.5,0-0.9,0.1-1.3,0.3c-0.4,0.2-0.7,0.5-1,0.9
							c-0.2,0.4-0.3,0.8-0.3,1.3c0,0.7,0.2,1.3,0.7,1.8C837.7,224.1,838,224.3,838.3,224.4z M838.1,220.8c0.3-0.3,0.7-0.5,1.2-0.5
							c0.5,0,0.9,0.2,1.2,0.5c0.3,0.3,0.5,0.7,0.5,1.2c0,0.5-0.2,0.9-0.5,1.2c-0.3,0.3-0.7,0.5-1.2,0.5c-0.4,0-0.8-0.1-1.1-0.4
							c-0.4-0.3-0.6-0.8-0.6-1.3C837.6,221.5,837.8,221.1,838.1,220.8z"/>
						<polygon class="st2" points="843.3,224.4 843.3,224.4 844.3,224.4 844.3,224.4 844.3,220.4 845.2,220.4 845.2,219.5 
							842.4,219.5 842.4,220.4 843.3,220.4 						"/>
						<polygon class="st2" points="849.3,224.4 849.3,223.5 847.5,223.5 847.5,222.2 849.3,222.2 849.3,221.3 847.5,221.3 
							847.5,220.4 849.3,220.4 849.3,219.5 846.5,219.5 846.5,224.4 846.5,224.4 849.3,224.4 						"/>
						<polygon class="st2" points="853.1,224.4 853.1,223.5 851.7,223.5 851.7,219.5 850.7,219.5 850.7,224.4 850.7,224.4 
							853.1,224.4 						"/>
					</g>
				</g>
			</g>
			<g>
				<g>
					<path d="M250.1,308.2c0-6.1,2.3-10.7,6-14.1c2.6-2.4,5.5-3.7,9.6-4.8c3.6-1,7.4-1.2,9.3-1.2c1.9,0,5.4,0.4,7.6,1.1
						c0.3,0.1,0.5,0.2,0.6,0l0.5-0.9c0.1-0.2,0.2-0.2,0.7-0.2l1.2,0.1c0.1,0,0.3,0.1,0.3,0.4c0.2,3.9,0.5,6.9,0.8,8.4
						c0.1,0.7,0.1,1.2,0.1,1.4c-0.1,0.1-0.2,0.2-0.7,0.2h-0.8c-0.2,0-0.4-0.1-0.6-0.5c-1.6-4.3-5.5-7.8-12.1-7.8
						c-3.3,0-6.8,0.8-10.2,3.8c-2.7,2.4-6.1,7.1-6.1,14.5c0,3.9,1.1,8.8,5.1,12.7c4.6,4.5,11.1,5.2,14.2,5.2c1.8,0,4.1-0.7,5-1.4
						c1.1-0.8,1.6-3.5,1.6-7.7c0-5.7-0.2-6.4-2.3-6.8c-0.6-0.1-3.2-0.4-3.8-0.5c-0.2-0.1-0.5-0.2-0.7-0.4c-0.2-0.3-0.2-0.8-0.3-1.1
						c0-0.3,0.1-0.5,0.3-0.5c3.4,0,6.1,0.2,8.6,0.2c3.2,0,5.2-0.2,6.1-0.2c0.1,0.1,0,2-0.1,2.3c-0.7,0-1.4,0.2-2.3,0.3
						c-0.1,0.5-0.4,4.7-0.4,14.8c0,1.1-0.3,1.5-0.9,2.1c-0.5,0.5-1.4,0.5-1.7,0.5c-1.4,0-2.3,0-4.7,0.2c-2.1,0.2-4,0.4-6.4,0.4
						c-7.8,0-13.5-2-17.6-5.9C252.5,319.3,250.1,314.5,250.1,308.2L250.1,308.2z"/>
					<path d="M293.7,289.6c-0.1-0.2,0.1-0.3,0.2-0.4c3.1-0.1,5.8-0.1,8.4-0.3c2.7-0.2,4.3-0.2,6-0.2c3.6,0,7.3,0.5,10.4,2.7
						c2.8,2,4.2,4.9,4.2,7.7c0,4.7-4,7.5-6.3,8.8c-0.4,0.2-0.5,0.5-0.4,0.9c0.3,1.2,1.5,4.8,4.1,8.7c2.7,4.2,5.7,7.3,10.8,9.7
						c0.6,0.3,0.7,0.5,0.6,0.8c-0.1,0.5-0.3,1.1-0.4,1.1c-5.3-0.5-9.1-2.3-12.5-5.5c-2.5-2.4-4.3-5.8-6.4-9.6
						c-1.4-2.7-2-3.3-5.7-3.3c-1.7,0-2.4,0.1-2.9,0.2c-0.4,0.1-0.8,0.4-0.8,0.9c0,4.5,0.1,8,0.2,11.5c0.1,0.9,0.3,1.4,0.6,1.5
						c0.6,0.6,3.2,1,4.6,1.3c0,0.3-0.3,1.3-0.4,1.5c-0.1,0.1-0.2,0.1-0.8,0.1c-0.7,0-5.5-0.1-8-0.1c-2.1,0-3.3,0.2-3.9,0.2
						c-0.8,0-0.9,0-0.9-0.1c-0.3-0.3-0.4-1.4-0.4-1.7c1.2-0.2,3-0.6,3.4-1.4c0.7-1,0.8-5.8,0.8-13v-7c0-3.5-0.1-7.7-0.1-10.6
						c-0.1-1.8-0.4-2.1-4.2-3.1L293.7,289.6z M317.1,299.2c0-4.6-3.5-8.6-8.9-8.6c-2,0-3.2,0.2-4,0.7c-0.5,0.2-0.7,0.6-0.8,1.1
						c-0.3,1.8-0.5,4.9-0.4,10.3c0,5.6,0.2,5.8,0.4,6c0.3,0.1,1,0.2,1.9,0.2c4.6,0,7.4-0.7,9.3-2.9
						C316.1,304.1,317.1,301.8,317.1,299.2L317.1,299.2z"/>
					<path d="M352.8,288.1c10.8,0,20.6,8.6,20.6,19.5c0,7.4-3.6,12.8-6.7,15.9c-4.1,4-9.5,5.4-12.7,5.4c-6.3,0-13.2-2.9-17.2-7.4
						c-3-3.3-5-8.6-5-13.5c0-5,2-10.3,6.7-14.5C342.2,290.1,347.6,288.1,352.8,288.1L352.8,288.1z M350.9,290.3
						c-2.8,0-5.8,1.1-8.9,4.3c-3.2,3.6-4,9-4,12.8c0,5.5,2,10.4,5.2,13.7c3.9,4,7.7,5.5,11.7,5.5c6.1,0,12.7-5.3,12.7-16.4
						c0-5.3-1.4-10.7-5.5-15.1C359.6,292.5,355.9,290.3,350.9,290.3L350.9,290.3z"/>
					<path d="M418.2,291c-0.5,0.1-1.6,0.3-2.3,0.4c-0.2,0.1-0.6,0.4-0.8,1c-0.4,1.4-0.6,4.9-0.9,15.3c-0.2,6.8-0.6,10.5-3.3,14.5
						c-2.9,4.2-8.4,6.7-13.6,6.7c-5.5,0-9.8-2.3-11.7-4.2c-3.1-3.2-3.9-7.1-4-11.4c-0.1-3-0.1-6.8,0.1-11.7c0.2-6.6,0.2-8.3,0-9.2
						c-0.3-1.1-1.2-1.4-3.9-1.7l0.1-1.4c0.1-0.4,0.2-0.4,1.1-0.4c1.3,0,4.5,0.2,5.7,0.2c2.7-0.1,5.1-0.2,7.8-0.2
						c0.3,0,0.4,0,0.4,0.2c0,0.2-0.1,1.5-0.2,1.6c-3.9,0.5-4.8,0.8-5.2,2.3c-0.2,0.8-0.4,2.3-0.5,6.1c-0.1,3.3-0.2,9.2-0.2,13.2
						c0,5.2,1.6,8.6,4,10.5c2.1,1.8,5.4,2.7,8.8,2.7c5.2,0,7.5-2,8.9-3.7c2.3-3.1,3.1-7.4,3.1-13.8c0-6.3,0.1-12.1-0.2-14.6
						c-0.2-2-1.2-2.1-5.7-2.1c-0.2,0-0.5-0.4-0.4-0.7c0.2-0.3,0.5-0.8,0.7-1.1c0.2-0.2,0.4-0.2,1.4-0.2c0.5,0,3.7,0.1,5.2,0.1
						c1.9,0,4.7-0.1,6.2-0.2c0.3,0,0.3,0.2,0.2,0.4L418.2,291z"/>
					<path d="M421.6,326.2c3.2-0.5,4.2-0.7,4.5-2.9c0.1-1,0.3-3.9,0.3-9.4v-9.6c0-6.6-0.1-11-0.8-12.3c-0.5-0.9-0.8-1.1-3.9-1.1
						c-0.3,0-0.4-0.1-0.4-0.5c0-0.3,0.4-1.2,0.5-1.5c1.1,0,4.4,0.2,6.5,0.2c1.5,0,7.2-0.1,8.2-0.1c3.2,0,7.6,0.5,11.5,3.5
						c3.4,2.5,4.3,6.5,4.3,8.2c0,3.9-1.5,6.2-4,8.7c-3.4,3.5-9.3,4.6-13.9,4.6c-1.1,0-2.1,0-2.9,0c-0.2,0-0.5,0.1-0.5,1.6
						c0,1.7,0.1,4.3,0.4,6.6c0.1,1.7,0.5,2.6,2.1,3c0.5,0.2,2.1,0.4,3.9,0.8c0.4,0.1,0.5,0.1,0.5,0.4c0,0.8-0.1,1.2-0.2,1.5
						c-5.3,0-8.2-0.1-9.5-0.1c-2.6,0-4.5,0.1-6.1,0.2c-0.2,0-0.3,0-0.4-0.4L421.6,326.2z M446.5,301.2c0-1.1,0.2-10.2-10.5-10.2
						c-2.6,0-3.6,0.4-3.9,0.7c-0.3,0.1-0.5,0.5-0.6,1.4c-0.1,2.1-0.4,13.9-0.4,17.3c0,0.8,0.1,0.9,0.7,1.1c0.7,0.3,1.8,0.5,3,0.5
						c1.5,0,3.8-0.2,5.1-0.7C443.1,310.1,446.5,306.8,446.5,301.2L446.5,301.2z"/>
					<path d="M470.8,329.2c-0.1,0-0.3-0.1-0.5-0.4c-0.2-0.4-0.4-1.1-0.4-2.1c-0.1-3-0.5-6-0.9-8.8c-0.2-0.4-0.1-0.5,0.2-0.6
						c0.4-0.1,1-0.2,1.3-0.2c0.3,0,0.4,0.1,0.6,0.7c0.2,1,0.7,2.4,1.7,3.8c1.9,2.8,5.9,5.1,9.8,5.1c5.3,0,9-3.4,9-8.3
						c0-2.1-1-3.8-2.7-5c-1.2-0.9-2.7-1.8-7.4-3.5c-4.1-1.6-7-3-8.9-5.2c-1.2-1.4-2.2-3.9-2.2-6c0-4.3,2.1-7,5-8.5
						c1.4-0.8,4.9-2,8.7-2c1.7,0,4.6,0.3,5.7,0.5c0.8,0.2,1.3,0.2,1.7,0.2c0.4,0,0.9-0.5,1.4-1.2c0.6-0.1,1.4,0,1.5,0.1
						c-0.2,3.3,0,6.2,0.5,9.3c0.1,0.3,0,0.6-0.2,0.7c-0.2,0.2-0.9,0.5-1.4,0.7c-0.2,0.1-0.2-0.1-0.4-0.3c-0.7-2.2-1.1-4.2-2.9-5.5
						c-1.2-1.2-4.2-2.3-7.2-2.3c-4.5,0-7.4,2.9-7.4,6.8c0,1.9,0.8,3.4,1.6,4.3c1.5,1.5,3.2,2.6,7.6,4.1c4.2,1.5,7.1,3,8.9,4.6
						c2.4,2.1,3.2,4.4,3.2,7.2c0,4.3-2.2,7.5-5.2,9.2c-2.7,1.4-7.9,2.1-9.9,2.1c-2.6,0-5.2-0.4-7.7-0.9c-0.5-0.1-0.8,0-1.1,0.1
						c-0.4,0.2-0.8,0.4-1.2,0.8C471.3,329.1,471.1,329.2,470.8,329.2L470.8,329.2z"/>
					<path d="M514.7,307.2c2.7,0,4.7-0.1,6.2-0.2c3.6-0.2,3.9-0.5,4.6-4c0.2-0.2,1.6-0.3,1.9-0.2c-0.1,1.7-0.5,4.5-0.5,6.3
						c0.1,2,0.2,3.7,0.4,5.4c-0.5,0.1-1,0.2-1.4,0.2c-0.3,0.1-0.4-0.1-0.5-0.4c-0.2-0.7-0.5-1.6-0.7-2.3c-0.4-1.6-1.1-2.1-3.5-2.3
						c-1.3-0.1-3.3-0.1-6.3-0.1c-3,0-3.6,0.1-3.9,0.1c-0.2,0.1-0.4,0.1-0.6,0.4c-0.2,0.4-0.5,2.4-0.5,7.3c0,4.3,0,6,0.6,6.9
						c0.8,1.1,2.9,1.4,7.8,1.4c7,0,10.3-0.7,12.1-7c0.2-0.1,0.8,0,1.4,0.1c0.2,0.1,0.2,0.2,0.2,0.5c-0.1,2.7-1.1,6.6-1.8,8.3
						c-0.3,0.4-0.5,0.5-0.8,0.5c-0.4,0-0.8,0-2.8-0.1c-1.8-0.1-6-0.1-10.9-0.1c-4.8,0-9.5,0.2-14.2,0.4c-0.1-0.1-0.2-1.3-0.1-1.8
						c0-0.1,0.2-0.2,0.2-0.2c2.7-0.5,3-0.9,3-1.8c0.1-0.9,0.4-4.7,0.4-10.8v-10.3c0-7.9-0.4-10.5-0.4-10.9c-0.1-0.4-0.2-0.7-0.8-0.8
						c-0.6-0.2-1.7-0.4-3.2-0.8c-0.1-0.1-0.1-0.1-0.1-0.2l0.1-1.4c0-0.2,0-0.3,0.3-0.3h2.1c1.8,0,4.1,0.1,7.7,0.2h5.8
						c3.6,0,8-0.3,11-0.4c0.8,0,1.1,0.1,1.4,0.3c0.5,0.4,0.5,0.4,0.3,1.4c-0.5,2.6-0.5,6.1-0.5,7.6c-1.6,0-1.8-0.2-1.9-0.5
						c-0.8-4.3-1.2-6.4-5.9-6.4H517c-3.5,0-5.5,0.1-6.1,0.3c-0.8,0.2-0.9,0.8-0.9,2.2c0,4.2,0.1,8.3,0.1,12.5c0,0.5,0.4,1,0.8,1
						H514.7z"/>
					<path d="M535.8,289.6c-0.1-0.2,0.1-0.3,0.2-0.4c3.1-0.1,5.8-0.1,8.4-0.3c2.7-0.2,4.3-0.2,6-0.2c3.6,0,7.3,0.5,10.4,2.7
						c2.8,2,4.2,4.9,4.2,7.7c0,4.7-4.1,7.5-6.3,8.8c-0.4,0.2-0.5,0.5-0.4,0.9c0.3,1.2,1.5,4.8,4.1,8.7c2.7,4.2,5.7,7.3,10.8,9.7
						c0.6,0.3,0.7,0.5,0.6,0.8c-0.1,0.5-0.3,1.1-0.4,1.1c-5.3-0.5-9.1-2.3-12.5-5.5c-2.5-2.4-4.3-5.8-6.4-9.6
						c-1.4-2.7-2-3.3-5.7-3.3c-1.7,0-2.4,0.1-2.9,0.2c-0.4,0.1-0.8,0.4-0.8,0.9c0,4.5,0.1,8,0.2,11.5c0.1,0.9,0.3,1.4,0.6,1.5
						c0.6,0.6,3.2,1,4.6,1.3c0,0.3-0.3,1.3-0.4,1.5c-0.1,0.1-0.2,0.1-0.8,0.1c-0.7,0-5.5-0.1-8-0.1c-2.2,0-3.3,0.2-3.9,0.2
						c-0.8,0-0.9,0-1-0.1c-0.3-0.3-0.3-1.4-0.3-1.7c1.2-0.2,3-0.6,3.4-1.4c0.7-1,0.8-5.8,0.8-13v-7c0-3.5-0.1-7.7-0.1-10.6
						c-0.1-1.8-0.4-2.1-4.2-3.1L535.8,289.6z M559.3,299.2c0-4.6-3.5-8.6-8.9-8.6c-2,0-3.2,0.2-4,0.7c-0.5,0.2-0.7,0.6-0.8,1.1
						c-0.3,1.8-0.5,4.9-0.4,10.3c0,5.6,0.2,5.8,0.4,6c0.3,0.1,1,0.2,1.9,0.2c4.6,0,7.4-0.7,9.3-2.9
						C558.3,304.1,559.3,301.8,559.3,299.2L559.3,299.2z"/>
					<path d="M610.1,291.1c-0.5,0.1-0.9,0.1-1.4,0.5c-0.5,0.7-1.5,2.3-3.6,6.5c-1.6,3.3-8.3,18.1-11.3,25.2c-0.3,0.7-0.6,1.3-1.1,2
						c-0.5,0.8-1,2-1.5,3c-0.1,0.2-0.2,0.4-0.5,0.4c-0.6,0-1.1-0.1-1.2-0.5c-0.2-0.3-0.4-0.8-2.2-5.2c-5.6-13.6-9.6-23-11.7-27.1
						c-2.3-4.7-2.3-4.9-5.8-5.3l0.6-1.5c0.1-0.3,0.3-0.3,0.5-0.3c1.7,0.1,4.6,0.2,6.3,0.2c1.7,0,3.5-0.1,5.2-0.1
						c0.2,0,0.4,0.1,0.2,1.1c-0.1,0.6-0.2,0.7-0.5,0.8c-2.2,0.3-2.5,0.7-2.1,2c0.4,1.1,1.4,3.9,4.3,10.5c2.6,6,5.8,13.2,7.6,17
						c0.1,0.3,0.5,0.3,0.7,0.1c1.4-2.8,4.8-10.7,8-18.3c2.4-5.7,3.1-7.4,4-10.2c0.2-0.5-0.5-0.6-2-0.7l-1.9-0.1
						c-0.2,0-0.5-0.2-0.4-0.5c0.4-1.3,0.6-1.5,1.2-1.5c1.2,0,3.5,0.1,5.3,0.1c1.8,0,3.3-0.1,4.6-0.1c0.7,0,0.7,0.4,0.8,1.5
						c0,0.4-0.1,0.5-0.5,0.5L610.1,291.1z"/>
					<path d="M631.9,290.8c-5.4,0.5-5.9,0.9-6.1,2c-0.2,1.1-0.4,3.3-0.4,10.3V315c0,3.6,0.1,6.5,0.3,8.6c0.1,1.5,0.6,1.7,1.5,1.9
						c0.6,0.1,2.6,0.3,3.1,0.4c0.4,0.1,0.7,0.2,0.7,0.4c0,0.4-0.4,1.5-0.5,1.7c-4.8-0.1-7.3-0.2-9.5-0.1c-2.6,0-5.7,0.2-5.8,0.2
						c-0.4,0-0.7-0.2-0.7-0.5c-0.2-0.6-0.3-1.1-0.2-1.5c4.2-0.1,5.5-0.4,5.8-2c0.1-1,0.4-3,0.4-9.7v-14.2c0-7.8-0.1-8.4-2.1-8.8
						c-0.7-0.1-1.6-0.2-3.2-0.2c-0.2,0-0.4-0.2-0.4-0.4c0-0.2,0.1-0.4,0.3-0.9c0.2-0.4,0.3-0.5,0.5-0.6c0.5-0.1,0.8-0.1,1.5-0.1
						c0.7,0,2.7,0.1,5.8,0.1c3.1-0.1,7.1-0.1,7.7-0.1c0.8,0,0.8,0.1,0.9,0.2L631.9,290.8z"/>
					<path d="M634.4,308.8c0-4.1,1.1-9.5,5.1-14c3-3.3,7.3-4.8,10.8-5.7c2.6-0.7,6.1-1,8.6-1c2.7,0,5.9,0.6,7.3,1.2
						c0.8,0.2,1.2,0.1,2.4-0.5c0.2-0.1,0.3,0,0.7,0.1c0.6,0.2,0.7,0.3,0.7,0.5c-1.2,2.4-1.3,5.8-1,9c0,0.1-0.5,0.2-0.9,0.3
						c-0.8,0.2-1,0.1-1.1-0.2c-0.2-1-0.7-2.6-1.1-3.7c-0.4-1.1-0.7-1.7-1.8-2.5c-1-0.7-4-2-8-2c-4.1,0-8.2,1.7-11.4,5.5
						c-2.3,2.9-4.1,7.4-4.1,13.4c0,6.5,3.6,17.5,16.9,17.5c4.3,0,6.8-1.8,8.6-3.6c1.5-1.5,2.3-3,2.8-4.3c0.1-0.2,0.2-0.4,0.5-0.1
						c0.6,0.4,0.9,0.8,0.8,1.2c-0.7,2.7-2.1,6.1-2.9,7.3c-0.4,0.5-0.6,0.7-1.1,0.7c-1.8,0.1-6.4,1-9.5,1
						C640.8,328.9,634.4,318.2,634.4,308.8L634.4,308.8z"/>
					<path d="M688.2,307.2c2.7,0,4.7-0.1,6.2-0.2c3.6-0.2,3.9-0.5,4.6-4c0.2-0.2,1.6-0.3,1.9-0.2c-0.1,1.7-0.5,4.5-0.5,6.3
						c0.1,2,0.2,3.7,0.4,5.4c-0.5,0.1-1,0.2-1.4,0.2c-0.3,0.1-0.4-0.1-0.5-0.4c-0.2-0.7-0.5-1.6-0.7-2.3c-0.4-1.6-1.1-2.1-3.5-2.3
						c-1.3-0.1-3.3-0.1-6.3-0.1c-3,0-3.6,0.1-3.9,0.1c-0.2,0.1-0.4,0.1-0.6,0.4c-0.2,0.4-0.5,2.4-0.5,7.3c0,4.3,0,6,0.6,6.9
						c0.8,1.1,2.9,1.4,7.8,1.4c7,0,10.3-0.7,12.1-7c0.2-0.1,0.8,0,1.4,0.1c0.2,0.1,0.2,0.2,0.2,0.5c-0.1,2.7-1.1,6.6-1.8,8.3
						c-0.3,0.4-0.5,0.5-0.8,0.5c-0.4,0-0.8,0-2.8-0.1c-1.8-0.1-5.9-0.1-10.9-0.1c-4.8,0-9.5,0.2-14.2,0.4c-0.1-0.1-0.2-1.3-0.1-1.8
						c0-0.1,0.2-0.2,0.2-0.2c2.7-0.5,3-0.9,3-1.8c0.1-0.9,0.4-4.7,0.4-10.8v-10.3c0-7.9-0.4-10.5-0.4-10.9c-0.1-0.4-0.2-0.7-0.8-0.8
						c-0.6-0.2-1.7-0.4-3.2-0.8c-0.1-0.1-0.1-0.1-0.1-0.2l0.1-1.4c0-0.2,0-0.3,0.3-0.3h2.1c1.8,0,4.1,0.1,7.7,0.2h5.8
						c3.6,0,8-0.3,11-0.4c0.8,0,1.1,0.1,1.4,0.3c0.5,0.4,0.5,0.4,0.3,1.4c-0.5,2.6-0.5,6.1-0.5,7.6c-1.6,0-1.8-0.2-1.8-0.5
						c-0.8-4.3-1.2-6.4-5.9-6.4h-4.1c-3.5,0-5.5,0.1-6.1,0.3c-0.8,0.2-0.9,0.8-0.9,2.2c0,4.2,0.1,8.3,0.1,12.5c0,0.5,0.4,1,0.8,1
						H688.2z"/>
					<path d="M711,329.2c-0.1,0-0.3-0.1-0.5-0.4c-0.2-0.4-0.4-1.1-0.4-2.1c-0.1-3-0.5-6-1-8.8c-0.2-0.4-0.1-0.5,0.2-0.6
						c0.4-0.1,1-0.2,1.3-0.2c0.3,0,0.4,0.1,0.6,0.7c0.2,1,0.7,2.4,1.7,3.8c1.9,2.8,5.9,5.1,9.8,5.1c5.3,0,9-3.4,9-8.3
						c0-2.1-1-3.8-2.7-5c-1.2-0.9-2.7-1.8-7.4-3.5c-4.1-1.6-7-3-8.9-5.2c-1.2-1.4-2.2-3.9-2.2-6c0-4.3,2.1-7,5-8.5
						c1.4-0.8,4.9-2,8.8-2c1.7,0,4.6,0.3,5.7,0.5c0.8,0.2,1.3,0.2,1.7,0.2c0.4,0,1-0.5,1.4-1.2c0.6-0.1,1.4,0,1.5,0.1
						c-0.2,3.3,0,6.2,0.5,9.3c0.1,0.3,0,0.6-0.2,0.7c-0.2,0.2-0.9,0.5-1.4,0.7c-0.2,0.1-0.2-0.1-0.4-0.3c-0.7-2.2-1.1-4.2-2.8-5.5
						c-1.2-1.2-4.2-2.3-7.2-2.3c-4.5,0-7.4,2.9-7.4,6.8c0,1.9,0.8,3.4,1.6,4.3c1.5,1.5,3.2,2.6,7.6,4.1c4.2,1.5,7.1,3,8.9,4.6
						c2.4,2.1,3.1,4.4,3.1,7.2c0,4.3-2.2,7.5-5.2,9.2c-2.7,1.4-7.9,2.1-9.9,2.1c-2.6,0-5.2-0.4-7.7-0.9c-0.5-0.1-0.8,0-1.1,0.1
						c-0.4,0.2-0.8,0.4-1.2,0.8C711.5,329.1,711.3,329.2,711,329.2L711,329.2z"/>
					<path d="M776.7,290.8c-5.3,0.5-5.9,0.9-6.1,2c-0.2,1.1-0.4,3.3-0.4,10.3V315c0,3.6,0.1,6.5,0.3,8.6c0.1,1.5,0.6,1.7,1.5,1.9
						c0.6,0.1,2.6,0.3,3.1,0.4c0.4,0.1,0.7,0.2,0.7,0.4c0,0.4-0.4,1.5-0.5,1.7c-4.8-0.1-7.3-0.2-9.5-0.1c-2.6,0-5.7,0.2-5.8,0.2
						c-0.4,0-0.7-0.2-0.7-0.5c-0.2-0.6-0.3-1.1-0.2-1.5c4.2-0.1,5.5-0.4,5.8-2c0.1-1,0.4-3,0.4-9.7v-14.2c0-7.8-0.1-8.4-2.1-8.8
						c-0.7-0.1-1.6-0.2-3.2-0.2c-0.2,0-0.4-0.2-0.4-0.4c0-0.2,0.1-0.4,0.3-0.9c0.2-0.4,0.3-0.5,0.5-0.6c0.5-0.1,0.8-0.1,1.6-0.1
						c0.7,0,2.7,0.1,5.8,0.1c3.1-0.1,7.1-0.1,7.7-0.1c0.8,0,0.8,0.1,0.9,0.2L776.7,290.8z"/>
					<path d="M779.6,288.9c2.7,0.1,4,0.2,8.3,0.2c0.4,0,0.7,0.1,0.8,0.2c0.2,0.2,0.5,0.7,0.7,1.1c0.4,0.8,2.5,3.5,3.9,4.8
						c3.6,3.6,12.3,12.3,24.1,23.4c0.1-1.9,0.1-7.3,0.1-11.7c0-6.2-0.1-9.4-0.3-12.4c-0.1-1-0.2-2.5-1.5-2.9
						c-0.7-0.2-2.3-0.4-3.5-0.5c-0.2-0.1-0.3-0.1-0.3-0.3l-0.1-1.7c2.3,0,4.5,0,6.7,0c2.3,0,4.7-0.2,6.5-0.2c0.3,0,0.5,0.1,0.5,0.3
						l0.4,1.3c-2.1,0.5-3,0.7-3.9,1.3c-1.1,0.7-1.5,2.6-1.8,10.7c-0.1,5.4-0.2,9.2-0.2,17.2c0,3.8,0.2,7.3,0.2,8.3
						c-0.1,0.4-0.4,0.7-1.2,0.9c-0.3,0.1-0.5,0.1-0.8-0.3c-3.5-5.2-9-10.8-15.3-17c-4.9-4.9-9.6-9.6-14.5-14.5
						c-0.2,3.3-0.3,7.6-0.3,10.9c0,5.4,0,13.5,0.7,15.7c0.5,1.4,2.3,1.8,4.8,2.3l0.4,1.4c0.1,0.2-0.3,0.5-0.5,0.5
						c-2.5,0-5.1-0.2-7.6-0.2c-2.1,0-3.9,0.2-4.9,0.2c-0.1-0.6-0.3-1.2-0.5-1.7c3.8-1,4-1.6,4.3-3.6c0.2-1.5,0.7-7,0.7-15.4v-6.6
						c0-6.1-0.1-7.1-1.1-8c-1-1-1.9-1.5-4.4-1.8c-0.4-0.1-0.5-0.2-0.5-0.4V288.9z"/>
					<path d="M829,308.8c0-4.1,1.1-9.5,5.1-14c3-3.3,7.3-4.8,10.8-5.7c2.6-0.7,6.1-1,8.6-1c2.7,0,5.9,0.6,7.3,1.2
						c0.8,0.2,1.2,0.1,2.4-0.5c0.2-0.1,0.3,0,0.7,0.1c0.6,0.2,0.7,0.3,0.7,0.5c-1.2,2.4-1.3,5.8-1,9c0,0.1-0.5,0.2-0.9,0.3
						c-0.8,0.2-0.9,0.1-1.1-0.2c-0.2-1-0.7-2.6-1.1-3.7c-0.4-1.1-0.7-1.7-1.8-2.5c-1-0.7-4-2-8-2c-4.1,0-8.2,1.7-11.4,5.5
						c-2.3,2.9-4.1,7.4-4.1,13.4c0,6.5,3.6,17.5,16.9,17.5c4.3,0,6.8-1.8,8.6-3.6c1.6-1.5,2.3-3,2.8-4.3c0.1-0.2,0.2-0.4,0.5-0.1
						c0.6,0.4,0.9,0.8,0.8,1.2c-0.7,2.7-2.1,6.1-2.9,7.3c-0.3,0.5-0.6,0.7-1.1,0.7c-1.8,0.1-6.4,1-9.5,1
						C835.4,328.9,829,318.2,829,308.8L829,308.8z"/>
					<path d="M874.4,319.5c0.2,0,0.3,0.2,0.6,1.4c0.4,1.2,0.5,1.6,2.3,2.3c0.4,0.1,0.7,0.4,0.7,1.2c0,0.4-0.1,0.5-0.4,0.6
						c-2.1,0.5-2.3,0.7-3,3.5c-0.1,0.2-0.2,0.4-0.8,0.4c-0.9,0-1.1-0.7-2-2.6c-0.2-0.7-0.7-0.9-1.9-1.4c-0.6-0.2-0.8-0.8-0.8-1
						c0-0.5,0.6-1,1.1-1.1c1.6-0.3,1.8-0.5,2.5-2.3C872.9,319.8,873.5,319.5,874.4,319.5L874.4,319.5z"/>
				</g>
				<g>
					<path d="M742.9,337.5c-0.3,0.1-0.7,0.2-1,0.2c-0.3,0-0.5-0.2-0.5-0.4c0-0.2,0.2-0.4,0.4-0.6c0.9-0.8,3.2-2.9,3.2-5.4
						c0-0.7-0.6-1.2-0.9-1.3c-0.4-0.2-2.4-0.7-2.4-2.8c0-1.9,1.2-3.5,3.1-3.5c2.5,0,4.4,2.3,4.4,5.6
						C749.2,333.7,744.2,336.9,742.9,337.5z"/>
				</g>
			</g>
		</g>
	</g>
	<g>
		<path d="M696.1,117v2.4h-4.7v12.2h-2.9v-12.2h-4.7V117H696.1z M711.9,131.7l-0.5-8.6c-0.1-1.1-0.1-2.5-0.1-4.1h-0.2
			c-0.4,1.3-0.8,3-1.2,4.4l-2.6,8.1h-3l-2.6-8.3c-0.3-1.1-0.7-2.9-1-4.1h-0.2c0,1.3-0.1,2.7-0.1,4.1l-0.5,8.6h-2.8L698,117h4.4
			l2.5,7.2c0.3,1.1,0.6,2.2,1,3.7h0.1c0.4-1.3,0.7-2.6,1-3.7l2.5-7.2h4.2l1.1,14.6H711.9z"/>
	</g>
</g>
</svg>
