<svg width="899.2" height="392.8" xmlns="http://www.w3.org/2000/svg">
 <style type="text/css">.st0{fill:#BE1E2D;}
	.st1{fill:none;}
	.st2{fill:#FFFFFF;}</style>

 <g>
  <title>background</title>
  <rect fill="none" id="canvas_background" height="402" width="582" y="-1" x="-1"/>
 </g>
 <g>
  <title>Layer 1</title>
  <g fill="white" id="svg_1">
   <g id="svg_2">
    <g id="svg_3">
     <g id="svg_4">
      <g id="svg_5">
       <path id="svg_6" d="m62.2,119.9c0,0.5 -0.5,1.2 -1.2,1.9c-3,0.7 -5.6,1.4 -10,3c-2.8,0.9 -3.9,2.1 -2.3,4.9c10.9,20.2 27.9,46.9 29.5,49.7c1.4,2.1 3,3.9 4.2,5.8c0.9,1.2 2.1,1.2 3.3,-0.5c17.2,-23 25.8,-36 29.7,-41.8c3.3,-5.1 6.3,-11.8 6.3,-13.9c0,-2.1 -2.3,-4.4 -14.6,-7l0.2,-0.9c0.2,-0.7 0.9,-1.2 3,-1.2c3.5,0 8.4,0.7 16.7,0.5c9.1,-0.2 15.8,-0.7 18.1,-0.7c2.1,0 3,0 3.7,0.7c0.2,0.5 0.5,1.2 0,1.6c-10.4,2.1 -13.5,4.9 -23,16.5c-15.6,19.3 -30.7,40.2 -36.7,50.6c-2.5,4.2 -3,5.8 -3,14.9l0,17.6c0,11.2 0.2,21.1 0.7,28.3c0.9,10.2 2.1,11.2 20.9,15.1c0.2,0.5 0.2,1.2 0,1.6c-0.5,0.7 -1.6,0.9 -4.6,0.9c-7.9,-0.2 -17.7,-1.4 -29.5,-1.4c-8.4,0 -14.4,1.2 -22.3,1.2c-1.9,0 -2.1,-0.2 -2.3,-0.5c-0.2,-0.5 -0.5,-0.9 -0.5,-1.2c0,-0.5 0.2,-0.7 0.7,-0.9c9.1,-1.2 15.3,-3.5 17.2,-7.4c1.4,-2.8 2.3,-8.6 2.3,-30.4l0,-26.5c0,-3.5 -1.6,-6.7 -4.9,-12.8c-23.7,-41.1 -34.6,-56.2 -36.9,-59c-2.3,-2.8 -4.6,-4.9 -12.5,-6.7c-1.2,-0.2 -1.9,-0.7 -1.9,-0.9c0,-0.5 0.2,-0.9 0.5,-1.2c0.5,-0.2 1.2,-0.5 3,-0.5c7.7,0 18.1,0.9 23.7,0.9c3.7,0 9.1,-0.5 12.5,-0.9c3,-0.2 6.7,-0.5 8.6,-0.5c1.2,0 1.4,0 1.4,0.7l0,0.4z"/>
       <path id="svg_7" d="m222.7,116.2c39.2,0 76.2,32.3 76.2,73.9c0,28.6 -13.7,48.5 -25.5,60.4c-15.6,15.1 -35.8,20 -46.9,20c-24.6,0 -47.2,-9.3 -63.2,-26.9c-11.6,-13.2 -18.8,-33 -18.8,-50.9c0,-20.2 7.7,-40.4 25.5,-55.5c15.6,-13.5 33.7,-20.9 52.5,-20.9l0.2,0l0,-0.1zm-6.1,5.1c-13.7,0 -24.4,4.4 -34.8,15.8c-12.8,13.5 -16,33.9 -16,51.6c0,20.9 7.4,41.8 20,55.3c14.4,15.3 28.3,20.9 43.9,20.9c27.9,0 48.8,-20.4 48.8,-66.2c0,-20.4 -5.6,-41.6 -21.1,-59.5c-9.1,-10.2 -21.6,-17.9 -40.4,-17.9l-0.4,0z"/>
       <path id="svg_8" d="m422.9,234c0.5,0 1.2,0.9 1.6,1.6c0.2,0.7 0.5,1.4 -0.2,3.5c-2.8,8.1 -4.9,14.6 -6.5,23.9c-0.5,2.8 -1.4,3.5 -3.5,3.9c-2.3,0.2 -4.9,0.2 -14.2,0.2c-7.2,0 -20.4,-0.7 -56.4,-0.9c-8.4,0 -17.4,0.9 -24.4,1.6c-2.3,0.2 -3.5,0.2 -4.4,0c-0.5,-0.5 -0.7,-1.4 -0.5,-1.9c7.2,-2.3 13.9,-4.4 15.6,-12.3c0.7,-3.5 1.4,-11.4 1.4,-34.8l0,-50.4c0,-19.3 -0.5,-31.8 -0.9,-36.9c-0.2,-4.7 -1.6,-6.3 -13.9,-9.5c-0.7,-0.2 -0.7,-0.7 -0.5,-1.2l0,-0.2c0.5,-0.5 0.9,-0.7 2.1,-0.7c5.6,0 10.7,0.5 17.7,0.5c7.9,0 18.4,-1.2 28.8,-1.4c0.5,0.7 0.9,1.4 0.7,2.3c-13,3 -14.9,5.8 -15.6,12.8c-0.9,7.2 -1.4,21.6 -1.4,43.2l0,28.1c0,34.4 0.5,43.7 0.9,48.3c0.2,3 0.9,5.1 4.4,6.3c3.2,0.9 10.5,1.6 20.4,1.6c21.4,0 32.3,-1.4 39,-9.1c4.6,-5.1 7.2,-12.3 8.6,-17.7c0.2,-0.7 0.5,-0.9 0.9,-0.9l0.3,0l0,0.1z"/>
       <path id="svg_9" d="m545,234c0.5,0 1.2,0.9 1.6,1.6c0.2,0.7 0.5,1.4 -0.2,3.5c-2.8,8.1 -4.9,14.6 -6.5,23.9c-0.5,2.8 -1.4,3.5 -3.5,3.9c-2.3,0.2 -4.9,0.2 -14.2,0.2c-7.2,0 -20.4,-0.7 -56.4,-0.9c-8.4,0 -17.4,0.9 -24.4,1.6c-2.3,0.2 -3.5,0.2 -4.4,0c-0.5,-0.5 -0.7,-1.4 -0.5,-1.9c7.2,-2.3 13.9,-4.4 15.6,-12.3c0.7,-3.5 1.4,-11.4 1.4,-34.8l0,-50.4c0,-19.3 -0.5,-31.8 -0.9,-36.9c-0.2,-4.7 -1.6,-6.3 -13.9,-9.5c-0.7,-0.2 -0.7,-0.7 -0.5,-1.2l0,-0.2c0.5,-0.5 0.9,-0.7 2.1,-0.7c5.6,0 10.7,0.5 17.7,0.5c7.9,0 18.3,-1.2 28.8,-1.4c0.5,0.7 0.9,1.4 0.7,2.3c-13,3 -14.9,5.8 -15.6,12.8c-0.9,7.2 -1.4,21.6 -1.4,43.2l0,28.1c0,34.4 0.5,43.7 0.9,48.3c0.2,3 0.9,5.1 4.4,6.3c3.3,0.9 10.5,1.6 20.4,1.6c21.4,0 32.3,-1.4 39,-9.1c4.6,-5.1 7.2,-12.3 8.6,-17.7c0.2,-0.7 0.5,-0.9 0.9,-0.9l0.3,0l0,0.1z"/>
       <path id="svg_10" d="m631.2,116.2c39.3,0 76.2,32.3 76.2,73.9c0,28.6 -13.7,48.5 -25.6,60.4c-15.6,15.1 -35.8,20 -46.9,20c-24.6,0 -47.1,-9.3 -63.2,-26.9c-11.6,-13.2 -18.8,-33 -18.8,-50.9c0,-20.2 7.7,-40.4 25.5,-55.5c15.6,-13.5 33.7,-20.9 52.5,-20.9l0.3,0l0,-0.1zm-6.1,5.1c-13.7,0 -24.4,4.4 -34.8,15.8c-12.8,13.5 -16,33.9 -16,51.6c0,20.9 7.4,41.8 20,55.3c14.4,15.3 28.3,20.9 43.9,20.9c27.9,0 48.8,-20.4 48.8,-66.2c0,-20.4 -5.6,-41.6 -21.1,-59.5c-9.1,-10.2 -21.6,-17.9 -40.4,-17.9l-0.4,0z"/>
      </g>
      <polygon id="svg_11" points="204.3,95.5 301.7,16.2 304.8,150.5 285.9,53.1     " class="st0"/>
      <polygon id="svg_12" points="238.8,295.8 141.4,375.2 138.3,240.8 157.1,338.2     "/>
     </g>
     <g id="svg_13">
      <g id="svg_14">
       <g id="svg_15">
        <path id="svg_16" d="m789.1,248.4l0,0c-0.1,-0.1 -0.5,-0.7 -1.1,-1.5c-0.3,-0.4 -0.7,-0.9 -1.3,-1.3c-0.6,-0.4 -1.4,-0.8 -2.2,-1c-0.2,0 -0.4,0 -0.6,0c-1.1,0 -1.9,0.3 -2.7,0.7c-1.2,0.5 -2.4,1.2 -3.4,1.7c-0.3,0.2 -0.6,0.3 -0.9,0.5c-0.1,-0.2 -0.2,-0.4 -0.3,-0.6c-0.3,-0.5 -0.8,-1.1 -1.5,-1.5c-0.7,-0.4 -1.6,-0.6 -2.5,-0.6c-0.1,0 -0.1,0 -0.1,0c3.3,-5.8 8.8,-15.3 9.1,-16.2c0.5,-1.4 -0.6,-2.8 -0.6,-2.8l-3,-1.2l0,-7l-4.6,0l0,-3.8l-5.6,0l0,-4.7l-7.9,0l0,4.7l-6.1,0l0,3.8l-4.1,0l0,6.9l-3.2,1.3c0,0 -1.1,1.5 -0.6,2.8c0.4,1 6.5,11.8 9.8,17.4c-1,0.5 -1.9,1.1 -2.7,1.6c-0.5,0.3 -0.9,0.6 -1.2,0.8c-0.2,0.1 -0.3,0.2 -0.4,0.2c0,0 0,0 0,0c-0.1,0 -0.1,0 -0.1,0c-0.1,-0.1 -0.3,-0.3 -0.6,-0.9c-0.4,-0.8 -1,-1.6 -1.8,-2.1c-0.8,-0.5 -1.7,-0.7 -2.5,-0.7c-1.4,0 -2.5,0.4 -3.7,0.9c-2.3,0.9 -5.2,2 -5.2,2l1.7,4c0,0 2.9,-1.1 5.1,-2c1,-0.4 1.8,-0.6 2,-0.6c0,0 0,0 0,0c0,0 0.1,0.1 0.2,0.3c0.5,1 1.1,1.9 1.9,2.5c0.8,0.7 1.9,1 2.8,1c0.5,0 1,-0.1 1.4,-0.2c0.9,-0.3 1.4,-0.6 2,-1c0.9,-0.5 1.9,-1.2 2.8,-1.7c0.8,-0.4 1.5,-0.7 1.9,-0.7l0.1,0c0.1,0.2 0.2,0.6 0.4,1.1c0.1,0.4 0.2,0.8 0.6,1.3c0.2,0.3 0.4,0.6 0.8,0.9c0.4,0.3 1,0.5 1.5,0.5c0.1,0 0.1,0 0.2,0c0.7,0 1.1,-0.2 1.5,-0.3c1.4,-0.5 3,-1.4 4.6,-2.2c0.8,-0.4 1.6,-0.8 2.3,-1c0.6,-0.2 1.1,-0.3 1.2,-0.3l0,0c0,0 0,0 0,0l0,0c0.1,0 0.2,0 0.3,0c0.1,0.1 0.2,0.3 0.3,0.6c0.2,0.4 0.6,1 1.2,1.6c0.7,0.6 1.5,0.8 2.1,0.7c1.1,0 1.8,-0.4 2.6,-0.7c1.1,-0.5 2.3,-1.2 3.3,-1.7c0.5,-0.3 1,-0.5 1.3,-0.6c0.2,-0.1 0.3,-0.1 0.4,-0.1c0,0 0,0 0,0c0,0 0,0 0.1,0.1c0.2,0.1 0.5,0.6 0.9,1.2c0.4,0.6 1,1.5 2.4,2.1l1.7,-3.6l0,-0.6l0,0l0,0zm-25.5,-29.4l0,0.1l0,-0.1l-10.7,4.2l0,-2.7l4.3,0l0,-3.7l13.2,0l0,3.7l4.4,0l0,2.9l-11.2,-4.4z"/>
       </g>
       <path id="svg_17" d="m744.2,258.3c1,-0.4 1.8,-0.6 2,-0.6c0,0 0,0 0,0c0,0 0.1,0.1 0.2,0.3c0.5,1 1.1,1.9 1.9,2.5c0.8,0.6 1.9,1 2.8,1c0.5,0 1,-0.1 1.4,-0.2c0.9,-0.3 1.4,-0.6 2,-1c0.9,-0.6 1.9,-1.2 2.8,-1.7c0.8,-0.5 1.6,-0.7 1.9,-0.8c0.1,0.2 0.2,0.6 0.4,1.1c0.1,0.4 0.2,0.8 0.6,1.3c0.2,0.3 0.4,0.6 0.8,0.9c0.4,0.3 1,0.5 1.5,0.5c0.1,0 0.1,0 0.2,0c0.7,0 1.1,-0.2 1.5,-0.3c1.4,-0.5 3,-1.4 4.6,-2.2c0.8,-0.4 1.6,-0.8 2.3,-1c0.6,-0.2 1.1,-0.3 1.2,-0.3l0,0c0,0 0,0 0,0l0,0c0.1,0 0.2,0 0.3,0c0.1,0.1 0.2,0.3 0.3,0.7c0.2,0.4 0.6,1 1.2,1.6c0.7,0.6 1.5,0.7 2.1,0.7c1.1,0 1.8,-0.4 2.6,-0.7c1.1,-0.5 2.3,-1.2 3.3,-1.7c0.5,-0.3 1,-0.5 1.3,-0.6c0.2,-0.1 0.3,-0.1 0.4,-0.1c0,0 0,0 0,0c0,0 0,0 0.1,0c0.2,0.1 0.5,0.6 0.9,1.2c0.4,0.6 1,1.5 2.4,2.1l1.7,-3.6l0.2,-0.3l0,0l0,0l0,0c-0.1,-0.1 -0.5,-0.7 -1.1,-1.5c-0.3,-0.4 -0.7,-0.9 -1.3,-1.3c-0.6,-0.4 -1.4,-0.8 -2.2,-1c-0.2,0 -0.4,0 -0.6,0c-1.1,0 -1.9,0.4 -2.7,0.7c-1.2,0.5 -2.4,1.2 -3.4,1.7c-0.3,0.2 -0.6,0.3 -0.9,0.5c-0.1,-0.2 -0.2,-0.4 -0.3,-0.6c-0.3,-0.5 -0.8,-1.1 -1.5,-1.5c-0.7,-0.4 -1.6,-0.6 -2.5,-0.6c-0.1,0 -0.1,0 -0.2,0c-1.2,0 -2.2,0.4 -3.3,0.8c-1.6,0.6 -3.2,1.5 -4.5,2.1c-0.3,0.2 -0.6,0.3 -0.9,0.4c-0.1,-0.4 -0.4,-0.9 -0.7,-1.4c-0.5,-0.9 -1.8,-1.7 -3.2,-1.8c-0.2,0 -0.3,0 -0.5,0c-1.1,0 -2.1,0.3 -3,0.7c-1.3,0.6 -2.5,1.3 -3.5,2c-0.5,0.3 -0.9,0.6 -1.2,0.8c-0.2,0.1 -0.3,0.2 -0.4,0.2c0,0 0,0 0,0c-0.1,0 -0.1,0 -0.1,0c-0.1,-0.1 -0.3,-0.3 -0.6,-0.9c-0.4,-0.8 -1,-1.6 -1.8,-2.1c-0.8,-0.5 -1.7,-0.7 -2.5,-0.7c-1.4,0 -2.5,0.5 -3.7,0.9c-2.3,0.9 -5.2,2 -5.2,2l1.7,4c0.1,-0.2 3,-1.3 5.2,-2.2z"/>
       <path id="svg_18" d="m728,199.4l0,71.8l70.5,0l0,-1.7l0,-70.2l-70.5,0l0,0.1zm67.2,68.5l-63.8,0l0,-65.1l63.8,0l0,65.1z"/>
      </g>
      <g id="svg_19">
       <g id="svg_20">
        <path id="svg_21" d="m784.9,150.4c0,0 -1.7,-15.7 -2.3,-16.8c-0.6,-1.1 -1.7,-5.2 -17.2,-6.7c-1.7,-0.1 -3.3,-0.1 -4.4,0c-15.5,1.5 -16.6,5.6 -17.2,6.7c-0.6,1.1 -2.3,16.8 -2.3,16.8l0.1,22.4l3.8,0c0,0.1 0,0.1 0,0.2l0,2.7c0,1.8 1.4,3.3 3.2,3.3c1.8,0 3.2,-1.5 3.2,-3.3l0,-2.7c0,-0.1 0,-0.1 0,-0.2l22.8,0c0,0.1 0,0.1 0,0.2l0,2.7c0,1.8 1.4,3.3 3.2,3.3c1.8,0 3.2,-1.5 3.2,-3.3l0,-2.7c0,-0.1 0,-0.1 0,-0.2l3.8,0l0.1,-22.4zm-30.5,-19.7l17.6,0c0.8,0 1.5,0.7 1.5,1.5c0,0.8 -0.7,1.5 -1.5,1.5l-17.6,0c-0.8,0 -1.4,-0.7 -1.4,-1.5c0,-0.8 0.6,-1.5 1.4,-1.5zm-5.7,35.1c-1.7,0 -3.1,-1.4 -3.1,-3.2c0,-1.7 1.4,-3.2 3.1,-3.2c1.7,0 3.1,1.4 3.1,3.2c0,1.7 -1.4,3.2 -3.1,3.2zm14.6,-11.7c0,0 -0.1,0 -0.2,0c-1.8,0 -14.2,0 -15.9,0c-1.8,0 -1.2,-2.9 -1.2,-2.9s1.1,-8.6 1.6,-11.2c0.5,-2.6 2.1,-2.3 2.1,-2.3l13.5,0l0.2,0l13.5,0c0,0 1.6,-0.3 2.1,2.3c0.5,2.6 1.6,11.2 1.6,11.2s0.6,2.9 -1.2,2.9c-1.8,0 -14.3,0 -16.1,0zm14.6,11.7c-1.7,0 -3.1,-1.4 -3.1,-3.2c0,-1.7 1.4,-3.2 3.1,-3.2c1.7,0 3.1,1.4 3.1,3.2c0,1.7 -1.4,3.2 -3.1,3.2z"/>
       </g>
       <path id="svg_22" d="m728,117l0,71.8l70.5,0l0,-1.7l0,-70.1l-70.5,0zm67.2,68.5l-63.8,0l0,-65.1l63.8,0l0,65.1z"/>
      </g>
      <g id="svg_23">
       <path id="svg_24" d="m831.8,160l-7.2,-1l-3,3.6l7.4,3.9l4,8.1l3.5,-3.9l-0.5,-5.7l8.8,-9.1l10.9,21l4.4,-4.6l-6.6,-25.4l11.7,-12.2c1.3,-1.4 1.4,-3.6 0.1,-4.9c-1.3,-1.3 -3.4,-1.2 -4.8,0.2l-11.3,11.8l-25.7,-6.9l-4.5,4.5l21.5,11.6l-8.7,9z"/>
       <path id="svg_25" d="m807.4,117l0,71.8l70.4,0l0,-1.7l0,-70.1l-70.4,0zm67.1,68.5l-63.8,0l0,-65.1l63.8,0l0,65.1z"/>
      </g>
      <g id="svg_26">
       <path id="svg_27" d="m807.4,199.4l0,71.8l70.4,0l0,-1.7l0,-70.2l-70.4,0l0,0.1zm67.1,68.5l-63.8,0l0,-65.1l63.8,0l0,65.1z"/>
       <g id="svg_28">
        <polygon id="svg_29" points="828.2,215.8 831.2,214.2 834.2,215.8 833.6,212.4 836,210.1 832.7,209.6 831.2,206.5 829.7,209.6         826.4,210.1 828.8,212.4       "/>
        <polygon id="svg_30" points="839.6,215.8 842.6,214.2 845.6,215.8 845,212.4 847.4,210.1 844.1,209.6 842.6,206.5 841.1,209.6         837.8,210.1 840.2,212.4       "/>
        <polygon id="svg_31" points="851.1,215.8 854,214.2 857,215.8 856.4,212.4 858.8,210.1 855.5,209.6 854,206.5 852.5,209.6 849.2,210.1         851.6,212.4       "/>
       </g>
       <g id="svg_32">
        <path id="svg_33" d="m857.8,226.3c-10.1,0 -20.2,0 -30.3,0c-2.5,0 -2.8,0.4 -2.8,2.9c0,9.1 0,18.1 0,27.2c0,0.6 0.1,1.2 0.1,1.8c4.8,0 9.5,0 14.3,0c0,-3.5 0,-6.9 0,-10.4c2.5,0 4.7,0 7.3,0c0,3.6 0,7 0,10.3c4.9,0 9.6,0 14.3,0c0,-0.6 0,-1.1 0,-1.6c0,-9.1 0,-18.2 0,-27.4c-0.1,-2.4 -0.5,-2.8 -2.9,-2.8zm-22.6,26.4c-2.3,0 -4.5,0 -6.9,0c0,-1.7 0,-3.3 0,-5c2.3,0 4.5,0 6.9,0c0,1.6 0,3.2 0,5zm-6.8,-8.8c0,-1.7 0,-3.3 0,-5.1c2.3,0 4.5,0 6.8,0c0,1.7 0,3.3 0,5.1c-2.2,0 -4.4,0 -6.8,0zm6.9,-8.9c-2.3,0 -4.5,0 -6.9,0c0,-1.7 0,-3.3 0,-5.1c2.3,0 4.5,0 6.9,0c0,1.8 0,3.3 0,5.1zm10.8,8.9c-2.3,0 -4.5,0 -6.9,0c0,-1.7 0,-3.3 0,-5.1c2.2,0 4.5,0 6.9,0c0,1.6 0,3.3 0,5.1zm0,-8.9c-2.4,0 -4.6,0 -7,0c0,-1.7 0,-3.3 0,-5c2.3,0 4.6,0 7,0c0,1.6 0,3.2 0,5zm3.9,-5.1c2.3,0 4.5,0 6.9,0c0,1.7 0,3.3 0,5.1c-2.3,0 -4.5,0 -6.9,0c0,-1.7 0,-3.4 0,-5.1zm0,8.9c2.3,0 4.5,0 6.8,0c0,1.7 0,3.3 0,5.1c-2.2,0 -4.5,0 -6.8,0c0,-1.7 0,-3.3 0,-5.1zm6.9,14c-2.4,0 -4.5,0 -6.8,0c0,-1.6 0,-3.2 0,-5c2.2,0 4.5,0 6.8,0c0,1.6 0,3.2 0,5z" class="st1"/>
        <path id="svg_34" d="m864.1,227.7c0,-2.7 -2.2,-4.7 -4.9,-4.9c-0.3,0 -0.6,0 -0.9,0l0,-4.4l-31.6,0l0,4.4c-3.8,0.2 -5.7,2.1 -5.7,6.1c0,10.3 0,20.7 0,31c0,0.6 0.1,1.2 0.1,1.8l42.9,0c0.1,-0.2 0.2,-0.4 0.2,-0.6c0,-11.2 0,-22.3 -0.1,-33.4zm-13.4,-3.3l0,-4.9l1,0l0,4l1.4,0l0,0.8l0,0.1l-2.4,0l0,0zm-4.2,0l0,-4.9l2.7,0l0,0.9l-1.8,0l0,0.9l1.8,0l0,0.9l-1.8,0l0,1.3l1.8,0l0,0.9l0,0.1l-2.7,-0.1l0,0zm-4.1,-4.9l2.8,0l0,0.9l-0.9,0l0,4l0,0.1l-1,0l0,-0.1l0,-4l-0.9,0l0,-0.9zm-5.4,1.2c0.2,-0.4 0.6,-0.7 1,-0.9c0.4,-0.2 0.8,-0.3 1.3,-0.3c0.7,0 1.3,0.3 1.8,0.8c0.5,0.5 0.8,1.1 0.8,1.9c0,0.7 -0.3,1.3 -0.8,1.8c-0.3,0.3 -0.6,0.4 -0.9,0.6c-0.3,0.1 -0.6,0.2 -1,0.2c-0.3,0 -0.7,-0.1 -1,-0.2c-0.3,-0.1 -0.7,-0.3 -0.9,-0.6c-0.5,-0.5 -0.7,-1.1 -0.7,-1.8c0,-0.7 0.2,-1.1 0.4,-1.5zm-4.8,3.7l0,-4.9l1,0l0,1.9l1.7,0l0,-1.9l1,0l0,4.9l0,0.1l-1,0l0,-0.1l0,-2.1l-1.7,0l0,2.1l0,0.1l-1,-0.1l0,0zm28.4,33.6c-4.8,0 -9.4,0 -14.3,0c0,-3.4 0,-6.8 0,-10.3c-2.5,0 -4.8,0 -7.3,0c0,3.5 0,6.9 0,10.4c-4.8,0 -9.5,0 -14.3,0c0,-0.6 -0.1,-1.2 -0.1,-1.8c0,-9.1 0,-18.1 0,-27.2c0,-2.5 0.4,-2.9 2.8,-2.9c10.1,0 20.2,0 30.3,0c2.5,0 2.8,0.4 2.8,2.9c0,9.1 0,18.2 0,27.4c0.1,0.5 0.1,0.9 0.1,1.5z"/>
        <path id="svg_35" d="m839.1,235c2.4,0 4.6,0 7,0c0,-1.8 0,-3.4 0,-5c-2.4,0 -4.7,0 -7,0c0,1.7 0,3.3 0,5z"/>
        <path id="svg_36" d="m839.2,243.9c2.4,0 4.6,0 6.9,0c0,-1.9 0,-3.5 0,-5.1c-2.4,0 -4.7,0 -6.9,0c0,1.8 0,3.5 0,5.1z"/>
        <path id="svg_37" d="m828.4,235c2.4,0 4.6,0 6.9,0c0,-1.7 0,-3.3 0,-5.1c-2.4,0 -4.6,0 -6.9,0c0,1.8 0,3.4 0,5.1z"/>
        <path id="svg_38" d="m856.8,229.9c-2.4,0 -4.6,0 -6.9,0c0,1.8 0,3.4 0,5.1c2.4,0 4.6,0 6.9,0c0,-1.8 0,-3.4 0,-5.1z"/>
        <path id="svg_39" d="m828.4,238.8c0,1.8 0,3.5 0,5.1c2.4,0 4.6,0 6.8,0c0,-1.8 0,-3.4 0,-5.1c-2.3,0 -4.5,0 -6.8,0z"/>
        <path id="svg_40" d="m856.8,238.8c-2.3,0 -4.5,0 -6.8,0c0,1.8 0,3.4 0,5.1c2.4,0 4.6,0 6.8,0c0,-1.8 0,-3.4 0,-5.1z"/>
        <path id="svg_41" d="m828.4,252.7c2.3,0 4.5,0 6.9,0c0,-1.8 0,-3.4 0,-5c-2.4,0 -4.6,0 -6.9,0c0,1.7 0,3.3 0,5z"/>
        <path id="svg_42" d="m850,252.8c2.3,0 4.5,0 6.8,0c0,-1.8 0,-3.4 0,-5c-2.4,0 -4.6,0 -6.8,0c0,1.7 0,3.3 0,5z"/>
        <path id="svg_43" d="m839.3,223.7c0.5,0 0.8,-0.2 1.2,-0.5c0.3,-0.3 0.5,-0.7 0.5,-1.2c0,-0.5 -0.2,-0.9 -0.5,-1.2c-0.3,-0.3 -0.7,-0.5 -1.2,-0.5c-0.5,0 -0.9,0.2 -1.2,0.5c-0.3,0.3 -0.5,0.7 -0.5,1.2c0,0.5 0.2,1 0.6,1.3c0.3,0.2 0.7,0.4 1.1,0.4z"/>
        <polygon id="svg_44" points="833.1,224.4 833.1,222.3 834.8,222.3 834.8,224.4 834.8,224.4 835.8,224.4 835.8,224.4         835.8,219.5 834.8,219.5 834.8,221.4 833.1,221.4 833.1,219.5 832.2,219.5 832.2,224.4 832.2,224.4 833.1,224.4       " class="st2"/>
        <path id="svg_45" d="m838.3,224.4c0.3,0.1 0.6,0.2 1,0.2c0.3,0 0.7,-0.1 1,-0.2c0.3,-0.1 0.6,-0.3 0.9,-0.6c0.5,-0.5 0.8,-1.1 0.8,-1.8c0,-0.7 -0.3,-1.3 -0.8,-1.9c-0.5,-0.5 -1.1,-0.8 -1.8,-0.8c-0.5,0 -0.9,0.1 -1.3,0.3c-0.4,0.2 -0.7,0.5 -1,0.9c-0.2,0.4 -0.3,0.8 -0.3,1.3c0,0.7 0.2,1.3 0.7,1.8c0.2,0.5 0.5,0.7 0.8,0.8zm-0.2,-3.6c0.3,-0.3 0.7,-0.5 1.2,-0.5c0.5,0 0.9,0.2 1.2,0.5c0.3,0.3 0.5,0.7 0.5,1.2c0,0.5 -0.2,0.9 -0.5,1.2c-0.3,0.3 -0.7,0.5 -1.2,0.5c-0.4,0 -0.8,-0.1 -1.1,-0.4c-0.4,-0.3 -0.6,-0.8 -0.6,-1.3c0,-0.5 0.2,-0.9 0.5,-1.2z" class="st2"/>
        <polygon id="svg_46" points="843.3,224.4 843.3,224.4 844.3,224.4 844.3,224.4 844.3,220.4 845.2,220.4 845.2,219.5         842.4,219.5 842.4,220.4 843.3,220.4       " class="st2"/>
        <polygon id="svg_47" points="849.3,224.4 849.3,223.5 847.5,223.5 847.5,222.2 849.3,222.2 849.3,221.3 847.5,221.3         847.5,220.4 849.3,220.4 849.3,219.5 846.5,219.5 846.5,224.4 846.5,224.4 849.3,224.4       " class="st2"/>
        <polygon id="svg_48" points="853.1,224.4 853.1,223.5 851.7,223.5 851.7,219.5 850.7,219.5 850.7,224.4 850.7,224.4         853.1,224.4       " class="st2"/>
       </g>
      </g>
     </g>
     <g id="svg_49">
      <g id="svg_50">
       <path id="svg_51" d="m250.1,308.2c0,-6.1 2.3,-10.7 6,-14.1c2.6,-2.4 5.5,-3.7 9.6,-4.8c3.6,-1 7.4,-1.2 9.3,-1.2c1.9,0 5.4,0.4 7.6,1.1c0.3,0.1 0.5,0.2 0.6,0l0.5,-0.9c0.1,-0.2 0.2,-0.2 0.7,-0.2l1.2,0.1c0.1,0 0.3,0.1 0.3,0.4c0.2,3.9 0.5,6.9 0.8,8.4c0.1,0.7 0.1,1.2 0.1,1.4c-0.1,0.1 -0.2,0.2 -0.7,0.2l-0.8,0c-0.2,0 -0.4,-0.1 -0.6,-0.5c-1.6,-4.3 -5.5,-7.8 -12.1,-7.8c-3.3,0 -6.8,0.8 -10.2,3.8c-2.7,2.4 -6.1,7.1 -6.1,14.5c0,3.9 1.1,8.8 5.1,12.7c4.6,4.5 11.1,5.2 14.2,5.2c1.8,0 4.1,-0.7 5,-1.4c1.1,-0.8 1.6,-3.5 1.6,-7.7c0,-5.7 -0.2,-6.4 -2.3,-6.8c-0.6,-0.1 -3.2,-0.4 -3.8,-0.5c-0.2,-0.1 -0.5,-0.2 -0.7,-0.4c-0.2,-0.3 -0.2,-0.8 -0.3,-1.1c0,-0.3 0.1,-0.5 0.3,-0.5c3.4,0 6.1,0.2 8.6,0.2c3.2,0 5.2,-0.2 6.1,-0.2c0.1,0.1 0,2 -0.1,2.3c-0.7,0 -1.4,0.2 -2.3,0.3c-0.1,0.5 -0.4,4.7 -0.4,14.8c0,1.1 -0.3,1.5 -0.9,2.1c-0.5,0.5 -1.4,0.5 -1.7,0.5c-1.4,0 -2.3,0 -4.7,0.2c-2.1,0.2 -4,0.4 -6.4,0.4c-7.8,0 -13.5,-2 -17.6,-5.9c-3.5,-3.5 -5.9,-8.3 -5.9,-14.6l0,0z"/>
       <path id="svg_52" d="m293.7,289.6c-0.1,-0.2 0.1,-0.3 0.2,-0.4c3.1,-0.1 5.8,-0.1 8.4,-0.3c2.7,-0.2 4.3,-0.2 6,-0.2c3.6,0 7.3,0.5 10.4,2.7c2.8,2 4.2,4.9 4.2,7.7c0,4.7 -4,7.5 -6.3,8.8c-0.4,0.2 -0.5,0.5 -0.4,0.9c0.3,1.2 1.5,4.8 4.1,8.7c2.7,4.2 5.7,7.3 10.8,9.7c0.6,0.3 0.7,0.5 0.6,0.8c-0.1,0.5 -0.3,1.1 -0.4,1.1c-5.3,-0.5 -9.1,-2.3 -12.5,-5.5c-2.5,-2.4 -4.3,-5.8 -6.4,-9.6c-1.4,-2.7 -2,-3.3 -5.7,-3.3c-1.7,0 -2.4,0.1 -2.9,0.2c-0.4,0.1 -0.8,0.4 -0.8,0.9c0,4.5 0.1,8 0.2,11.5c0.1,0.9 0.3,1.4 0.6,1.5c0.6,0.6 3.2,1 4.6,1.3c0,0.3 -0.3,1.3 -0.4,1.5c-0.1,0.1 -0.2,0.1 -0.8,0.1c-0.7,0 -5.5,-0.1 -8,-0.1c-2.1,0 -3.3,0.2 -3.9,0.2c-0.8,0 -0.9,0 -0.9,-0.1c-0.3,-0.3 -0.4,-1.4 -0.4,-1.7c1.2,-0.2 3,-0.6 3.4,-1.4c0.7,-1 0.8,-5.8 0.8,-13l0,-7c0,-3.5 -0.1,-7.7 -0.1,-10.6c-0.1,-1.8 -0.4,-2.1 -4.2,-3.1l-0.2,-1.3zm23.4,9.6c0,-4.6 -3.5,-8.6 -8.9,-8.6c-2,0 -3.2,0.2 -4,0.7c-0.5,0.2 -0.7,0.6 -0.8,1.1c-0.3,1.8 -0.5,4.9 -0.4,10.3c0,5.6 0.2,5.8 0.4,6c0.3,0.1 1,0.2 1.9,0.2c4.6,0 7.4,-0.7 9.3,-2.9c1.5,-1.9 2.5,-4.2 2.5,-6.8l0,0z"/>
       <path id="svg_53" d="m352.8,288.1c10.8,0 20.6,8.6 20.6,19.5c0,7.4 -3.6,12.8 -6.7,15.9c-4.1,4 -9.5,5.4 -12.7,5.4c-6.3,0 -13.2,-2.9 -17.2,-7.4c-3,-3.3 -5,-8.6 -5,-13.5c0,-5 2,-10.3 6.7,-14.5c3.7,-3.4 9.1,-5.4 14.3,-5.4l0,0zm-1.9,2.2c-2.8,0 -5.8,1.1 -8.9,4.3c-3.2,3.6 -4,9 -4,12.8c0,5.5 2,10.4 5.2,13.7c3.9,4 7.7,5.5 11.7,5.5c6.1,0 12.7,-5.3 12.7,-16.4c0,-5.3 -1.4,-10.7 -5.5,-15.1c-2.5,-2.6 -6.2,-4.8 -11.2,-4.8l0,0z"/>
       <path id="svg_54" d="m418.2,291c-0.5,0.1 -1.6,0.3 -2.3,0.4c-0.2,0.1 -0.6,0.4 -0.8,1c-0.4,1.4 -0.6,4.9 -0.9,15.3c-0.2,6.8 -0.6,10.5 -3.3,14.5c-2.9,4.2 -8.4,6.7 -13.6,6.7c-5.5,0 -9.8,-2.3 -11.7,-4.2c-3.1,-3.2 -3.9,-7.1 -4,-11.4c-0.1,-3 -0.1,-6.8 0.1,-11.7c0.2,-6.6 0.2,-8.3 0,-9.2c-0.3,-1.1 -1.2,-1.4 -3.9,-1.7l0.1,-1.4c0.1,-0.4 0.2,-0.4 1.1,-0.4c1.3,0 4.5,0.2 5.7,0.2c2.7,-0.1 5.1,-0.2 7.8,-0.2c0.3,0 0.4,0 0.4,0.2c0,0.2 -0.1,1.5 -0.2,1.6c-3.9,0.5 -4.8,0.8 -5.2,2.3c-0.2,0.8 -0.4,2.3 -0.5,6.1c-0.1,3.3 -0.2,9.2 -0.2,13.2c0,5.2 1.6,8.6 4,10.5c2.1,1.8 5.4,2.7 8.8,2.7c5.2,0 7.5,-2 8.9,-3.7c2.3,-3.1 3.1,-7.4 3.1,-13.8c0,-6.3 0.1,-12.1 -0.2,-14.6c-0.2,-2 -1.2,-2.1 -5.7,-2.1c-0.2,0 -0.5,-0.4 -0.4,-0.7c0.2,-0.3 0.5,-0.8 0.7,-1.1c0.2,-0.2 0.4,-0.2 1.4,-0.2c0.5,0 3.7,0.1 5.2,0.1c1.9,0 4.7,-0.1 6.2,-0.2c0.3,0 0.3,0.2 0.2,0.4l-0.8,1.4z"/>
       <path id="svg_55" d="m421.6,326.2c3.2,-0.5 4.2,-0.7 4.5,-2.9c0.1,-1 0.3,-3.9 0.3,-9.4l0,-9.6c0,-6.6 -0.1,-11 -0.8,-12.3c-0.5,-0.9 -0.8,-1.1 -3.9,-1.1c-0.3,0 -0.4,-0.1 -0.4,-0.5c0,-0.3 0.4,-1.2 0.5,-1.5c1.1,0 4.4,0.2 6.5,0.2c1.5,0 7.2,-0.1 8.2,-0.1c3.2,0 7.6,0.5 11.5,3.5c3.4,2.5 4.3,6.5 4.3,8.2c0,3.9 -1.5,6.2 -4,8.7c-3.4,3.5 -9.3,4.6 -13.9,4.6c-1.1,0 -2.1,0 -2.9,0c-0.2,0 -0.5,0.1 -0.5,1.6c0,1.7 0.1,4.3 0.4,6.6c0.1,1.7 0.5,2.6 2.1,3c0.5,0.2 2.1,0.4 3.9,0.8c0.4,0.1 0.5,0.1 0.5,0.4c0,0.8 -0.1,1.2 -0.2,1.5c-5.3,0 -8.2,-0.1 -9.5,-0.1c-2.6,0 -4.5,0.1 -6.1,0.2c-0.2,0 -0.3,0 -0.4,-0.4l-0.1,-1.4zm24.9,-25c0,-1.1 0.2,-10.2 -10.5,-10.2c-2.6,0 -3.6,0.4 -3.9,0.7c-0.3,0.1 -0.5,0.5 -0.6,1.4c-0.1,2.1 -0.4,13.9 -0.4,17.3c0,0.8 0.1,0.9 0.7,1.1c0.7,0.3 1.8,0.5 3,0.5c1.5,0 3.8,-0.2 5.1,-0.7c3.2,-1.2 6.6,-4.5 6.6,-10.1l0,0z"/>
       <path id="svg_56" d="m470.8,329.2c-0.1,0 -0.3,-0.1 -0.5,-0.4c-0.2,-0.4 -0.4,-1.1 -0.4,-2.1c-0.1,-3 -0.5,-6 -0.9,-8.8c-0.2,-0.4 -0.1,-0.5 0.2,-0.6c0.4,-0.1 1,-0.2 1.3,-0.2c0.3,0 0.4,0.1 0.6,0.7c0.2,1 0.7,2.4 1.7,3.8c1.9,2.8 5.9,5.1 9.8,5.1c5.3,0 9,-3.4 9,-8.3c0,-2.1 -1,-3.8 -2.7,-5c-1.2,-0.9 -2.7,-1.8 -7.4,-3.5c-4.1,-1.6 -7,-3 -8.9,-5.2c-1.2,-1.4 -2.2,-3.9 -2.2,-6c0,-4.3 2.1,-7 5,-8.5c1.4,-0.8 4.9,-2 8.7,-2c1.7,0 4.6,0.3 5.7,0.5c0.8,0.2 1.3,0.2 1.7,0.2c0.4,0 0.9,-0.5 1.4,-1.2c0.6,-0.1 1.4,0 1.5,0.1c-0.2,3.3 0,6.2 0.5,9.3c0.1,0.3 0,0.6 -0.2,0.7c-0.2,0.2 -0.9,0.5 -1.4,0.7c-0.2,0.1 -0.2,-0.1 -0.4,-0.3c-0.7,-2.2 -1.1,-4.2 -2.9,-5.5c-1.2,-1.2 -4.2,-2.3 -7.2,-2.3c-4.5,0 -7.4,2.9 -7.4,6.8c0,1.9 0.8,3.4 1.6,4.3c1.5,1.5 3.2,2.6 7.6,4.1c4.2,1.5 7.1,3 8.9,4.6c2.4,2.1 3.2,4.4 3.2,7.2c0,4.3 -2.2,7.5 -5.2,9.2c-2.7,1.4 -7.9,2.1 -9.9,2.1c-2.6,0 -5.2,-0.4 -7.7,-0.9c-0.5,-0.1 -0.8,0 -1.1,0.1c-0.4,0.2 -0.8,0.4 -1.2,0.8c-0.3,0.4 -0.5,0.5 -0.8,0.5l0,0z"/>
       <path id="svg_57" d="m514.7,307.2c2.7,0 4.7,-0.1 6.2,-0.2c3.6,-0.2 3.9,-0.5 4.6,-4c0.2,-0.2 1.6,-0.3 1.9,-0.2c-0.1,1.7 -0.5,4.5 -0.5,6.3c0.1,2 0.2,3.7 0.4,5.4c-0.5,0.1 -1,0.2 -1.4,0.2c-0.3,0.1 -0.4,-0.1 -0.5,-0.4c-0.2,-0.7 -0.5,-1.6 -0.7,-2.3c-0.4,-1.6 -1.1,-2.1 -3.5,-2.3c-1.3,-0.1 -3.3,-0.1 -6.3,-0.1c-3,0 -3.6,0.1 -3.9,0.1c-0.2,0.1 -0.4,0.1 -0.6,0.4c-0.2,0.4 -0.5,2.4 -0.5,7.3c0,4.3 0,6 0.6,6.9c0.8,1.1 2.9,1.4 7.8,1.4c7,0 10.3,-0.7 12.1,-7c0.2,-0.1 0.8,0 1.4,0.1c0.2,0.1 0.2,0.2 0.2,0.5c-0.1,2.7 -1.1,6.6 -1.8,8.3c-0.3,0.4 -0.5,0.5 -0.8,0.5c-0.4,0 -0.8,0 -2.8,-0.1c-1.8,-0.1 -6,-0.1 -10.9,-0.1c-4.8,0 -9.5,0.2 -14.2,0.4c-0.1,-0.1 -0.2,-1.3 -0.1,-1.8c0,-0.1 0.2,-0.2 0.2,-0.2c2.7,-0.5 3,-0.9 3,-1.8c0.1,-0.9 0.4,-4.7 0.4,-10.8l0,-10.3c0,-7.9 -0.4,-10.5 -0.4,-10.9c-0.1,-0.4 -0.2,-0.7 -0.8,-0.8c-0.6,-0.2 -1.7,-0.4 -3.2,-0.8c-0.1,-0.1 -0.1,-0.1 -0.1,-0.2l0.1,-1.4c0,-0.2 0,-0.3 0.3,-0.3l2.1,0c1.8,0 4.1,0.1 7.7,0.2l5.8,0c3.6,0 8,-0.3 11,-0.4c0.8,0 1.1,0.1 1.4,0.3c0.5,0.4 0.5,0.4 0.3,1.4c-0.5,2.6 -0.5,6.1 -0.5,7.6c-1.6,0 -1.8,-0.2 -1.9,-0.5c-0.8,-4.3 -1.2,-6.4 -5.9,-6.4l-3.9,0c-3.5,0 -5.5,0.1 -6.1,0.3c-0.8,0.2 -0.9,0.8 -0.9,2.2c0,4.2 0.1,8.3 0.1,12.5c0,0.5 0.4,1 0.8,1l3.8,0z"/>
       <path id="svg_58" d="m535.8,289.6c-0.1,-0.2 0.1,-0.3 0.2,-0.4c3.1,-0.1 5.8,-0.1 8.4,-0.3c2.7,-0.2 4.3,-0.2 6,-0.2c3.6,0 7.3,0.5 10.4,2.7c2.8,2 4.2,4.9 4.2,7.7c0,4.7 -4.1,7.5 -6.3,8.8c-0.4,0.2 -0.5,0.5 -0.4,0.9c0.3,1.2 1.5,4.8 4.1,8.7c2.7,4.2 5.7,7.3 10.8,9.7c0.6,0.3 0.7,0.5 0.6,0.8c-0.1,0.5 -0.3,1.1 -0.4,1.1c-5.3,-0.5 -9.1,-2.3 -12.5,-5.5c-2.5,-2.4 -4.3,-5.8 -6.4,-9.6c-1.4,-2.7 -2,-3.3 -5.7,-3.3c-1.7,0 -2.4,0.1 -2.9,0.2c-0.4,0.1 -0.8,0.4 -0.8,0.9c0,4.5 0.1,8 0.2,11.5c0.1,0.9 0.3,1.4 0.6,1.5c0.6,0.6 3.2,1 4.6,1.3c0,0.3 -0.3,1.3 -0.4,1.5c-0.1,0.1 -0.2,0.1 -0.8,0.1c-0.7,0 -5.5,-0.1 -8,-0.1c-2.2,0 -3.3,0.2 -3.9,0.2c-0.8,0 -0.9,0 -1,-0.1c-0.3,-0.3 -0.3,-1.4 -0.3,-1.7c1.2,-0.2 3,-0.6 3.4,-1.4c0.7,-1 0.8,-5.8 0.8,-13l0,-7c0,-3.5 -0.1,-7.7 -0.1,-10.6c-0.1,-1.8 -0.4,-2.1 -4.2,-3.1l-0.2,-1.3zm23.5,9.6c0,-4.6 -3.5,-8.6 -8.9,-8.6c-2,0 -3.2,0.2 -4,0.7c-0.5,0.2 -0.7,0.6 -0.8,1.1c-0.3,1.8 -0.5,4.9 -0.4,10.3c0,5.6 0.2,5.8 0.4,6c0.3,0.1 1,0.2 1.9,0.2c4.6,0 7.4,-0.7 9.3,-2.9c1.5,-1.9 2.5,-4.2 2.5,-6.8l0,0z"/>
       <path id="svg_59" d="m610.1,291.1c-0.5,0.1 -0.9,0.1 -1.4,0.5c-0.5,0.7 -1.5,2.3 -3.6,6.5c-1.6,3.3 -8.3,18.1 -11.3,25.2c-0.3,0.7 -0.6,1.3 -1.1,2c-0.5,0.8 -1,2 -1.5,3c-0.1,0.2 -0.2,0.4 -0.5,0.4c-0.6,0 -1.1,-0.1 -1.2,-0.5c-0.2,-0.3 -0.4,-0.8 -2.2,-5.2c-5.6,-13.6 -9.6,-23 -11.7,-27.1c-2.3,-4.7 -2.3,-4.9 -5.8,-5.3l0.6,-1.5c0.1,-0.3 0.3,-0.3 0.5,-0.3c1.7,0.1 4.6,0.2 6.3,0.2c1.7,0 3.5,-0.1 5.2,-0.1c0.2,0 0.4,0.1 0.2,1.1c-0.1,0.6 -0.2,0.7 -0.5,0.8c-2.2,0.3 -2.5,0.7 -2.1,2c0.4,1.1 1.4,3.9 4.3,10.5c2.6,6 5.8,13.2 7.6,17c0.1,0.3 0.5,0.3 0.7,0.1c1.4,-2.8 4.8,-10.7 8,-18.3c2.4,-5.7 3.1,-7.4 4,-10.2c0.2,-0.5 -0.5,-0.6 -2,-0.7l-1.9,-0.1c-0.2,0 -0.5,-0.2 -0.4,-0.5c0.4,-1.3 0.6,-1.5 1.2,-1.5c1.2,0 3.5,0.1 5.3,0.1c1.8,0 3.3,-0.1 4.6,-0.1c0.7,0 0.7,0.4 0.8,1.5c0,0.4 -0.1,0.5 -0.5,0.5l-1.6,0z"/>
       <path id="svg_60" d="m631.9,290.8c-5.4,0.5 -5.9,0.9 -6.1,2c-0.2,1.1 -0.4,3.3 -0.4,10.3l0,11.9c0,3.6 0.1,6.5 0.3,8.6c0.1,1.5 0.6,1.7 1.5,1.9c0.6,0.1 2.6,0.3 3.1,0.4c0.4,0.1 0.7,0.2 0.7,0.4c0,0.4 -0.4,1.5 -0.5,1.7c-4.8,-0.1 -7.3,-0.2 -9.5,-0.1c-2.6,0 -5.7,0.2 -5.8,0.2c-0.4,0 -0.7,-0.2 -0.7,-0.5c-0.2,-0.6 -0.3,-1.1 -0.2,-1.5c4.2,-0.1 5.5,-0.4 5.8,-2c0.1,-1 0.4,-3 0.4,-9.7l0,-14.2c0,-7.8 -0.1,-8.4 -2.1,-8.8c-0.7,-0.1 -1.6,-0.2 -3.2,-0.2c-0.2,0 -0.4,-0.2 -0.4,-0.4c0,-0.2 0.1,-0.4 0.3,-0.9c0.2,-0.4 0.3,-0.5 0.5,-0.6c0.5,-0.1 0.8,-0.1 1.5,-0.1c0.7,0 2.7,0.1 5.8,0.1c3.1,-0.1 7.1,-0.1 7.7,-0.1c0.8,0 0.8,0.1 0.9,0.2l0.4,1.4z"/>
       <path id="svg_61" d="m634.4,308.8c0,-4.1 1.1,-9.5 5.1,-14c3,-3.3 7.3,-4.8 10.8,-5.7c2.6,-0.7 6.1,-1 8.6,-1c2.7,0 5.9,0.6 7.3,1.2c0.8,0.2 1.2,0.1 2.4,-0.5c0.2,-0.1 0.3,0 0.7,0.1c0.6,0.2 0.7,0.3 0.7,0.5c-1.2,2.4 -1.3,5.8 -1,9c0,0.1 -0.5,0.2 -0.9,0.3c-0.8,0.2 -1,0.1 -1.1,-0.2c-0.2,-1 -0.7,-2.6 -1.1,-3.7c-0.4,-1.1 -0.7,-1.7 -1.8,-2.5c-1,-0.7 -4,-2 -8,-2c-4.1,0 -8.2,1.7 -11.4,5.5c-2.3,2.9 -4.1,7.4 -4.1,13.4c0,6.5 3.6,17.5 16.9,17.5c4.3,0 6.8,-1.8 8.6,-3.6c1.5,-1.5 2.3,-3 2.8,-4.3c0.1,-0.2 0.2,-0.4 0.5,-0.1c0.6,0.4 0.9,0.8 0.8,1.2c-0.7,2.7 -2.1,6.1 -2.9,7.3c-0.4,0.5 -0.6,0.7 -1.1,0.7c-1.8,0.1 -6.4,1 -9.5,1c-15.9,0 -22.3,-10.7 -22.3,-20.1l0,0z"/>
       <path id="svg_62" d="m688.2,307.2c2.7,0 4.7,-0.1 6.2,-0.2c3.6,-0.2 3.9,-0.5 4.6,-4c0.2,-0.2 1.6,-0.3 1.9,-0.2c-0.1,1.7 -0.5,4.5 -0.5,6.3c0.1,2 0.2,3.7 0.4,5.4c-0.5,0.1 -1,0.2 -1.4,0.2c-0.3,0.1 -0.4,-0.1 -0.5,-0.4c-0.2,-0.7 -0.5,-1.6 -0.7,-2.3c-0.4,-1.6 -1.1,-2.1 -3.5,-2.3c-1.3,-0.1 -3.3,-0.1 -6.3,-0.1c-3,0 -3.6,0.1 -3.9,0.1c-0.2,0.1 -0.4,0.1 -0.6,0.4c-0.2,0.4 -0.5,2.4 -0.5,7.3c0,4.3 0,6 0.6,6.9c0.8,1.1 2.9,1.4 7.8,1.4c7,0 10.3,-0.7 12.1,-7c0.2,-0.1 0.8,0 1.4,0.1c0.2,0.1 0.2,0.2 0.2,0.5c-0.1,2.7 -1.1,6.6 -1.8,8.3c-0.3,0.4 -0.5,0.5 -0.8,0.5c-0.4,0 -0.8,0 -2.8,-0.1c-1.8,-0.1 -5.9,-0.1 -10.9,-0.1c-4.8,0 -9.5,0.2 -14.2,0.4c-0.1,-0.1 -0.2,-1.3 -0.1,-1.8c0,-0.1 0.2,-0.2 0.2,-0.2c2.7,-0.5 3,-0.9 3,-1.8c0.1,-0.9 0.4,-4.7 0.4,-10.8l0,-10.3c0,-7.9 -0.4,-10.5 -0.4,-10.9c-0.1,-0.4 -0.2,-0.7 -0.8,-0.8c-0.6,-0.2 -1.7,-0.4 -3.2,-0.8c-0.1,-0.1 -0.1,-0.1 -0.1,-0.2l0.1,-1.4c0,-0.2 0,-0.3 0.3,-0.3l2.1,0c1.8,0 4.1,0.1 7.7,0.2l5.8,0c3.6,0 8,-0.3 11,-0.4c0.8,0 1.1,0.1 1.4,0.3c0.5,0.4 0.5,0.4 0.3,1.4c-0.5,2.6 -0.5,6.1 -0.5,7.6c-1.6,0 -1.8,-0.2 -1.8,-0.5c-0.8,-4.3 -1.2,-6.4 -5.9,-6.4l-4.1,0c-3.5,0 -5.5,0.1 -6.1,0.3c-0.8,0.2 -0.9,0.8 -0.9,2.2c0,4.2 0.1,8.3 0.1,12.5c0,0.5 0.4,1 0.8,1l3.9,0z"/>
       <path id="svg_63" d="m711,329.2c-0.1,0 -0.3,-0.1 -0.5,-0.4c-0.2,-0.4 -0.4,-1.1 -0.4,-2.1c-0.1,-3 -0.5,-6 -1,-8.8c-0.2,-0.4 -0.1,-0.5 0.2,-0.6c0.4,-0.1 1,-0.2 1.3,-0.2c0.3,0 0.4,0.1 0.6,0.7c0.2,1 0.7,2.4 1.7,3.8c1.9,2.8 5.9,5.1 9.8,5.1c5.3,0 9,-3.4 9,-8.3c0,-2.1 -1,-3.8 -2.7,-5c-1.2,-0.9 -2.7,-1.8 -7.4,-3.5c-4.1,-1.6 -7,-3 -8.9,-5.2c-1.2,-1.4 -2.2,-3.9 -2.2,-6c0,-4.3 2.1,-7 5,-8.5c1.4,-0.8 4.9,-2 8.8,-2c1.7,0 4.6,0.3 5.7,0.5c0.8,0.2 1.3,0.2 1.7,0.2c0.4,0 1,-0.5 1.4,-1.2c0.6,-0.1 1.4,0 1.5,0.1c-0.2,3.3 0,6.2 0.5,9.3c0.1,0.3 0,0.6 -0.2,0.7c-0.2,0.2 -0.9,0.5 -1.4,0.7c-0.2,0.1 -0.2,-0.1 -0.4,-0.3c-0.7,-2.2 -1.1,-4.2 -2.8,-5.5c-1.2,-1.2 -4.2,-2.3 -7.2,-2.3c-4.5,0 -7.4,2.9 -7.4,6.8c0,1.9 0.8,3.4 1.6,4.3c1.5,1.5 3.2,2.6 7.6,4.1c4.2,1.5 7.1,3 8.9,4.6c2.4,2.1 3.1,4.4 3.1,7.2c0,4.3 -2.2,7.5 -5.2,9.2c-2.7,1.4 -7.9,2.1 -9.9,2.1c-2.6,0 -5.2,-0.4 -7.7,-0.9c-0.5,-0.1 -0.8,0 -1.1,0.1c-0.4,0.2 -0.8,0.4 -1.2,0.8c-0.3,0.4 -0.5,0.5 -0.8,0.5l0,0z"/>
       <path id="svg_64" d="m776.7,290.8c-5.3,0.5 -5.9,0.9 -6.1,2c-0.2,1.1 -0.4,3.3 -0.4,10.3l0,11.9c0,3.6 0.1,6.5 0.3,8.6c0.1,1.5 0.6,1.7 1.5,1.9c0.6,0.1 2.6,0.3 3.1,0.4c0.4,0.1 0.7,0.2 0.7,0.4c0,0.4 -0.4,1.5 -0.5,1.7c-4.8,-0.1 -7.3,-0.2 -9.5,-0.1c-2.6,0 -5.7,0.2 -5.8,0.2c-0.4,0 -0.7,-0.2 -0.7,-0.5c-0.2,-0.6 -0.3,-1.1 -0.2,-1.5c4.2,-0.1 5.5,-0.4 5.8,-2c0.1,-1 0.4,-3 0.4,-9.7l0,-14.2c0,-7.8 -0.1,-8.4 -2.1,-8.8c-0.7,-0.1 -1.6,-0.2 -3.2,-0.2c-0.2,0 -0.4,-0.2 -0.4,-0.4c0,-0.2 0.1,-0.4 0.3,-0.9c0.2,-0.4 0.3,-0.5 0.5,-0.6c0.5,-0.1 0.8,-0.1 1.6,-0.1c0.7,0 2.7,0.1 5.8,0.1c3.1,-0.1 7.1,-0.1 7.7,-0.1c0.8,0 0.8,0.1 0.9,0.2l0.3,1.4z"/>
       <path id="svg_65" d="m779.6,288.9c2.7,0.1 4,0.2 8.3,0.2c0.4,0 0.7,0.1 0.8,0.2c0.2,0.2 0.5,0.7 0.7,1.1c0.4,0.8 2.5,3.5 3.9,4.8c3.6,3.6 12.3,12.3 24.1,23.4c0.1,-1.9 0.1,-7.3 0.1,-11.7c0,-6.2 -0.1,-9.4 -0.3,-12.4c-0.1,-1 -0.2,-2.5 -1.5,-2.9c-0.7,-0.2 -2.3,-0.4 -3.5,-0.5c-0.2,-0.1 -0.3,-0.1 -0.3,-0.3l-0.1,-1.7c2.3,0 4.5,0 6.7,0c2.3,0 4.7,-0.2 6.5,-0.2c0.3,0 0.5,0.1 0.5,0.3l0.4,1.3c-2.1,0.5 -3,0.7 -3.9,1.3c-1.1,0.7 -1.5,2.6 -1.8,10.7c-0.1,5.4 -0.2,9.2 -0.2,17.2c0,3.8 0.2,7.3 0.2,8.3c-0.1,0.4 -0.4,0.7 -1.2,0.9c-0.3,0.1 -0.5,0.1 -0.8,-0.3c-3.5,-5.2 -9,-10.8 -15.3,-17c-4.9,-4.9 -9.6,-9.6 -14.5,-14.5c-0.2,3.3 -0.3,7.6 -0.3,10.9c0,5.4 0,13.5 0.7,15.7c0.5,1.4 2.3,1.8 4.8,2.3l0.4,1.4c0.1,0.2 -0.3,0.5 -0.5,0.5c-2.5,0 -5.1,-0.2 -7.6,-0.2c-2.1,0 -3.9,0.2 -4.9,0.2c-0.1,-0.6 -0.3,-1.2 -0.5,-1.7c3.8,-1 4,-1.6 4.3,-3.6c0.2,-1.5 0.7,-7 0.7,-15.4l0,-6.6c0,-6.1 -0.1,-7.1 -1.1,-8c-1,-1 -1.9,-1.5 -4.4,-1.8c-0.4,-0.1 -0.5,-0.2 -0.5,-0.4l0,-1.5l0.1,0z"/>
       <path id="svg_66" d="m829,308.8c0,-4.1 1.1,-9.5 5.1,-14c3,-3.3 7.3,-4.8 10.8,-5.7c2.6,-0.7 6.1,-1 8.6,-1c2.7,0 5.9,0.6 7.3,1.2c0.8,0.2 1.2,0.1 2.4,-0.5c0.2,-0.1 0.3,0 0.7,0.1c0.6,0.2 0.7,0.3 0.7,0.5c-1.2,2.4 -1.3,5.8 -1,9c0,0.1 -0.5,0.2 -0.9,0.3c-0.8,0.2 -0.9,0.1 -1.1,-0.2c-0.2,-1 -0.7,-2.6 -1.1,-3.7c-0.4,-1.1 -0.7,-1.7 -1.8,-2.5c-1,-0.7 -4,-2 -8,-2c-4.1,0 -8.2,1.7 -11.4,5.5c-2.3,2.9 -4.1,7.4 -4.1,13.4c0,6.5 3.6,17.5 16.9,17.5c4.3,0 6.8,-1.8 8.6,-3.6c1.6,-1.5 2.3,-3 2.8,-4.3c0.1,-0.2 0.2,-0.4 0.5,-0.1c0.6,0.4 0.9,0.8 0.8,1.2c-0.7,2.7 -2.1,6.1 -2.9,7.3c-0.3,0.5 -0.6,0.7 -1.1,0.7c-1.8,0.1 -6.4,1 -9.5,1c-15.9,0 -22.3,-10.7 -22.3,-20.1l0,0z"/>
       <path id="svg_67" d="m874.4,319.5c0.2,0 0.3,0.2 0.6,1.4c0.4,1.2 0.5,1.6 2.3,2.3c0.4,0.1 0.7,0.4 0.7,1.2c0,0.4 -0.1,0.5 -0.4,0.6c-2.1,0.5 -2.3,0.7 -3,3.5c-0.1,0.2 -0.2,0.4 -0.8,0.4c-0.9,0 -1.1,-0.7 -2,-2.6c-0.2,-0.7 -0.7,-0.9 -1.9,-1.4c-0.6,-0.2 -0.8,-0.8 -0.8,-1c0,-0.5 0.6,-1 1.1,-1.1c1.6,-0.3 1.8,-0.5 2.5,-2.3c0.2,-0.7 0.8,-1 1.7,-1l0,0z"/>
      </g>
      <g id="svg_68">
       <path id="svg_69" d="m742.9,337.5c-0.3,0.1 -0.7,0.2 -1,0.2c-0.3,0 -0.5,-0.2 -0.5,-0.4c0,-0.2 0.2,-0.4 0.4,-0.6c0.9,-0.8 3.2,-2.9 3.2,-5.4c0,-0.7 -0.6,-1.2 -0.9,-1.3c-0.4,-0.2 -2.4,-0.7 -2.4,-2.8c0,-1.9 1.2,-3.5 3.1,-3.5c2.5,0 4.4,2.3 4.4,5.6c0,4.4 -5,7.6 -6.3,8.2z"/>
      </g>
     </g>
    </g>
   </g>
   <g id="svg_70">
    <path id="svg_71" d="m696.1,117l0,2.4l-4.7,0l0,12.2l-2.9,0l0,-12.2l-4.7,0l0,-2.4l12.3,0zm15.8,14.7l-0.5,-8.6c-0.1,-1.1 -0.1,-2.5 -0.1,-4.1l-0.2,0c-0.4,1.3 -0.8,3 -1.2,4.4l-2.6,8.1l-3,0l-2.6,-8.3c-0.3,-1.1 -0.7,-2.9 -1,-4.1l-0.2,0c0,1.3 -0.1,2.7 -0.1,4.1l-0.5,8.6l-2.8,0l0.9,-14.8l4.4,0l2.5,7.2c0.3,1.1 0.6,2.2 1,3.7l0.1,0c0.4,-1.3 0.7,-2.6 1,-3.7l2.5,-7.2l4.2,0l1.1,14.6l-2.9,0l0,0.1z"/>
   </g>
  </g>
 </g>
</svg>